<svg id="Layer_1" data-name="Layer 1" xmlns="http://www.w3.org/2000/svg" viewBox="0 0 2000 519.73"><defs><style>.cls-1{fill:#2c83ec;}.cls-2{fill:#333;}</style></defs><path class="cls-1" d="M738.62,128.68C694.12,4.75,494.69-37.06,293.19,35.29S-35.61,266.76,8.86,390.66s243.93,165.75,445.43,93.4c55.23-19.83,104.88-46.16,146.94-76.52A486.67,486.67,0,0,0,642.83,374c-.71,0-1.42,0-2.13,0a83.72,83.72,0,0,1-19.9-2.27,442,442,0,0,1-35,29.7c-39.15,30-85.71,55.79-137.71,74.45C263.37,542.27,80,493.39,39.22,379.77S111.93,110,296.68,43.61s370.79-17.65,411.58,96c8.11,22.57,10,46.84,6.4,71.76a204.38,204.38,0,0,1-13.41,48.21c.49.83,1,1.66,1.44,2.52a76.08,76.08,0,0,1,8.74,31.63,253.65,253.65,0,0,0,27.29-58.45C750.1,198.76,750.73,162.41,738.62,128.68Z" transform="translate(0 0.19)"/><path class="cls-2" d="M292.48,317.05a52.87,52.87,0,0,0-32.34-18.59q18-5.35,28.82-18.27t10.85-32.14A50.7,50.7,0,0,0,291,218.76q-8.84-12.93-26-20.17t-40.81-7.26h-96v219.9H228.49q23.67,0,41-7.55c11.56-5.06,20.4-12,26.5-21s9.16-19.27,9.16-31A52.51,52.51,0,0,0,292.48,317.05ZM174.85,226.94H217.5q16.67,0,25.64,7.26c6,4.81,9,11.65,9,20.47s-3,15.58-9,20.32-14.53,7.08-25.64,7.08H174.85Zm73.47,140.81q-9.49,7.59-26.5,7.57h-47V316.09h46q17,0,27,8t10,22.2Q257.82,360.22,248.32,367.75Z" transform="translate(0 0.19)"/><path class="cls-2" d="M449.09,322.08q26.34-6.6,39.67-24.11a65.19,65.19,0,0,0,3.83-73.39q-9.48-15.29-28.5-24.26t-46-9H330.8v219.9h46.65V325.55h22l51.31,85.68h54Zm-32.65-29.6h-39V227.9h39q19,0,28.33,8.33c6.2,5.56,9.33,13.4,9.33,23.47,0,10.3-3.13,18.34-9.33,24.1S429.11,292.48,416.44,292.48Z" transform="translate(0 0.19)"/><path class="cls-2" d="M743.85,242.85q-2.43-3.93-5.13-7.6a108.29,108.29,0,0,0-24.06-23.91,112.54,112.54,0,0,0-13.8-8.65q-27.18-14.5-60.16-14.51-32.64,0-60,14.51a111.56,111.56,0,0,0-43.3,40.16q-16,25.68-16,57.81,0,32.46,16,58.13a111.39,111.39,0,0,0,43.3,40.15c1.69.91,3.4,1.74,5.11,2.54a116.75,116.75,0,0,0,15.41,6.06,129.31,129.31,0,0,0,39.47,5.91q32.68,0,60-14.51a110.38,110.38,0,0,0,43.16-40.15q15.82-25.68,15.82-58.13Q759.67,268.53,743.85,242.85Zm-41.16,96.57a63.26,63.26,0,0,1-25,25.67q-15.19,8.54-34.87,8.94c-.71,0-1.42,0-2.13,0a83.72,83.72,0,0,1-19.9-2.27,69.2,69.2,0,0,1-17.25-6.69,62.79,62.79,0,0,1-25.16-25.67q-9-16.71-9-38.76t9-38.59a62,62,0,0,1,25.16-25.36q16.16-8.82,37.15-8.81t37,8.81a62,62,0,0,1,23.55,22.84c.49.83,1,1.66,1.44,2.52a76.08,76.08,0,0,1,8.74,31.63c.18,2.27.25,4.59.25,7Q711.68,322.71,702.69,339.42Z" transform="translate(0 0.19)"/><path class="cls-2" d="M874.3,300.34l96-109H914L829.33,290V191.33H782.66v219.9h46.67v-98l84.63,98h59Z" transform="translate(0 0.19)"/><path class="cls-2" d="M1126.9,226.94V191H992V411.23h135V375.32h-88.3V317.05h78.31v-35H1038.6V226.94Z" transform="translate(0 0.19)"/><path class="cls-2" d="M1275.86,322.08q26.31-6.6,39.67-24.11a65.29,65.29,0,0,0,3.83-73.39q-9.52-15.29-28.5-24.26t-46-9h-87.32v219.9h46.67V325.55h22l51.31,85.68h54Zm-32.65-29.6h-39V227.9h39q19,0,28.33,8.33c6.2,5.56,9.33,13.4,9.33,23.47,0,10.3-3.13,18.34-9.33,24.1S1255.86,292.48,1243.21,292.48Z" transform="translate(0 0.19)"/><path class="cls-2" d="M1516,381.48q-20.48,12.42-49.48,12.43-25.65,0-46.16-11.33a81,81,0,0,1-32.14-32.46Q1376.47,329,1376.49,301t11.68-49.32a80.78,80.78,0,0,1,32.14-32.6q20.52-11.33,46.16-11.34,29,0,49.48,12.61a76.82,76.82,0,0,1,30.51,35h27.31q-12.64-31.83-40.47-49.31t-66.83-17.49q-32,0-58,14.34a106,106,0,0,0-41,40q-15,25.68-15,58.13t15,57.95a106,106,0,0,0,41,39.87q26,14.32,58,14.33,38.65,0,66.66-17.34T1573.77,347h-27.31A76.35,76.35,0,0,1,1516,381.48Z" transform="translate(0 0.19)"/><path class="cls-2" d="M1730.06,209V190.72H1608.43V411.23h121.63V393h-98.31V309.48h88.32V291.21h-88.32V209Z" transform="translate(0 0.19)"/><path class="cls-2" d="M1787.73,393.28V191H1764.4V411.23h107v-18Z" transform="translate(0 0.19)"/><path class="cls-2" d="M1916.35,393.28V191H1893V411.23h107v-18Z" transform="translate(0 0.19)"/><path class="cls-2" d="M650.52,439.61l-14.68,32.82v20.9h-4.59v-20.9l-14.81-32.82h5.18l11.93,27.9,11.86-27.9Z" transform="translate(0 0.19)"/><path class="cls-2" d="M664.12,491.3a18.08,18.08,0,0,1-6.35-7.54,28.93,28.93,0,0,1,0-22.82,18.15,18.15,0,0,1,6.42-7.54,17,17,0,0,1,18.25,0,17.89,17.89,0,0,1,6.43,7.54,26.26,26.26,0,0,1,2.32,11.41,26,26,0,0,1-2.36,11.38,18,18,0,0,1-6.48,7.57A16.73,16.73,0,0,1,673.2,494,16.21,16.21,0,0,1,664.12,491.3Zm15.63-3.92a13.6,13.6,0,0,0,4.89-5.69,21.15,21.15,0,0,0,1.86-9.34,21.45,21.45,0,0,0-1.83-9.34,13.26,13.26,0,0,0-4.85-5.69,12.37,12.37,0,0,0-13.11,0,13.14,13.14,0,0,0-4.82,5.69,25.13,25.13,0,0,0,0,18.68,13.27,13.27,0,0,0,4.79,5.69,12,12,0,0,0,6.52,1.88A12.17,12.17,0,0,0,679.75,487.38Z" transform="translate(0 0.19)"/><path class="cls-2" d="M730.94,451.37v42h-4.59V486a12.16,12.16,0,0,1-4.85,6,13.44,13.44,0,0,1-7.34,2.07,13.27,13.27,0,0,1-10.48-4.64q-4.06-4.65-4.07-13.49V451.37h4.53v23.9q0,6.84,2.91,10.45a9.7,9.7,0,0,0,8,3.62,10,10,0,0,0,8.25-3.85q3.09-3.84,3.08-11.3V451.37Z" transform="translate(0 0.19)"/><path class="cls-2" d="M751,452.75a13.17,13.17,0,0,1,7.64-2.15v5.61h-1.25a10.54,10.54,0,0,0-8,3.15q-3,3.15-3,10.53v23.44h-4.58v-42h4.58v7.45A12.73,12.73,0,0,1,751,452.75Z" transform="translate(0 0.19)"/><path class="cls-2" d="M810.9,439.61v4.45H798.19v49.27H793.6V444.06H780.82v-4.45Z" transform="translate(0 0.19)"/><path class="cls-2" d="M827.71,452.75a13.15,13.15,0,0,1,7.64-2.15v5.61H834.1a10.54,10.54,0,0,0-8,3.15q-3,3.15-3,10.53v23.44H818.5v-42h4.59v7.45A12.73,12.73,0,0,1,827.71,452.75Z" transform="translate(0 0.19)"/><path class="cls-2" d="M873.56,451.37v42H869V486a12.27,12.27,0,0,1-4.85,6,13.47,13.47,0,0,1-7.34,2.07,13.29,13.29,0,0,1-10.49-4.64q-4.06-4.65-4.06-13.49V451.37h4.52v23.9q0,6.84,2.92,10.45a9.68,9.68,0,0,0,8,3.62,10,10,0,0,0,8.26-3.85q3.08-3.84,3.08-11.3V451.37Z" transform="translate(0 0.19)"/><path class="cls-2" d="M886.63,490.6a12.78,12.78,0,0,1-4.36-9.1H887a8.31,8.31,0,0,0,2.85,5.72,10,10,0,0,0,6.79,2.19,8,8,0,0,0,5.86-2.07,6.91,6.91,0,0,0,2.13-5.15,5.24,5.24,0,0,0-1.18-3.54,8.32,8.32,0,0,0-3-2.19,42.26,42.26,0,0,0-4.88-1.73,44.46,44.46,0,0,1-6.49-2.46,11.33,11.33,0,0,1-4.23-3.65,11,11,0,0,1-1.73-6.49,10.81,10.81,0,0,1,1.57-5.69,11.19,11.19,0,0,1,4.46-4.15,13.62,13.62,0,0,1,6.55-1.54,12.83,12.83,0,0,1,9.31,3.42q3.54,3.42,3.8,9.42h-4.59a8.75,8.75,0,0,0-2.46-6,8.35,8.35,0,0,0-6.19-2.27,8.15,8.15,0,0,0-5.64,1.93,6.6,6.6,0,0,0-.88,8.79,8.58,8.58,0,0,0,3.18,2.46,48.51,48.51,0,0,0,5.11,2,44.42,44.42,0,0,1,6.16,2.39,10.91,10.91,0,0,1,3.93,3.38,10.16,10.16,0,0,1,1.71,5.92,11.6,11.6,0,0,1-1.58,6,11.15,11.15,0,0,1-4.39,4.19,13.28,13.28,0,0,1-6.49,1.54A14.92,14.92,0,0,1,886.63,490.6Z" transform="translate(0 0.19)"/><path class="cls-2" d="M924.09,455.9V482q0,3.84,1.24,5.3c.83,1,2.3,1.46,4.4,1.46h4.19v4.61H929q-4.86,0-7.21-2.65c-1.58-1.77-2.36-4.67-2.36-8.72V455.9h-5v-4.53h5V440.84h4.65v10.53h9.83v4.53Z" transform="translate(0 0.19)"/><path class="cls-2" d="M974,474.42H944.34a19.08,19.08,0,0,0,2,8.15,12.52,12.52,0,0,0,4.65,5.11,11.94,11.94,0,0,0,6.29,1.73,11.35,11.35,0,0,0,7.51-2.53,12.13,12.13,0,0,0,4-6.84h4.85a18.25,18.25,0,0,1-5.61,10A15.49,15.49,0,0,1,957.25,494a16,16,0,0,1-9-2.65,17.69,17.69,0,0,1-6.26-7.54,26.83,26.83,0,0,1-2.26-11.41,27.46,27.46,0,0,1,2.23-11.45,17.24,17.24,0,0,1,6.22-7.54,16.3,16.3,0,0,1,9.11-2.61,15.53,15.53,0,0,1,9,2.61,17.1,17.1,0,0,1,5.9,7,22.93,22.93,0,0,1,2.06,9.8C974.16,472,974.12,473.45,974,474.42Zm-6.13-12.37a11.79,11.79,0,0,0-4.55-5,12.28,12.28,0,0,0-6.29-1.69,11.49,11.49,0,0,0-8.72,3.85q-3.6,3.84-4,10.83h25.17A17,17,0,0,0,967.9,462.05Z" transform="translate(0 0.19)"/><path class="cls-2" d="M983,460.94a17.79,17.79,0,0,1,6.13-7.54,15.37,15.37,0,0,1,8.81-2.65,14.41,14.41,0,0,1,8.52,2.69,15.67,15.67,0,0,1,5.57,7v-24h4.59v56.87H1012V484a15.64,15.64,0,0,1-5.37,7.18,14.22,14.22,0,0,1-8.78,2.81,15.19,15.19,0,0,1-8.82-2.69,17.77,17.77,0,0,1-6.09-7.61,27.57,27.57,0,0,1-2.2-11.38A27,27,0,0,1,983,460.94Zm27.27,2.49a14,14,0,0,0-4.82-5.91,11.63,11.63,0,0,0-6.72-2.08,12.1,12.1,0,0,0-6.82,2,13.46,13.46,0,0,0-4.75,5.8,21.59,21.59,0,0,0-1.73,9,21.85,21.85,0,0,0,1.73,9,13.59,13.59,0,0,0,4.75,5.92,11.9,11.9,0,0,0,6.82,2,11.63,11.63,0,0,0,6.72-2.08,14,14,0,0,0,4.82-5.91,23.48,23.48,0,0,0,0-17.84Z" transform="translate(0 0.19)"/><path class="cls-2" d="M1071.16,466.2q-3.87,4.23-11.6,4.23h-9.24v22.9h-4.59V439.61h13.83q7.67,0,11.57,4.22t3.9,11.23Q1075,462,1071.16,466.2Zm-.85-11.14q0-5.38-2.56-8.15t-8.19-2.77h-9.24v21.68h9.24Q1070.32,465.82,1070.31,455.06Z" transform="translate(0 0.19)"/><path class="cls-2" d="M1083.12,460.94a17.59,17.59,0,0,1,6.1-7.54,15.37,15.37,0,0,1,8.81-2.65,14.29,14.29,0,0,1,8.82,2.77,15.52,15.52,0,0,1,5.34,7.07v-9.22h4.59v42h-4.59V484a16.3,16.3,0,0,1-5.41,7.11A14.17,14.17,0,0,1,1098,494a15.06,15.06,0,0,1-8.75-2.69,17.86,17.86,0,0,1-6.1-7.61,27.74,27.74,0,0,1-2.19-11.38A27.43,27.43,0,0,1,1083.12,460.94Zm27.3,2.49a14,14,0,0,0-4.82-5.91,11.62,11.62,0,0,0-6.71-2.08,12.08,12.08,0,0,0-6.82,2,13.39,13.39,0,0,0-4.75,5.8,21.58,21.58,0,0,0-1.74,9,21.84,21.84,0,0,0,1.74,9,13.52,13.52,0,0,0,4.75,5.92,11.88,11.88,0,0,0,6.82,2,11.62,11.62,0,0,0,6.71-2.08,14,14,0,0,0,4.82-5.91,23.36,23.36,0,0,0,0-17.84Z" transform="translate(0 0.19)"/><path class="cls-2" d="M1136.8,452.75a13.15,13.15,0,0,1,7.64-2.15v5.61h-1.25a10.57,10.57,0,0,0-8,3.15q-3,3.15-3,10.53v23.44h-4.59v-42h4.59v7.45A12.61,12.61,0,0,1,1136.8,452.75Z" transform="translate(0 0.19)"/><path class="cls-2" d="M1157.61,455.9V482c0,2.56.41,4.33,1.25,5.3s2.29,1.46,4.39,1.46h4.19v4.61h-4.91q-4.86,0-7.21-2.65c-1.58-1.77-2.36-4.67-2.36-8.72V455.9h-5v-4.53h5V440.84h4.65v10.53h9.83v4.53Z" transform="translate(0 0.19)"/><path class="cls-2" d="M1202.57,455.25q4.07,4.65,4.06,13.49v24.59h-4.52v-24q0-6.84-2.92-10.45a9.66,9.66,0,0,0-8-3.61,10.06,10.06,0,0,0-8.26,3.84q-3.08,3.84-3.08,11.3v22.9h-4.59v-42h4.59v7.14a13,13,0,0,1,4.92-5.88,14.11,14.11,0,0,1,17.76,2.62Z" transform="translate(0 0.19)"/><path class="cls-2" d="M1249.37,474.42h-29.69a19.08,19.08,0,0,0,2,8.15,12.47,12.47,0,0,0,4.66,5.11,11.94,11.94,0,0,0,6.29,1.73,11.33,11.33,0,0,0,7.5-2.53,12.08,12.08,0,0,0,4-6.84H1249a18.24,18.24,0,0,1-5.6,10,15.51,15.51,0,0,1-10.78,3.88,16.07,16.07,0,0,1-9-2.65,17.76,17.76,0,0,1-6.26-7.54,27,27,0,0,1-2.26-11.41,27.62,27.62,0,0,1,2.23-11.45,17.26,17.26,0,0,1,6.23-7.54,16.28,16.28,0,0,1,9.11-2.61,15.47,15.47,0,0,1,8.94,2.61,17,17,0,0,1,5.9,7,22.79,22.79,0,0,1,2.07,9.8C1249.5,472,1249.45,473.45,1249.37,474.42Zm-6.13-12.37a11.81,11.81,0,0,0-4.56-5,12.28,12.28,0,0,0-6.29-1.69,11.51,11.51,0,0,0-8.72,3.85q-3.6,3.84-4,10.83h25.16A17,17,0,0,0,1243.24,462.05Z" transform="translate(0 0.19)"/><path class="cls-2" d="M1267.42,452.75a13.15,13.15,0,0,1,7.64-2.15v5.61h-1.25a10.54,10.54,0,0,0-8,3.15q-3,3.15-3,10.53v23.44h-4.59v-42h4.59v7.45A12.73,12.73,0,0,1,1267.42,452.75Z" transform="translate(0 0.19)"/><path class="cls-2" d="M1300.49,442.3a4.23,4.23,0,0,1-1-2.85,4.06,4.06,0,0,1,1-2.8,3,3,0,0,1,4.72,0,4.1,4.1,0,0,1,1,2.8,4.27,4.27,0,0,1-1,2.85,3,3,0,0,1-4.72,0Zm4.65,9.07v42h-4.59v-42Z" transform="translate(0 0.19)"/><path class="cls-2" d="M1343.15,455.25q4.06,4.65,4.07,13.49v24.59h-4.52v-24q0-6.84-2.92-10.45a9.68,9.68,0,0,0-8-3.61,10,10,0,0,0-8.26,3.84q-3.09,3.84-3.08,11.3v22.9h-4.59v-42h4.59v7.14a13,13,0,0,1,4.91-5.88,14.11,14.11,0,0,1,17.76,2.62Z" transform="translate(0 0.19)"/><path class="cls-2" d="M1404,470.2a14.69,14.69,0,0,1,2.68,8.76,15.47,15.47,0,0,1-1.73,7.34,12.59,12.59,0,0,1-5.08,5.15,16,16,0,0,1-8,1.88H1376V439.61h15.4q6.94,0,10.59,3.76a13.49,13.49,0,0,1,3.63,9.76,13.3,13.3,0,0,1-2.29,8.11,12,12,0,0,1-5.9,4.35A10.85,10.85,0,0,1,1404,470.2Zm-23.4-6.84h10.68q4.65,0,7.18-2.58a9.71,9.71,0,0,0,2.52-7.11,9.48,9.48,0,0,0-2.52-7c-1.69-1.69-4.14-2.54-7.38-2.54h-10.48ZM1399.29,486a10.23,10.23,0,0,0,2.79-7.61,10.37,10.37,0,0,0-2.92-7.72,10.68,10.68,0,0,0-7.83-2.89h-10.75v21h10.94Q1396.5,488.8,1399.29,486Z" transform="translate(0 0.19)"/><path class="cls-2" d="M1432.19,470.08q6.58-8.41,6.59-16.48a14.48,14.48,0,0,0-2.26-8.5c-1.51-2.12-4-3.19-7.38-3.19a9,9,0,0,0-7.7,3.65,17.61,17.61,0,0,0-3,9.73h-4.45q.39-8.54,4.49-13.26a14.61,14.61,0,0,1,21-.54q3.93,4.18,3.94,11.87,0,9.31-6.59,18a110.51,110.51,0,0,1-16.22,17h24.25V493h-31.27v-3.84A148.74,148.74,0,0,0,1432.19,470.08Z" transform="translate(0 0.19)"/><path class="cls-2" d="M1481.25,470.2a14.69,14.69,0,0,1,2.68,8.76,15.47,15.47,0,0,1-1.73,7.34,12.59,12.59,0,0,1-5.08,5.15,16,16,0,0,1-8,1.88h-15.86V439.61h15.4q6.94,0,10.59,3.76a13.49,13.49,0,0,1,3.64,9.76,13.3,13.3,0,0,1-2.3,8.11,12,12,0,0,1-5.9,4.35A10.82,10.82,0,0,1,1481.25,470.2Zm-23.4-6.84h10.68c3.1,0,5.5-.86,7.18-2.58a9.71,9.71,0,0,0,2.52-7.11,9.48,9.48,0,0,0-2.52-7q-2.52-2.54-7.38-2.54h-10.48ZM1476.56,486a10.23,10.23,0,0,0,2.79-7.61,10.37,10.37,0,0,0-2.92-7.72,10.65,10.65,0,0,0-7.83-2.89h-10.75v21h10.94Q1473.77,488.8,1476.56,486Z" transform="translate(0 0.19)"/><path class="cls-2" d="M1537.81,439.61v4.45h-12.72v49.27h-4.59V444.06h-12.78v-4.45Z" transform="translate(0 0.19)"/><path class="cls-2" d="M1577.66,474.42H1548a19.08,19.08,0,0,0,2,8.15,12.52,12.52,0,0,0,4.65,5.11,12,12,0,0,0,6.3,1.73,11.33,11.33,0,0,0,7.5-2.53,12.08,12.08,0,0,0,4-6.84h4.85a18.24,18.24,0,0,1-5.6,10,15.51,15.51,0,0,1-10.78,3.88,16.07,16.07,0,0,1-9.05-2.65,17.76,17.76,0,0,1-6.26-7.54,27,27,0,0,1-2.26-11.41,27.46,27.46,0,0,1,2.23-11.45,17.26,17.26,0,0,1,6.23-7.54,16.28,16.28,0,0,1,9.11-2.61,15.47,15.47,0,0,1,8.94,2.61,17,17,0,0,1,5.9,7,22.79,22.79,0,0,1,2.07,9.8C1577.79,472,1577.74,473.45,1577.66,474.42Zm-6.13-12.37a11.87,11.87,0,0,0-4.56-5,12.28,12.28,0,0,0-6.29-1.69,11.51,11.51,0,0,0-8.72,3.85q-3.6,3.84-4,10.83h25.16A17,17,0,0,0,1571.53,462.05Z" transform="translate(0 0.19)"/><path class="cls-2" d="M1586.63,460.94a17.65,17.65,0,0,1,6.17-7.54,17,17,0,0,1,19.89,1.19,18.06,18.06,0,0,1,5.54,10.46h-4.92a12.12,12.12,0,0,0-4-7.11,12.15,12.15,0,0,0-14.06-.65,12.81,12.81,0,0,0-4.56,5.72,23.29,23.29,0,0,0-1.67,9.34,23.56,23.56,0,0,0,1.67,9.38,12.82,12.82,0,0,0,4.56,5.76,12.2,12.2,0,0,0,14.06-.65,12.15,12.15,0,0,0,4-7.19h4.92a18.19,18.19,0,0,1-5.57,10.38,16.83,16.83,0,0,1-19.86,1.27,17.65,17.65,0,0,1-6.17-7.54,30.43,30.43,0,0,1,0-22.82Z" transform="translate(0 0.19)"/><path class="cls-2" d="M1651.36,452.6a13.47,13.47,0,0,1,5.11,6.11,24.24,24.24,0,0,1,1.87,10v24.59h-4.53v-24q0-6.84-2.91-10.45a9.69,9.69,0,0,0-8-3.61,10,10,0,0,0-8.25,3.84q-3.09,3.84-3.08,11.3v22.9H1627V436.46h4.59v22.05a13,13,0,0,1,5-5.84,13.76,13.76,0,0,1,7.44-2.07A13.61,13.61,0,0,1,1651.36,452.6Z" transform="translate(0 0.19)"/><path class="cls-2" d="M1691.7,444v20.06h17.36v4.46H1691.7v20.37H1711v4.45h-23.92v-53.8H1711V444Z" transform="translate(0 0.19)"/><path class="cls-2" d="M1739.15,493.33l-9.24-16.91L1721,493.33h-4.85l11.54-21-11.41-21h5.18l9.11,16.67,8.85-16.67h4.78l-11.4,20.75,11.54,21.21Z" transform="translate(0 0.19)"/><path class="cls-2" d="M1751,460.94a17.71,17.71,0,0,1,6.16-7.54,17,17,0,0,1,19.89,1.19,18.06,18.06,0,0,1,5.54,10.46h-4.91a12.18,12.18,0,0,0-4-7.11,12.15,12.15,0,0,0-14.06-.65,12.79,12.79,0,0,0-4.55,5.72,23.12,23.12,0,0,0-1.67,9.34,23.39,23.39,0,0,0,1.67,9.38,12.8,12.8,0,0,0,4.55,5.76,11.45,11.45,0,0,0,6.49,1.92,11.29,11.29,0,0,0,7.57-2.57,12.22,12.22,0,0,0,4-7.19h4.91A18.19,18.19,0,0,1,1777,490a16.83,16.83,0,0,1-19.86,1.27,17.71,17.71,0,0,1-6.16-7.54,30.31,30.31,0,0,1,0-22.82Z" transform="translate(0 0.19)"/><path class="cls-2" d="M1815.73,452.6a13.41,13.41,0,0,1,5.11,6.11,24.08,24.08,0,0,1,1.87,10v24.59h-4.52v-24q0-6.84-2.92-10.45a9.67,9.67,0,0,0-8-3.61,10,10,0,0,0-8.26,3.84Q1796,463,1796,470.43v22.9h-4.59V436.46H1796v22.05a13.15,13.15,0,0,1,5-5.84,13.76,13.76,0,0,1,7.44-2.07A13.58,13.58,0,0,1,1815.73,452.6Z" transform="translate(0 0.19)"/><path class="cls-2" d="M1833.3,460.94a17.5,17.5,0,0,1,6.09-7.54,15.38,15.38,0,0,1,8.82-2.65,14.26,14.26,0,0,1,8.81,2.77,15.52,15.52,0,0,1,5.34,7.07v-9.22H1867v42h-4.59V484a16.28,16.28,0,0,1-5.4,7.11,14.2,14.2,0,0,1-8.82,2.81,15.09,15.09,0,0,1-8.75-2.69,17.77,17.77,0,0,1-6.09-7.61,27.57,27.57,0,0,1-2.2-11.38A27.27,27.27,0,0,1,1833.3,460.94Zm27.29,2.49a14,14,0,0,0-4.81-5.91,11.63,11.63,0,0,0-6.72-2.08,12.08,12.08,0,0,0-6.82,2,13.46,13.46,0,0,0-4.75,5.8,21.58,21.58,0,0,0-1.74,9,21.84,21.84,0,0,0,1.74,9,13.59,13.59,0,0,0,4.75,5.92,11.88,11.88,0,0,0,6.82,2,11.63,11.63,0,0,0,6.72-2.08,14,14,0,0,0,4.81-5.91,23.36,23.36,0,0,0,0-17.84Z" transform="translate(0 0.19)"/><path class="cls-2" d="M1905,455.25q4.07,4.65,4.06,13.49v24.59h-4.52v-24q0-6.84-2.92-10.45a9.66,9.66,0,0,0-8-3.61,10.06,10.06,0,0,0-8.26,3.84q-3.08,3.84-3.08,11.3v22.9h-4.59v-42h4.59v7.14a13,13,0,0,1,4.92-5.88,14.11,14.11,0,0,1,17.76,2.62Z" transform="translate(0 0.19)"/><path class="cls-2" d="M1943.37,453.52a15.63,15.63,0,0,1,5.38,7v-9.14h4.58v43a23.43,23.43,0,0,1-2.13,10.22,16.15,16.15,0,0,1-5.93,6.88,15.78,15.78,0,0,1-8.65,2.42,17.14,17.14,0,0,1-11.44-3.84,16.87,16.87,0,0,1-5.67-10.45H1924a12.84,12.84,0,0,0,4.49,7,12.64,12.64,0,0,0,8.09,2.61,11.41,11.41,0,0,0,6.23-1.73,11.6,11.6,0,0,0,4.32-5.11,18.76,18.76,0,0,0,1.58-8V484a16.3,16.3,0,0,1-5.41,7.11,14.09,14.09,0,0,1-8.75,2.81,15.19,15.19,0,0,1-8.82-2.69,17.77,17.77,0,0,1-6.09-7.61,27.57,27.57,0,0,1-2.2-11.38,27.27,27.27,0,0,1,2.2-11.33,17.5,17.5,0,0,1,6.09-7.54,15.38,15.38,0,0,1,8.82-2.65A14.32,14.32,0,0,1,1943.37,453.52Zm3.61,9.91a14,14,0,0,0-4.82-5.91,11.63,11.63,0,0,0-6.72-2.08,12.1,12.1,0,0,0-6.82,2,13.46,13.46,0,0,0-4.75,5.8,21.59,21.59,0,0,0-1.73,9,21.85,21.85,0,0,0,1.73,9,13.59,13.59,0,0,0,4.75,5.92,11.9,11.9,0,0,0,6.82,2,11.63,11.63,0,0,0,6.72-2.08,14,14,0,0,0,4.82-5.91,23.36,23.36,0,0,0,0-17.84Z" transform="translate(0 0.19)"/><path class="cls-2" d="M1996.39,474.42H1966.7a19.08,19.08,0,0,0,2,8.15,12.52,12.52,0,0,0,4.65,5.11,12,12,0,0,0,6.3,1.73,11.33,11.33,0,0,0,7.5-2.53,12.08,12.08,0,0,0,4-6.84H1996a18.24,18.24,0,0,1-5.6,10,15.52,15.52,0,0,1-10.78,3.88,16.07,16.07,0,0,1-9-2.65,17.76,17.76,0,0,1-6.26-7.54,26.83,26.83,0,0,1-2.26-11.41,27.46,27.46,0,0,1,2.23-11.45,17.24,17.24,0,0,1,6.22-7.54,16.33,16.33,0,0,1,9.12-2.61,15.5,15.5,0,0,1,8.94,2.61,17.1,17.1,0,0,1,5.9,7,22.79,22.79,0,0,1,2.07,9.8C1996.53,472,1996.48,473.45,1996.39,474.42Zm-6.12-12.37a11.87,11.87,0,0,0-4.56-5,12.28,12.28,0,0,0-6.29-1.69,11.49,11.49,0,0,0-8.72,3.85q-3.6,3.84-4,10.83h25.17A17,17,0,0,0,1990.27,462.05Z" transform="translate(0 0.19)"/></svg>