<svg id="Layer_1" data-name="Layer 1" xmlns="http://www.w3.org/2000/svg" viewBox="0 0 2000 536.88"><defs><style>.cls-1{fill:#2c83ec;}.cls-2,.cls-3{fill:#333;}.cls-3{font-size:67.11px;font-family:Poppins-Light, Poppins;font-weight:300;}</style></defs><path class="cls-1" d="M738.62,128.68C694.12,4.75,494.69-37.06,293.19,35.29S-35.61,266.76,8.86,390.66s243.93,165.75,445.43,93.4c55.23-19.83,104.88-46.16,146.94-76.52A486.67,486.67,0,0,0,642.83,374c-.71,0-1.42,0-2.13,0a83.72,83.72,0,0,1-19.9-2.27,442,442,0,0,1-35,29.7c-39.15,30-85.71,55.79-137.71,74.45C263.37,542.27,80,493.39,39.22,379.77S111.93,110,296.68,43.61s370.79-17.65,411.58,96c8.11,22.57,10,46.84,6.4,71.76a204.38,204.38,0,0,1-13.41,48.21c.49.83,1,1.66,1.44,2.52a76.08,76.08,0,0,1,8.74,31.63,253.65,253.65,0,0,0,27.29-58.45C750.1,198.76,750.73,162.41,738.62,128.68Z" transform="translate(0 0.19)"/><path class="cls-2" d="M292.48,317.05a52.87,52.87,0,0,0-32.34-18.59q18-5.35,28.82-18.27t10.85-32.14A50.7,50.7,0,0,0,291,218.76q-8.84-12.93-26-20.17t-40.81-7.26h-96v219.9H228.49q23.67,0,41-7.55c11.56-5.06,20.4-12,26.5-21s9.16-19.27,9.16-31A52.51,52.51,0,0,0,292.48,317.05ZM174.85,226.94H217.5q16.67,0,25.64,7.26c6,4.81,9,11.65,9,20.47s-3,15.58-9,20.32-14.53,7.08-25.64,7.08H174.85Zm73.47,140.81q-9.49,7.59-26.5,7.57h-47V316.09h46q17,0,27,8t10,22.2Q257.82,360.22,248.32,367.75Z" transform="translate(0 0.19)"/><path class="cls-2" d="M449.09,322.08q26.34-6.6,39.67-24.11a65.19,65.19,0,0,0,3.83-73.39q-9.48-15.29-28.5-24.26t-46-9H330.8v219.9h46.65V325.55h22l51.31,85.68h54Zm-32.65-29.6h-39V227.9h39q19,0,28.33,8.33c6.2,5.56,9.33,13.4,9.33,23.47,0,10.3-3.13,18.34-9.33,24.1S429.11,292.48,416.44,292.48Z" transform="translate(0 0.19)"/><path class="cls-2" d="M743.85,242.85q-2.43-3.93-5.13-7.6a108.29,108.29,0,0,0-24.06-23.91,112.54,112.54,0,0,0-13.8-8.65q-27.18-14.5-60.16-14.51-32.64,0-60,14.51a111.56,111.56,0,0,0-43.3,40.16q-16,25.68-16,57.81,0,32.46,16,58.13a111.39,111.39,0,0,0,43.3,40.15c1.69.91,3.4,1.74,5.11,2.54a116.75,116.75,0,0,0,15.41,6.06,129.31,129.31,0,0,0,39.47,5.91q32.68,0,60-14.51a110.38,110.38,0,0,0,43.16-40.15q15.82-25.68,15.82-58.13Q759.67,268.53,743.85,242.85Zm-41.16,96.57a63.26,63.26,0,0,1-25,25.67q-15.19,8.54-34.87,8.94c-.71,0-1.42,0-2.13,0a83.72,83.72,0,0,1-19.9-2.27,69.2,69.2,0,0,1-17.25-6.69,62.79,62.79,0,0,1-25.16-25.67q-9-16.71-9-38.76t9-38.59a62,62,0,0,1,25.16-25.36q16.16-8.82,37.15-8.81t37,8.81a62,62,0,0,1,23.55,22.84c.49.83,1,1.66,1.44,2.52a76.08,76.08,0,0,1,8.74,31.63c.18,2.27.25,4.59.25,7Q711.68,322.71,702.69,339.42Z" transform="translate(0 0.19)"/><path class="cls-2" d="M874.3,300.34l96-109H914L829.33,290V191.33H782.66v219.9h46.67v-98l84.63,98h59Z" transform="translate(0 0.19)"/><path class="cls-2" d="M1126.9,226.94V191H992V411.23h135V375.32h-88.3V317.05h78.31v-35H1038.6V226.94Z" transform="translate(0 0.19)"/><path class="cls-2" d="M1275.86,322.08q26.31-6.6,39.67-24.11a65.29,65.29,0,0,0,3.83-73.39q-9.52-15.29-28.5-24.26t-46-9h-87.32v219.9h46.67V325.55h22l51.31,85.68h54Zm-32.65-29.6h-39V227.9h39q19,0,28.33,8.33c6.2,5.56,9.33,13.4,9.33,23.47,0,10.3-3.13,18.34-9.33,24.1S1255.86,292.48,1243.21,292.48Z" transform="translate(0 0.19)"/><path class="cls-2" d="M1516,381.48q-20.48,12.42-49.48,12.43-25.65,0-46.16-11.33a81,81,0,0,1-32.14-32.46Q1376.47,329,1376.49,301t11.68-49.32a80.78,80.78,0,0,1,32.14-32.6q20.52-11.33,46.16-11.34,29,0,49.48,12.61a76.82,76.82,0,0,1,30.51,35h27.31q-12.64-31.83-40.47-49.31t-66.83-17.49q-32,0-58,14.34a106,106,0,0,0-41,40q-15,25.68-15,58.13t15,57.95a106,106,0,0,0,41,39.87q26,14.32,58,14.33,38.65,0,66.66-17.34T1573.77,347h-27.31A76.35,76.35,0,0,1,1516,381.48Z" transform="translate(0 0.19)"/><path class="cls-2" d="M1730.06,209V190.72H1608.43V411.23h121.63V393h-98.31V309.48h88.32V291.21h-88.32V209Z" transform="translate(0 0.19)"/><path class="cls-2" d="M1787.73,393.28V191H1764.4V411.23h107v-18Z" transform="translate(0 0.19)"/><path class="cls-2" d="M1916.35,393.28V191H1893V411.23h107v-18Z" transform="translate(0 0.19)"/><text class="cls-3" transform="translate(595.37 499.03)">Your Trusted Partner in B2B Tech Exchange</text></svg>