<svg xmlns="http://www.w3.org/2000/svg" version="1.1" xmlns:xlink="http://www.w3.org/1999/xlink" width="512" height="512" x="0" y="0" viewBox="0 0 512 512" style="enable-background:new 0 0 512 512" xml:space="preserve" class=""><g><path d="M142.4 249h95.5c78.7 0 142.4 63.8 142.4 142.4V432c0 33.2-26.9 60.2-60.2 60.2h-260C26.9 492.1 0 465.2 0 432v-40.6C0 312.7 63.8 249 142.4 249z" fill="#2c83ec" opacity="1" data-original="#000000" class=""></path><circle cx="190.2" cy="121.2" r="101.3" fill="#2c83ec" opacity="1" data-original="#000000" class=""></circle><path d="M483.2 168.4h-32.8v-32.8c0-15.9-12.9-28.8-28.8-28.8s-28.8 12.9-28.8 28.8v32.8H360c-15.9 0-28.8 12.9-28.8 28.8S344.1 226 360 226h32.8v32.8c0 15.9 12.9 28.8 28.8 28.8s28.8-12.9 28.8-28.8V226h32.8c15.9 0 28.8-12.9 28.8-28.8s-12.9-28.8-28.8-28.8z" fill="#2c83ec" opacity="1" data-original="#000000" class=""></path></g></svg>