<?xml version="1.0" encoding="UTF-8"?>
<svg id="Layer_2" data-name="Layer 2" xmlns="http://www.w3.org/2000/svg" xmlns:xlink="http://www.w3.org/1999/xlink" viewBox="0 0 149.38 149.46">
  <defs>
    <style>
      .cls-1 {
        fill: url(#linear-gradient);
      }

      .cls-1, .cls-2 {
        isolation: isolate;
        opacity: .5;
      }

      .cls-3 {
        fill: #fff;
      }

      .cls-2 {
        fill: url(#linear-gradient-2);
      }

      .cls-4 {
        fill: #2c83ec;
      }
    </style>
    <linearGradient id="linear-gradient" x1="-399.8" y1="504.24" x2="-535.33" y2="619.9" gradientTransform="translate(564 659.01) scale(1 -1)" gradientUnits="userSpaceOnUse">
      <stop offset="0" stop-color="#fff" stop-opacity="0"/>
      <stop offset="1" stop-color="#000"/>
    </linearGradient>
    <linearGradient id="linear-gradient-2" x1="-352.84" y1="440.15" x2="-562.86" y2="619.39" gradientTransform="translate(564 659.01) scale(1 -1)" gradientUnits="userSpaceOnUse">
      <stop offset="0" stop-color="#fff"/>
      <stop offset="1" stop-color="#000"/>
    </linearGradient>
  </defs>
  <g id="Layer_1-2" data-name="Layer 1">
    <g id="Layer_2-2" data-name="Layer 2">
      <g id="Layer_7" data-name="Layer 7">
        <rect class="cls-4" width="149.29" height="149.29" rx="20.38" ry="20.38"/>
        <path class="cls-1" d="m91.71,22.72c4.99,3.46,2.24,14.27,2.55,21.6,0,1.43,2.65.82,2.96,2.14.36,3.15.36,6.33,0,9.48-5.81,2.34-6.93,9.48-11.62,12.94-3.46,13.15,5.3,13.45,15.08,15.49,11.21.96,19.52,10.84,18.56,22.05,0,.05,0,.11-.01.16h0c-.08.9-.36,1.77-.82,2.55-1.58,2.57-3.89,4.63-6.62,5.91-1.75-9.06-10.52-14.99-19.58-13.23-7.78,1.51-13.43,8.27-13.54,16.19-.17,1.39-.17,2.79,0,4.18h-4.08c-7.04.02-14.07-.63-20.99-1.94h0c-8.71-.29-16.96-3.94-23.03-10.19l1.83,2.45,65.01,36.79h22.93c7.42.72,14.89-.84,21.4-4.48,10.19-7.64,7.24-27,7.24-27v-13.55L91.71,22.72Zm4.08,111.28c-6.35.07-11.97-4.09-13.76-10.19-.16-1.18-.16-2.38,0-3.57-.09-7.82,6.18-14.23,14-14.32,6.96-.08,12.95,4.91,14.12,11.77.07.85.07,1.7,0,2.55-.22,7.74-6.62,13.87-14.37,13.76Z"/>
        <path class="cls-2" d="m101.9,118.72h-4.48v-4.99c0-.51-.41-.92-.92-.92h-1.53c-.51,0-.92.41-.92.92h0v4.99h-4.99c-.51,0-.92.41-.92.92h0v1.43c0,.51.41.92.92.92h4.99v4.99c0,.51.41.92.92.92h1.53c.51,0,.92-.41.92-.92h0v-4.69h4.48c.51,0,.92-.41.92-.92h0v-1.43c.17-.48-.08-1-.56-1.17-.12-.04-.24-.06-.36-.05Z"/>
        <path class="cls-3" d="m119.33,106.9h0c1.16-11.2-6.97-21.21-18.17-22.37-.16-.02-.32-.03-.48-.04-10.19-2.04-18.65-2.45-15.08-15.49,4.79-3.46,5.81-10.19,11.62-12.94.36-3.15.36-6.33,0-9.48,0-1.32-2.65-.71-2.96-2.14,0-7.34,2.45-18.14-2.55-21.6-.76-.49-1.65-.74-2.55-.71h-2.75c-.67.12-1.36.12-2.04,0-2.85-1.73-2.85-5.1-6.11-5.4h-2.55c-4.41,2-9.13,3.24-13.96,3.67h-.61c-2.28.72-4.16,2.34-5.2,4.48-1.37,3.46-1.96,7.19-1.73,10.9v7.95c-2.12,1.29-3.37,3.63-3.26,6.11-.04,1.45.17,2.9.61,4.28.71,2.34,2.96,2.96,4.69,5.2s3.57,6.11,5.5,8.05c.58.7,1.36,1.19,2.24,1.43v8.46c-.63.91-1.39,1.74-2.24,2.45-8.05,6.83-24.46,3.87-29.65,13.86-1.15,3.95-1.86,8.02-2.14,12.13v1.32h0c-.01,1.05.19,2.09.61,3.06,5.79,6.47,13.86,10.45,22.52,11.11h0c6.92,1.3,13.95,1.95,20.99,1.94h4.69c-.17-1.39-.17-2.79,0-4.18-.9-9.2,5.83-17.39,15.03-18.29s17.39,5.83,18.29,15.03h0c2.74-1.28,5.04-3.34,6.62-5.91.45-.78.73-1.65.82-2.55h0l-.2-.31Z"/>
        <path class="cls-3" d="m95.79,105.67c-7.82-.06-14.21,6.24-14.27,14.06,0,.03,0,.07,0,.1-.16,1.18-.16,2.38,0,3.57,1.86,7.6,9.53,12.25,17.13,10.39,6.41-1.57,10.89-7.36,10.8-13.96.07-.85.07-1.7,0-2.55-1.21-6.63-6.92-11.48-13.65-11.62Zm7.44,15.39c.27.43.14,1-.29,1.26-.32.2-.73.18-1.03-.04h-4.48v4.99c0,.51-.41.92-.92.92h-1.53c-.51,0-.92-.41-.92-.92h0v-4.99h-4.99c-.51,0-.92-.41-.92-.92h0v-1.43c0-.51.41-.92.92-.92h4.99v-4.99c0-.51.41-.92.92-.92h1.53c.51,0,.92.41.92.92h0v4.99h4.48c.51,0,.92.41.92.92h0l.41,1.12Z"/>
      </g>
    </g>
  </g>
</svg>