<svg xmlns="http://www.w3.org/2000/svg" xmlns:xlink="http://www.w3.org/1999/xlink" viewBox="0 0 14.66 14.66"><defs><style>.cls-1{isolation:isolate;}.cls-2{fill:#cd4e0e;}.cls-3{opacity:0.5;mix-blend-mode:multiply;fill:url(#linear-gradient);}.cls-4{fill:#fff;}</style><linearGradient id="linear-gradient" x1="15.35" y1="15.69" x2="3.09" y2="0.93" gradientUnits="userSpaceOnUse"><stop offset="0" stop-color="#fff"/><stop offset="1"/></linearGradient></defs><title>Asset 2</title><g class="cls-1"><g id="Layer_2" data-name="Layer 2"><g id="Layer_2-2" data-name="Layer 2"><rect class="cls-2" width="14.65" height="14.65" rx="2" ry="2"/><path class="cls-3" d="M3.88,9.51l0-.71-.05-1.2.06-.94L4,3.21,9.25,2.16l5.38,3.48v6.5A2.48,2.48,0,0,1,14.13,14a2.26,2.26,0,0,1-1.51.63H6.85L4.12,11.3l-.27-1.08Z"/><path class="cls-4" d="M7.26,1.77A5.23,5.23,0,1,0,12.49,7,5.23,5.23,0,0,0,7.26,1.77ZM6.19,9.46a.85.85,0,1,1,0-1.2A.85.85,0,0,1,6.19,9.46Zm1.34,0A2.58,2.58,0,0,0,5,6.76l.07-1.12A3.78,3.78,0,0,1,8.7,9.47Zm2.05.06A4.74,4.74,0,0,0,5,4.69l.1-1.3a6,6,0,0,1,5.71,6.12Z"/></g></g></g></svg>