<?xml version="1.0" encoding="UTF-8"?>
<svg id="Layer_2" data-name="Layer 2" xmlns="http://www.w3.org/2000/svg" xmlns:xlink="http://www.w3.org/1999/xlink" viewBox="0 0 150 150">
  <defs>
    <style>
      .cls-1 {
        fill: url(#linear-gradient);
        isolation: isolate;
        opacity: .5;
      }

      .cls-2 {
        fill: #fff;
      }

      .cls-3 {
        fill: #2c83ec;
      }
    </style>
    <linearGradient id="linear-gradient" x1="-406.83" y1="140.78" x2="-532.35" y2="291.9" gradientTransform="translate(564 301.41) scale(1 -1)" gradientUnits="userSpaceOnUse">
      <stop offset="0" stop-color="#fff" stop-opacity="0"/>
      <stop offset="1" stop-color="#000"/>
    </linearGradient>
  </defs>
  <g id="Layer_1-2" data-name="Layer 1">
    <g id="Layer_2-2" data-name="Layer 2">
      <g id="Layer_2-2" data-name="Layer 2-2">
        <path class="cls-3" d="m20.47,0h109.02c11.31,0,20.47,9.17,20.47,20.48v109.04c0,11.31-9.17,20.48-20.47,20.48H20.47c-11.31,0-20.47-9.17-20.47-20.48V20.48C0,9.17,9.17,0,20.47,0Z"/>
        <path class="cls-1" d="m39.72,97.37v-7.27l-.51-12.29.61-9.62,1.13-35.32,53.74-10.75,55.07,35.63v66.55c.93,6.78-.92,13.65-5.12,19.04-4.17,4.01-9.68,6.31-15.46,6.45h-59.07l-27.95-34.1-2.76-11.06.31-7.27Z"/>
        <path class="cls-2" d="m74.32,18.12c-29.57,0-53.54,23.97-53.54,53.55s23.97,53.55,53.54,53.55,53.54-23.97,53.54-53.55h0c0-29.57-23.97-53.55-53.54-53.55Zm-10.95,78.74c-3.39,3.4-8.9,3.41-12.31.02s-3.41-8.9-.02-12.31,8.9-3.41,12.31-.02c0,0,.01.01.02.02,3.38,3.4,3.38,8.89,0,12.29Zm13.72,0c.68-14.57-10.58-26.94-25.15-27.62-.25-.01-.5-.02-.75-.02l.72-11.47c20.97.83,37.45,18.23,37.16,39.22l-11.98-.1Zm20.99.61c.52-26.53-20.37-48.56-46.88-49.45l1.02-13.31c33.24,1.6,59.16,29.39,58.45,62.66l-12.59.1Z"/>
      </g>
    </g>
  </g>
</svg>