<?xml version="1.0" encoding="UTF-8"?>
<svg id="Layer_2" data-name="Layer 2" xmlns="http://www.w3.org/2000/svg" xmlns:xlink="http://www.w3.org/1999/xlink" viewBox="0 0 149.51 149.82">
  <defs>
    <style>
      .cls-1 {
        fill: url(#linear-gradient);
      }

      .cls-1, .cls-2 {
        isolation: isolate;
        opacity: .5;
      }

      .cls-2 {
        fill: url(#linear-gradient-2);
      }

      .cls-3 {
        fill: #f0efee;
      }

      .cls-4 {
        fill: #2c83ec;
      }
    </style>
    <linearGradient id="linear-gradient" x1="-355.51" y1="458.41" x2="-585.81" y2="675.97" gradientTransform="translate(564 659.37) scale(1 -1)" gradientUnits="userSpaceOnUse">
      <stop offset="0" stop-color="#fff"/>
      <stop offset="1" stop-color="#000"/>
    </linearGradient>
    <linearGradient id="linear-gradient-2" x1="-408.32" y1="508.93" x2="-547.52" y2="640.38" gradientTransform="translate(564 659.37) scale(1 -1)" gradientUnits="userSpaceOnUse">
      <stop offset="0" stop-color="#fff" stop-opacity="0"/>
      <stop offset="1" stop-color="#000"/>
    </linearGradient>
  </defs>
  <g id="Layer_1-2" data-name="Layer 1">
    <g id="Layer_2-2" data-name="Layer 2">
      <g id="Layer_7" data-name="Layer 7">
        <rect class="cls-4" width="149.29" height="149.29" rx="20.38" ry="20.38"/>
        <path class="cls-1" d="m118.31,74.08c0-24.37-19.75-44.12-44.12-44.12-24.37,0-44.12,19.75-44.12,44.12s19.75,44.12,44.12,44.12h0c24.37,0,44.12-19.75,44.12-44.12Zm-12.02-1.53h5.81v2.96h-6.22v-1.53c0-.51.51-.82.41-1.32v-.1Zm-64.3,2.96h-6.42v-2.85h6.42v1.53c0,.51,0,.92.1,1.43l-.1-.1Zm56.35-27l2.14,2.45-4.79,4.79-2.14-2.14,4.79-5.1Zm-2.65,44.33l4.79,4.79-2.14,2.14-4.69-4.79,2.04-2.14Zm-22.42-56.66h2.96v4.59h-2.96v-4.59Zm-22.32,63.59l-2.14-2.14,4.79-4.79,2.14,2.14-4.79,4.79Zm2.65-44.43l-4.48-4.38,1.83-2.45,4.79,4.79-2.14,2.04Zm17.12,18.85c0-2.25,1.82-4.08,4.07-4.08.03,0,.07,0,.1,0h.71l10.19-10.19h1.63v2.24l-9.17,9.17c.78.78,1.22,1.85,1.22,2.96-.03.94-.39,1.85-1.02,2.55l8.76,8.76v1.63h-2.14l-9.07-9.07h-1.22c-2.19-.05-3.97-1.79-4.08-3.97Zm2.65,31.59h2.96v6.32h-3.06l.1-6.32Z"/>
        <path class="cls-2" d="m110.05,37.91h-1.32c20.36,18.94,21.51,50.79,2.57,71.14-16.99,18.26-44.78,21.33-65.34,7.22l50.95,33.42h23.03c3.97,0,15.9,1.43,22.32-5.3,5.63-5.59,8.21-13.57,6.93-21.4v-22.72l-39.13-62.36Z"/>
        <path class="cls-3" d="m108.83,37.5c-9.34-8.9-21.75-13.86-34.65-13.86-2.1-.14-4.21-.14-6.32,0h0c-27.62,3.66-47.04,29.01-43.39,56.62s29.01,47.04,56.62,43.39c27.62-3.66,47.04-29.01,43.39-56.62-1.52-11.48-6.94-22.08-15.35-30.04l-.31.51Zm-34.65,80.71c-24.37,0-44.12-19.75-44.12-44.12,0-24.37,19.75-44.12,44.12-44.12s44.12,19.75,44.12,44.12-19.75,44.12-44.12,44.12h0Z"/>
        <path class="cls-3" d="m35.56,72.66v2.96h6.42v-3.06l-6.42.1Z"/>
        <path class="cls-3" d="m112.09,75.61v-2.96h-6.22v3.06l6.22-.1Z"/>
        <path class="cls-3" d="m76.32,105.77h-3.06v6.32h2.96l.1-6.32Z"/>
        <path class="cls-3" d="m76.32,40.76v-4.59h-3.06v4.59h3.06Z"/>
        <path class="cls-3" d="m100.48,50.95l-2.14-2.14-4.69,4.79,2.14,2.14,4.69-4.79Z"/>
        <path class="cls-3" d="m49.12,97.62l1.83,2.14,4.79-4.79-2.14-2.14-4.48,4.79Z"/>
        <path class="cls-3" d="m49.12,50.95l4.79,4.79,2.14-2.14-5.1-5.1-1.83,2.45Z"/>
        <path class="cls-3" d="m100.48,97.62l-4.79-4.79-2.14,2.14,4.69,4.79,2.24-2.14Z"/>
        <path class="cls-3" d="m76.02,78.06l9.07,9.07h1.53v-1.63l-8.76-8.76c.63-.7.99-1.6,1.02-2.55,0-1.06-.4-2.08-1.12-2.85l9.17-9.17v-1.63h-1.63l-10.19,10.19h-.31c-2.28,0-4.13,1.85-4.13,4.13s1.85,4.13,4.13,4.13l1.22-.92Z"/>
      </g>
    </g>
  </g>
</svg>