<svg xmlns="http://www.w3.org/2000/svg" xmlns:xlink="http://www.w3.org/1999/xlink" width="360" zoomAndPan="magnify" viewBox="0 0 270 128.249994" height="171" preserveAspectRatio="xMidYMid meet" version="1.0"><defs><g/><clipPath id="7920b599b1"><path d="M 0.785156 0 L 269.214844 0 L 269.214844 127.503906 L 0.785156 127.503906 Z M 0.785156 0 " clip-rule="nonzero"/></clipPath><clipPath id="0ad163401c"><path d="M 6.75 0 L 263.25 0 C 266.542969 0 269.214844 2.671875 269.214844 5.964844 L 269.214844 121.574219 C 269.214844 124.867188 266.542969 127.539062 263.25 127.539062 L 6.75 127.539062 C 3.457031 127.539062 0.785156 124.867188 0.785156 121.574219 L 0.785156 5.964844 C 0.785156 2.671875 3.457031 0 6.75 0 Z M 6.75 0 " clip-rule="nonzero"/></clipPath><clipPath id="6587271f68"><path d="M 0.789062 0 L 269.210938 0 L 269.210938 118.421875 L 0.789062 118.421875 Z M 0.789062 0 " clip-rule="nonzero"/></clipPath><clipPath id="742bdd7a91"><path d="M 4.519531 0 L 265.480469 0 C 267.539062 0 269.210938 1.667969 269.210938 3.726562 L 269.210938 114.46875 C 269.210938 116.527344 267.539062 118.195312 265.480469 118.195312 L 4.519531 118.195312 C 2.460938 118.195312 0.789062 116.527344 0.789062 114.46875 L 0.789062 3.726562 C 0.789062 1.667969 2.460938 0 4.519531 0 Z M 4.519531 0 " clip-rule="nonzero"/></clipPath><clipPath id="f5e243a6dc"><path d="M 0.785156 84.445312 L 269.214844 84.445312 L 269.214844 127.503906 L 0.785156 127.503906 Z M 0.785156 84.445312 " clip-rule="nonzero"/></clipPath><clipPath id="8d09077114"><path d="M 0.785156 84.445312 L 269.214844 84.445312 L 269.214844 97.078125 L 0.785156 97.078125 Z M 0.785156 84.445312 " clip-rule="nonzero"/></clipPath><clipPath id="71f8434d1f"><path d="M 13.042969 11.730469 L 105 11.730469 L 105 76 L 13.042969 76 Z M 13.042969 11.730469 " clip-rule="nonzero"/></clipPath><clipPath id="3cafe80b5d"><path d="M 243 35 L 256.867188 35 L 256.867188 62 L 243 62 Z M 243 35 " clip-rule="nonzero"/></clipPath></defs><g clip-path="url(#7920b599b1)"><g clip-path="url(#0ad163401c)"><path fill="#333333" d="M 0.785156 0 L 269.3125 0 L 269.3125 127.539062 L 0.785156 127.539062 Z M 0.785156 0 " fill-opacity="1" fill-rule="nonzero"/></g></g><g clip-path="url(#6587271f68)"><g clip-path="url(#742bdd7a91)"><path stroke-linecap="butt" transform="matrix(0.74564, 0, 0, 0.74564, 0.790331, -0.00000198837)" fill="none" stroke-linejoin="miter" d="M 5.001345 0.00000266667 L 354.984052 0.00000266667 C 357.744895 0.00000266667 359.987098 2.236967 359.987098 4.99781 L 359.987098 153.51755 C 359.987098 156.278393 357.744895 158.515357 354.984052 158.515357 L 5.001345 158.515357 C 2.240502 158.515357 -0.00170095 156.278393 -0.00170095 153.51755 L -0.00170095 4.99781 C -0.00170095 2.236967 2.240502 0.00000266667 5.001345 0.00000266667 Z M 5.001345 0.00000266667 " stroke="#2c83ec" stroke-width="4" stroke-opacity="1" stroke-miterlimit="4"/></g></g><g clip-path="url(#f5e243a6dc)"><path fill="#2c83ec" d="M 0.785156 84.445312 L 269.285156 84.445312 L 269.285156 127.539062 L 0.785156 127.539062 Z M 0.785156 84.445312 " fill-opacity="1" fill-rule="nonzero"/></g><g clip-path="url(#8d09077114)"><path fill="#2c83ec" d="M 0.785156 84.445312 L 269.199219 84.445312 L 269.199219 97.078125 L 0.785156 97.078125 Z M 0.785156 84.445312 " fill-opacity="1" fill-rule="nonzero"/></g><g clip-path="url(#71f8434d1f)"><path fill="#2c83ec" d="M 103.121094 27.453125 C 97.695312 12.339844 73.371094 7.238281 48.796875 16.0625 C 24.226562 24.886719 8.699219 44.292969 14.125 59.402344 C 19.546875 74.511719 43.871094 79.613281 68.445312 70.792969 C 75.179688 68.375 81.234375 65.164062 86.363281 61.460938 C 88.132812 60.191406 89.824219 58.824219 91.4375 57.371094 C 91.351562 57.371094 91.265625 57.371094 91.179688 57.371094 C 90.359375 57.375 89.550781 57.28125 88.75 57.09375 C 87.390625 58.375 85.96875 59.582031 84.484375 60.714844 C 79.707031 64.375 74.03125 67.519531 67.6875 69.792969 C 45.164062 77.890625 22.800781 71.929688 17.828125 58.074219 C 12.851562 44.21875 26.695312 25.175781 49.222656 17.078125 C 71.753906 8.980469 94.441406 14.925781 99.417969 28.785156 C 100.40625 31.539062 100.636719 34.496094 100.199219 37.535156 C 99.894531 39.5625 99.351562 41.523438 98.5625 43.414062 C 98.621094 43.515625 98.683594 43.617188 98.738281 43.722656 C 99.378906 44.929688 99.734375 46.214844 99.804688 47.582031 C 101.21875 45.347656 102.328125 42.96875 103.132812 40.453125 C 104.519531 36 104.597656 31.566406 103.121094 27.453125 Z M 103.121094 27.453125 " fill-opacity="1" fill-rule="nonzero"/></g><path fill="#ffffff" d="M 48.710938 50.425781 C 47.683594 49.171875 46.367188 48.417969 44.769531 48.15625 C 46.230469 47.722656 47.402344 46.980469 48.28125 45.929688 C 49.164062 44.878906 49.605469 43.574219 49.605469 42.007812 C 49.625 40.707031 49.265625 39.515625 48.53125 38.4375 C 47.8125 37.386719 46.757812 36.566406 45.359375 35.976562 C 43.964844 35.390625 42.308594 35.09375 40.382812 35.09375 L 28.675781 35.09375 L 28.675781 61.910156 L 40.910156 61.910156 C 42.832031 61.910156 44.5 61.601562 45.910156 60.988281 C 47.316406 60.371094 48.394531 59.527344 49.140625 58.429688 C 49.882812 57.332031 50.257812 56.078125 50.257812 54.648438 C 50.269531 53.046875 49.753906 51.640625 48.710938 50.425781 Z M 34.367188 39.433594 L 39.566406 39.433594 C 40.921875 39.433594 41.964844 39.730469 42.695312 40.320312 C 43.425781 40.90625 43.792969 41.742188 43.792969 42.816406 C 43.792969 43.894531 43.425781 44.71875 42.695312 45.296875 C 41.964844 45.875 40.921875 46.160156 39.566406 46.160156 L 34.367188 46.160156 Z M 43.328125 56.609375 C 42.554688 57.222656 41.476562 57.53125 40.09375 57.53125 L 34.363281 57.53125 L 34.363281 50.308594 L 39.972656 50.308594 C 41.355469 50.308594 42.453125 50.632812 43.265625 51.28125 C 44.078125 51.933594 44.484375 52.835938 44.484375 53.992188 C 44.484375 55.121094 44.097656 55.996094 43.328125 56.609375 Z M 43.328125 56.609375 " fill-opacity="1" fill-rule="nonzero"/><path fill="#ffffff" d="M 67.8125 51.039062 C 69.953125 50.5 71.566406 49.519531 72.648438 48.097656 C 73.132812 47.460938 73.511719 46.769531 73.789062 46.019531 C 74.0625 45.265625 74.222656 44.492188 74.265625 43.695312 C 74.304688 42.894531 74.230469 42.109375 74.03125 41.335938 C 73.835938 40.558594 73.53125 39.832031 73.117188 39.148438 C 72.34375 37.90625 71.1875 36.917969 69.640625 36.1875 C 68.09375 35.460938 66.222656 35.09375 64.03125 35.089844 L 53.386719 35.089844 L 53.386719 61.910156 L 59.074219 61.910156 L 59.074219 51.460938 L 61.757812 51.460938 L 68.015625 61.910156 L 74.601562 61.910156 Z M 63.828125 47.429688 L 59.074219 47.429688 L 59.074219 39.550781 L 63.828125 39.550781 C 65.375 39.550781 66.527344 39.890625 67.285156 40.566406 C 68.039062 41.246094 68.421875 42.203125 68.421875 43.429688 C 68.421875 44.6875 68.039062 45.667969 67.285156 46.371094 C 66.527344 47.070312 65.375 47.429688 63.828125 47.429688 Z M 63.828125 47.429688 " fill-opacity="1" fill-rule="nonzero"/><path fill="#ffffff" d="M 103.757812 41.375 C 103.558594 41.054688 103.351562 40.746094 103.132812 40.449219 C 102.308594 39.320312 101.332031 38.351562 100.199219 37.53125 C 99.664062 37.140625 99.101562 36.789062 98.515625 36.476562 C 96.304688 35.300781 93.859375 34.710938 91.179688 34.707031 C 88.523438 34.707031 86.085938 35.296875 83.863281 36.476562 C 81.652344 37.628906 79.894531 39.261719 78.582031 41.375 C 77.28125 43.464844 76.628906 45.8125 76.628906 48.425781 C 76.628906 51.066406 77.28125 53.425781 78.582031 55.515625 C 79.890625 57.628906 81.652344 59.261719 83.863281 60.410156 C 84.066406 60.523438 84.277344 60.625 84.484375 60.722656 C 85.09375 61.011719 85.71875 61.257812 86.363281 61.460938 C 87.929688 61.949219 89.535156 62.191406 91.175781 62.179688 C 93.835938 62.179688 96.273438 61.589844 98.496094 60.410156 C 100.703125 59.265625 102.457031 57.632812 103.757812 55.515625 C 105.042969 53.425781 105.6875 51.0625 105.6875 48.425781 C 105.6875 45.8125 105.042969 43.464844 103.757812 41.375 Z M 98.738281 53.152344 C 98.03125 54.496094 97.015625 55.539062 95.691406 56.28125 C 94.453125 56.976562 93.039062 57.339844 91.4375 57.375 C 91.351562 57.375 91.265625 57.375 91.175781 57.375 C 90.355469 57.378906 89.546875 57.285156 88.75 57.097656 C 88.011719 56.917969 87.3125 56.648438 86.648438 56.28125 C 85.3125 55.542969 84.289062 54.5 83.578125 53.148438 C 82.847656 51.792969 82.480469 50.214844 82.480469 48.421875 C 82.480469 46.628906 82.847656 45.0625 83.578125 43.71875 C 84.292969 42.378906 85.3125 41.347656 86.648438 40.625 C 87.960938 39.90625 89.472656 39.550781 91.175781 39.550781 C 92.882812 39.550781 94.386719 39.910156 95.691406 40.625 C 96.902344 41.289062 97.859375 42.21875 98.5625 43.410156 C 98.621094 43.511719 98.683594 43.613281 98.738281 43.71875 C 99.375 44.925781 99.730469 46.210938 99.804688 47.574219 C 99.824219 47.851562 99.832031 48.132812 99.832031 48.429688 C 99.835938 50.21875 99.46875 51.792969 98.738281 53.152344 Z M 98.738281 53.152344 " fill-opacity="1" fill-rule="nonzero"/><path fill="#ffffff" d="M 119.667969 48.386719 L 131.375 35.09375 L 124.507812 35.09375 L 114.183594 47.125 L 114.183594 35.09375 L 108.492188 35.09375 L 108.492188 61.910156 L 114.183594 61.910156 L 114.183594 49.957031 L 124.503906 61.910156 L 131.699219 61.910156 Z M 119.667969 48.386719 " fill-opacity="1" fill-rule="nonzero"/><path fill="#ffffff" d="M 150.472656 39.433594 L 150.472656 35.050781 L 134.019531 35.050781 L 134.019531 61.910156 L 150.484375 61.910156 L 150.484375 57.53125 L 139.714844 57.53125 L 139.714844 50.425781 L 149.265625 50.425781 L 149.265625 46.15625 L 139.703125 46.15625 L 139.703125 39.433594 Z M 150.472656 39.433594 " fill-opacity="1" fill-rule="nonzero"/><path fill="#ffffff" d="M 168.636719 51.039062 C 170.777344 50.5 172.390625 49.519531 173.476562 48.097656 C 173.960938 47.460938 174.339844 46.769531 174.613281 46.015625 C 174.886719 45.265625 175.046875 44.492188 175.089844 43.695312 C 175.128906 42.894531 175.054688 42.109375 174.859375 41.335938 C 174.664062 40.558594 174.359375 39.832031 173.941406 39.148438 C 173.167969 37.90625 172.011719 36.917969 170.46875 36.1875 C 168.925781 35.460938 167.054688 35.09375 164.859375 35.089844 L 154.207031 35.089844 L 154.207031 61.910156 L 159.898438 61.910156 L 159.898438 51.460938 L 162.582031 51.460938 L 168.839844 61.910156 L 175.425781 61.910156 Z M 164.65625 47.429688 L 159.898438 47.429688 L 159.898438 39.550781 L 164.65625 39.550781 C 166.199219 39.550781 167.351562 39.890625 168.113281 40.566406 C 168.867188 41.246094 169.25 42.203125 169.25 43.429688 C 169.25 44.6875 168.867188 45.667969 168.113281 46.371094 C 167.355469 47.070312 166.199219 47.429688 164.65625 47.429688 Z M 164.65625 47.429688 " fill-opacity="1" fill-rule="nonzero"/><path fill="#ffffff" d="M 197.925781 58.28125 C 196.257812 59.292969 194.246094 59.796875 191.890625 59.796875 C 189.804688 59.796875 187.929688 59.335938 186.261719 58.414062 C 184.566406 57.480469 183.257812 56.160156 182.339844 54.457031 C 181.386719 52.742188 180.910156 50.742188 180.910156 48.46875 C 180.910156 46.191406 181.386719 44.1875 182.335938 42.453125 C 183.25 40.742188 184.554688 39.414062 186.253906 38.476562 C 187.921875 37.554688 189.800781 37.09375 191.882812 37.09375 C 194.242188 37.09375 196.253906 37.605469 197.917969 38.632812 C 199.609375 39.660156 200.847656 41.082031 201.636719 42.898438 L 204.96875 42.898438 C 203.941406 40.3125 202.296875 38.308594 200.035156 36.886719 C 197.769531 35.464844 195.054688 34.753906 191.882812 34.753906 C 189.28125 34.753906 186.925781 35.335938 184.808594 36.503906 C 182.6875 37.660156 181.019531 39.285156 179.808594 41.378906 C 178.589844 43.46875 177.980469 45.832031 177.980469 48.46875 C 177.980469 51.109375 178.589844 53.464844 179.808594 55.535156 C 181.023438 57.625 182.691406 59.246094 184.808594 60.398438 C 186.925781 61.5625 189.28125 62.144531 191.882812 62.148438 C 195.027344 62.148438 197.734375 61.441406 200.011719 60.03125 C 202.289062 58.621094 203.941406 56.636719 204.96875 54.078125 L 201.636719 54.078125 C 200.84375 55.871094 199.605469 57.269531 197.925781 58.28125 Z M 197.925781 58.28125 " fill-opacity="1" fill-rule="nonzero"/><path fill="#ffffff" d="M 224.027344 37.246094 L 224.027344 35.019531 L 209.195312 35.019531 L 209.195312 61.910156 L 224.027344 61.910156 L 224.027344 59.6875 L 212.039062 59.6875 L 212.039062 49.5 L 222.8125 49.5 L 222.8125 47.273438 L 212.039062 47.273438 L 212.039062 37.246094 Z M 224.027344 37.246094 " fill-opacity="1" fill-rule="nonzero"/><path fill="#ffffff" d="M 231.0625 59.722656 L 231.0625 35.050781 L 228.21875 35.050781 L 228.21875 61.910156 L 241.265625 61.910156 L 241.265625 59.714844 Z M 231.0625 59.722656 " fill-opacity="1" fill-rule="nonzero"/><g clip-path="url(#3cafe80b5d)"><path fill="#ffffff" d="M 246.746094 59.722656 L 246.746094 35.050781 L 243.898438 35.050781 L 243.898438 61.910156 L 256.949219 61.910156 L 256.949219 59.714844 Z M 246.746094 59.722656 " fill-opacity="1" fill-rule="nonzero"/></g><g fill="#ffffff" fill-opacity="1"><g transform="translate(35.853089, 111.696401)"><g><path d="M 10.65625 -5.109375 L 7.390625 -5.109375 L 7.390625 -1.78125 L 4.359375 -1.78125 L 4.359375 -5.109375 L 1.109375 -5.109375 L 1.109375 -7.96875 L 4.359375 -7.96875 L 4.359375 -11.328125 L 7.390625 -11.328125 L 7.390625 -7.96875 L 10.65625 -7.96875 Z M 10.65625 -5.109375 "/></g></g></g><g fill="#ffffff" fill-opacity="1"><g transform="translate(48.538421, 111.696401)"><g/></g></g><g fill="#ffffff" fill-opacity="1"><g transform="translate(53.440554, 111.696401)"><g><path d="M 9.34375 -2.328125 L 4.4375 -2.328125 L 3.65625 0 L 0.296875 0 L 5.046875 -13.140625 L 8.765625 -13.140625 L 13.515625 0 L 10.125 0 Z M 8.515625 -4.796875 L 6.890625 -9.609375 L 5.28125 -4.796875 Z M 8.515625 -4.796875 "/></g></g></g><g fill="#ffffff" fill-opacity="1"><g transform="translate(68.165228, 111.696401)"><g><path d="M 6.078125 -13.140625 C 7.460938 -13.140625 8.671875 -12.863281 9.703125 -12.3125 C 10.742188 -11.769531 11.546875 -11 12.109375 -10 C 12.679688 -9.007812 12.96875 -7.863281 12.96875 -6.5625 C 12.96875 -5.28125 12.679688 -4.140625 12.109375 -3.140625 C 11.546875 -2.140625 10.742188 -1.363281 9.703125 -0.8125 C 8.660156 -0.269531 7.453125 0 6.078125 0 L 1.15625 0 L 1.15625 -13.140625 Z M 5.875 -2.765625 C 7.082031 -2.765625 8.023438 -3.09375 8.703125 -3.75 C 9.378906 -4.414062 9.71875 -5.351562 9.71875 -6.5625 C 9.71875 -7.78125 9.378906 -8.722656 8.703125 -9.390625 C 8.023438 -10.066406 7.082031 -10.40625 5.875 -10.40625 L 4.359375 -10.40625 L 4.359375 -2.765625 Z M 5.875 -2.765625 "/></g></g></g><g fill="#ffffff" fill-opacity="1"><g transform="translate(82.702813, 111.696401)"><g><path d="M 6.078125 -13.140625 C 7.460938 -13.140625 8.671875 -12.863281 9.703125 -12.3125 C 10.742188 -11.769531 11.546875 -11 12.109375 -10 C 12.679688 -9.007812 12.96875 -7.863281 12.96875 -6.5625 C 12.96875 -5.28125 12.679688 -4.140625 12.109375 -3.140625 C 11.546875 -2.140625 10.742188 -1.363281 9.703125 -0.8125 C 8.660156 -0.269531 7.453125 0 6.078125 0 L 1.15625 0 L 1.15625 -13.140625 Z M 5.875 -2.765625 C 7.082031 -2.765625 8.023438 -3.09375 8.703125 -3.75 C 9.378906 -4.414062 9.71875 -5.351562 9.71875 -6.5625 C 9.71875 -7.78125 9.378906 -8.722656 8.703125 -9.390625 C 8.023438 -10.066406 7.082031 -10.40625 5.875 -10.40625 L 4.359375 -10.40625 L 4.359375 -2.765625 Z M 5.875 -2.765625 "/></g></g></g><g fill="#ffffff" fill-opacity="1"><g transform="translate(97.240399, 111.696401)"><g/></g></g><g fill="#ffffff" fill-opacity="1"><g transform="translate(102.142533, 111.696401)"><g><path d="M 16.046875 -13.140625 L 16.046875 0 L 12.84375 0 L 12.84375 -7.875 L 9.90625 0 L 7.3125 0 L 4.359375 -7.90625 L 4.359375 0 L 1.15625 0 L 1.15625 -13.140625 L 4.9375 -13.140625 L 8.625 -4.046875 L 12.28125 -13.140625 Z M 16.046875 -13.140625 "/></g></g></g><g fill="#ffffff" fill-opacity="1"><g transform="translate(120.253648, 111.696401)"><g><path d="M 12.421875 -13.140625 L 7.875 -4.34375 L 7.875 0 L 4.671875 0 L 4.671875 -4.34375 L 0.125 -13.140625 L 3.765625 -13.140625 L 6.3125 -7.640625 L 8.828125 -13.140625 Z M 12.421875 -13.140625 "/></g></g></g><g fill="#ffffff" fill-opacity="1"><g transform="translate(133.743494, 111.696401)"><g/></g></g><g fill="#ffffff" fill-opacity="1"><g transform="translate(138.645628, 111.696401)"><g><path d="M 13.5 -13.140625 L 8.828125 0 L 4.828125 0 L 0.171875 -13.140625 L 3.578125 -13.140625 L 6.828125 -3.21875 L 10.109375 -13.140625 Z M 13.5 -13.140625 "/></g></g></g><g fill="#ffffff" fill-opacity="1"><g transform="translate(153.239338, 111.696401)"><g><path d="M 4.359375 -10.578125 L 4.359375 -7.921875 L 8.640625 -7.921875 L 8.640625 -5.453125 L 4.359375 -5.453125 L 4.359375 -2.5625 L 9.203125 -2.5625 L 9.203125 0 L 1.15625 0 L 1.15625 -13.140625 L 9.203125 -13.140625 L 9.203125 -10.578125 Z M 4.359375 -10.578125 "/></g></g></g><g fill="#ffffff" fill-opacity="1"><g transform="translate(164.29693, 111.696401)"><g><path d="M 12.921875 0 L 9.71875 0 L 4.359375 -8.109375 L 4.359375 0 L 1.15625 0 L 1.15625 -13.140625 L 4.359375 -13.140625 L 9.71875 -5 L 9.71875 -13.140625 L 12.921875 -13.140625 Z M 12.921875 0 "/></g></g></g><g fill="#ffffff" fill-opacity="1"><g transform="translate(179.302254, 111.696401)"><g><path d="M 6.078125 -13.140625 C 7.460938 -13.140625 8.671875 -12.863281 9.703125 -12.3125 C 10.742188 -11.769531 11.546875 -11 12.109375 -10 C 12.679688 -9.007812 12.96875 -7.863281 12.96875 -6.5625 C 12.96875 -5.28125 12.679688 -4.140625 12.109375 -3.140625 C 11.546875 -2.140625 10.742188 -1.363281 9.703125 -0.8125 C 8.660156 -0.269531 7.453125 0 6.078125 0 L 1.15625 0 L 1.15625 -13.140625 Z M 5.875 -2.765625 C 7.082031 -2.765625 8.023438 -3.09375 8.703125 -3.75 C 9.378906 -4.414062 9.71875 -5.351562 9.71875 -6.5625 C 9.71875 -7.78125 9.378906 -8.722656 8.703125 -9.390625 C 8.023438 -10.066406 7.082031 -10.40625 5.875 -10.40625 L 4.359375 -10.40625 L 4.359375 -2.765625 Z M 5.875 -2.765625 "/></g></g></g><g fill="#ffffff" fill-opacity="1"><g transform="translate(193.839839, 111.696401)"><g><path d="M 7.375 0.125 C 6.132812 0.125 5 -0.160156 3.96875 -0.734375 C 2.945312 -1.304688 2.132812 -2.101562 1.53125 -3.125 C 0.925781 -4.15625 0.625 -5.316406 0.625 -6.609375 C 0.625 -7.890625 0.925781 -9.039062 1.53125 -10.0625 C 2.132812 -11.09375 2.945312 -11.894531 3.96875 -12.46875 C 5 -13.039062 6.132812 -13.328125 7.375 -13.328125 C 8.613281 -13.328125 9.742188 -13.039062 10.765625 -12.46875 C 11.796875 -11.894531 12.609375 -11.09375 13.203125 -10.0625 C 13.796875 -9.039062 14.09375 -7.890625 14.09375 -6.609375 C 14.09375 -5.316406 13.789062 -4.15625 13.1875 -3.125 C 12.59375 -2.101562 11.785156 -1.304688 10.765625 -0.734375 C 9.742188 -0.160156 8.613281 0.125 7.375 0.125 Z M 7.375 -2.796875 C 8.425781 -2.796875 9.265625 -3.144531 9.890625 -3.84375 C 10.523438 -4.539062 10.84375 -5.460938 10.84375 -6.609375 C 10.84375 -7.765625 10.523438 -8.6875 9.890625 -9.375 C 9.265625 -10.070312 8.425781 -10.421875 7.375 -10.421875 C 6.3125 -10.421875 5.460938 -10.078125 4.828125 -9.390625 C 4.203125 -8.710938 3.890625 -7.785156 3.890625 -6.609375 C 3.890625 -5.441406 4.203125 -4.515625 4.828125 -3.828125 C 5.460938 -3.140625 6.3125 -2.796875 7.375 -2.796875 Z M 7.375 -2.796875 "/></g></g></g><g fill="#ffffff" fill-opacity="1"><g transform="translate(209.481288, 111.696401)"><g><path d="M 7.859375 0 L 5.125 -4.953125 L 4.359375 -4.953125 L 4.359375 0 L 1.15625 0 L 1.15625 -13.140625 L 6.53125 -13.140625 C 7.570312 -13.140625 8.457031 -12.957031 9.1875 -12.59375 C 9.914062 -12.238281 10.457031 -11.742188 10.8125 -11.109375 C 11.175781 -10.484375 11.359375 -9.78125 11.359375 -9 C 11.359375 -8.125 11.113281 -7.34375 10.625 -6.65625 C 10.132812 -5.976562 9.40625 -5.492188 8.4375 -5.203125 L 11.46875 0 Z M 4.359375 -7.21875 L 6.34375 -7.21875 C 6.925781 -7.21875 7.363281 -7.363281 7.65625 -7.65625 C 7.957031 -7.945312 8.109375 -8.351562 8.109375 -8.875 C 8.109375 -9.375 7.957031 -9.765625 7.65625 -10.046875 C 7.363281 -10.335938 6.925781 -10.484375 6.34375 -10.484375 L 4.359375 -10.484375 Z M 4.359375 -7.21875 "/></g></g></g><g fill="#ffffff" fill-opacity="1"><g transform="translate(222.615646, 111.696401)"><g><path d="M 5.921875 0.125 C 4.953125 0.125 4.085938 -0.03125 3.328125 -0.34375 C 2.566406 -0.65625 1.957031 -1.113281 1.5 -1.71875 C 1.050781 -2.332031 0.8125 -3.070312 0.78125 -3.9375 L 4.1875 -3.9375 C 4.238281 -3.445312 4.40625 -3.070312 4.6875 -2.8125 C 4.976562 -2.5625 5.359375 -2.4375 5.828125 -2.4375 C 6.296875 -2.4375 6.664062 -2.546875 6.9375 -2.765625 C 7.21875 -2.984375 7.359375 -3.285156 7.359375 -3.671875 C 7.359375 -3.992188 7.25 -4.257812 7.03125 -4.46875 C 6.8125 -4.6875 6.539062 -4.863281 6.21875 -5 C 5.90625 -5.132812 5.453125 -5.289062 4.859375 -5.46875 C 4.015625 -5.726562 3.320312 -5.988281 2.78125 -6.25 C 2.25 -6.507812 1.789062 -6.894531 1.40625 -7.40625 C 1.019531 -7.925781 0.828125 -8.597656 0.828125 -9.421875 C 0.828125 -10.640625 1.269531 -11.59375 2.15625 -12.28125 C 3.039062 -12.976562 4.191406 -13.328125 5.609375 -13.328125 C 7.054688 -13.328125 8.222656 -12.976562 9.109375 -12.28125 C 9.992188 -11.59375 10.46875 -10.628906 10.53125 -9.390625 L 7.078125 -9.390625 C 7.046875 -9.816406 6.882812 -10.148438 6.59375 -10.390625 C 6.3125 -10.640625 5.945312 -10.765625 5.5 -10.765625 C 5.113281 -10.765625 4.800781 -10.660156 4.5625 -10.453125 C 4.332031 -10.242188 4.21875 -9.945312 4.21875 -9.5625 C 4.21875 -9.132812 4.414062 -8.800781 4.8125 -8.5625 C 5.207031 -8.332031 5.832031 -8.082031 6.6875 -7.8125 C 7.53125 -7.519531 8.21875 -7.242188 8.75 -6.984375 C 9.28125 -6.722656 9.738281 -6.34375 10.125 -5.84375 C 10.507812 -5.34375 10.703125 -4.695312 10.703125 -3.90625 C 10.703125 -3.164062 10.507812 -2.488281 10.125 -1.875 C 9.75 -1.257812 9.195312 -0.769531 8.46875 -0.40625 C 7.75 -0.0507812 6.898438 0.125 5.921875 0.125 Z M 5.921875 0.125 "/></g></g></g></svg>