<svg xmlns="http://www.w3.org/2000/svg" xmlns:xlink="http://www.w3.org/1999/xlink" width="360" zoomAndPan="magnify" viewBox="0 0 270 128.249994" height="171" preserveAspectRatio="xMidYMid meet" version="1.0"><defs><g/><clipPath id="b97a7b8754"><path d="M 0.785156 0 L 269.214844 0 L 269.214844 127.503906 L 0.785156 127.503906 Z M 0.785156 0 " clip-rule="nonzero"/></clipPath><clipPath id="3b1bbd4074"><path d="M 6.75 0 L 263.175781 0 C 266.472656 0 269.140625 2.671875 269.140625 5.964844 L 269.140625 121.539062 C 269.140625 124.832031 266.472656 127.503906 263.175781 127.503906 L 6.75 127.503906 C 3.457031 127.503906 0.785156 124.832031 0.785156 121.539062 L 0.785156 5.964844 C 0.785156 2.671875 3.457031 0 6.75 0 Z M 6.75 0 " clip-rule="nonzero"/></clipPath><clipPath id="7ae7ea92ca"><path d="M 0.785156 0 L 269.128906 0 L 269.128906 117.8125 L 0.785156 117.8125 Z M 0.785156 0 " clip-rule="nonzero"/></clipPath><clipPath id="e19db766ad"><path d="M 4.515625 0 L 265.402344 0 C 266.390625 0 267.339844 0.394531 268.039062 1.09375 C 268.738281 1.792969 269.128906 2.738281 269.128906 3.726562 L 269.128906 114.433594 C 269.128906 115.421875 268.738281 116.371094 268.039062 117.070312 C 267.339844 117.769531 266.390625 118.160156 265.402344 118.160156 L 4.515625 118.160156 C 3.527344 118.160156 2.582031 117.769531 1.882812 117.070312 C 1.183594 116.371094 0.789062 115.421875 0.789062 114.433594 L 0.789062 3.726562 C 0.789062 2.738281 1.183594 1.792969 1.882812 1.09375 C 2.582031 0.394531 3.527344 0 4.515625 0 Z M 4.515625 0 " clip-rule="nonzero"/></clipPath><clipPath id="f9de14e7a3"><path d="M 0.785156 84.421875 L 269.140625 84.421875 L 269.140625 127.503906 L 0.785156 127.503906 Z M 0.785156 84.421875 " clip-rule="nonzero"/></clipPath><clipPath id="8b4b3230b7"><path d="M 0.785156 84.421875 L 269.140625 84.421875 L 269.140625 97.050781 L 0.785156 97.050781 Z M 0.785156 84.421875 " clip-rule="nonzero"/></clipPath><clipPath id="2f18aa8b90"><path d="M 13.039062 11.726562 L 105 11.726562 L 105 76 L 13.039062 76 Z M 13.039062 11.726562 " clip-rule="nonzero"/></clipPath><clipPath id="d71174e6a7"><path d="M 243 35 L 256.863281 35 L 256.863281 63 L 243 63 Z M 243 35 " clip-rule="nonzero"/></clipPath></defs><g clip-path="url(#b97a7b8754)"><g clip-path="url(#3b1bbd4074)"><path fill="#ffffff" d="M 0.785156 0 L 269.242188 0 L 269.242188 127.503906 L 0.785156 127.503906 Z M 0.785156 0 " fill-opacity="1" fill-rule="nonzero"/></g></g><g clip-path="url(#7ae7ea92ca)"><g clip-path="url(#e19db766ad)"><path stroke-linecap="butt" transform="matrix(0.745639, 0, 0, 0.745639, 0.789241, -0.00000198837)" fill="none" stroke-linejoin="miter" d="M 4.997568 0.00000266667 L 354.880761 0.00000266667 C 356.206175 0.00000266667 357.479201 0.529121 358.416945 1.466864 C 359.354689 2.404608 359.878568 3.672396 359.878568 4.99781 L 359.878568 153.47041 C 359.878568 154.795825 359.354689 156.068851 358.416945 157.006595 C 357.479201 157.944339 356.206175 158.468218 354.880761 158.468218 L 4.997568 158.468218 C 3.672154 158.468218 2.404366 157.944339 1.466622 157.006595 C 0.528878 156.068851 -0.000239484 154.795825 -0.000239484 153.47041 L -0.000239484 4.99781 C -0.000239484 3.672396 0.528878 2.404608 1.466622 1.466864 C 2.404366 0.529121 3.672154 0.00000266667 4.997568 0.00000266667 Z M 4.997568 0.00000266667 " stroke="#2c83ec" stroke-width="4" stroke-opacity="1" stroke-miterlimit="4"/></g></g><g clip-path="url(#f9de14e7a3)"><path fill="#2c83ec" d="M 0.785156 84.421875 L 269.214844 84.421875 L 269.214844 127.503906 L 0.785156 127.503906 Z M 0.785156 84.421875 " fill-opacity="1" fill-rule="nonzero"/></g><g clip-path="url(#8b4b3230b7)"><path fill="#2c83ec" d="M 0.785156 84.421875 L 269.125 84.421875 L 269.125 97.050781 L 0.785156 97.050781 Z M 0.785156 84.421875 " fill-opacity="1" fill-rule="nonzero"/></g><g clip-path="url(#2f18aa8b90)"><path fill="#2c83ec" d="M 103.085938 27.480469 C 97.660156 12.335938 73.347656 7.226562 48.785156 16.066406 C 24.21875 24.90625 8.699219 44.351562 14.121094 59.492188 C 19.542969 74.632812 43.859375 79.746094 68.421875 70.90625 C 75.15625 68.484375 81.210938 65.265625 86.335938 61.554688 C 88.101562 60.28125 89.792969 58.917969 91.410156 57.457031 C 91.324219 57.457031 91.234375 57.457031 91.148438 57.457031 C 90.328125 57.460938 89.519531 57.371094 88.722656 57.179688 C 87.363281 58.464844 85.941406 59.671875 84.457031 60.808594 C 79.683594 64.472656 74.007812 67.625 67.667969 69.90625 C 45.148438 78.019531 22.792969 72.046875 17.820312 58.160156 C 12.851562 44.277344 26.6875 25.195312 49.210938 17.082031 C 71.730469 8.96875 94.414062 14.925781 99.386719 28.8125 C 100.375 31.570312 100.605469 34.539062 100.164062 37.582031 C 99.863281 39.613281 99.316406 41.578125 98.53125 43.472656 C 98.589844 43.574219 98.652344 43.675781 98.707031 43.78125 C 99.34375 44.992188 99.699219 46.28125 99.773438 47.648438 C 101.183594 45.410156 102.292969 43.027344 103.097656 40.503906 C 104.488281 36.042969 104.5625 31.601562 103.085938 27.480469 Z M 103.085938 27.480469 " fill-opacity="1" fill-rule="nonzero"/></g><path fill="#333333" d="M 48.695312 50.496094 C 47.667969 49.242188 46.351562 48.484375 44.753906 48.226562 C 46.21875 47.789062 47.386719 47.046875 48.269531 45.992188 C 49.148438 44.941406 49.589844 43.632812 49.589844 42.066406 C 49.609375 40.757812 49.25 39.566406 48.515625 38.488281 C 47.796875 37.433594 46.742188 36.613281 45.347656 36.023438 C 43.953125 35.433594 42.292969 35.136719 40.371094 35.132812 L 28.667969 35.132812 L 28.667969 62.007812 L 40.894531 62.007812 C 42.820312 62.007812 44.484375 61.699219 45.894531 61.082031 C 47.304688 60.464844 48.382812 59.617188 49.125 58.515625 C 49.867188 57.417969 50.242188 56.164062 50.242188 54.730469 C 50.253906 53.125 49.738281 51.714844 48.695312 50.496094 Z M 34.355469 39.484375 L 39.554688 39.484375 C 40.910156 39.484375 41.953125 39.78125 42.683594 40.375 C 43.414062 40.960938 43.777344 41.796875 43.777344 42.875 C 43.777344 43.953125 43.414062 44.777344 42.683594 45.359375 C 41.949219 45.9375 40.910156 46.222656 39.554688 46.222656 L 34.355469 46.222656 Z M 43.3125 56.691406 C 42.542969 57.3125 41.464844 57.621094 40.082031 57.617188 L 34.351562 57.617188 L 34.351562 50.378906 L 39.960938 50.378906 C 41.34375 50.378906 42.441406 50.707031 43.253906 51.359375 C 44.066406 52.007812 44.472656 52.914062 44.472656 54.070312 C 44.472656 55.207031 44.085938 56.078125 43.3125 56.691406 Z M 43.3125 56.691406 " fill-opacity="1" fill-rule="nonzero"/><path fill="#333333" d="M 67.789062 51.113281 C 69.929688 50.574219 71.542969 49.59375 72.625 48.164062 C 73.109375 47.527344 73.488281 46.832031 73.765625 46.082031 C 74.039062 45.328125 74.199219 44.554688 74.242188 43.753906 C 74.28125 42.953125 74.203125 42.164062 74.007812 41.390625 C 73.8125 40.613281 73.507812 39.882812 73.09375 39.199219 C 72.324219 37.953125 71.164062 36.964844 69.617188 36.234375 C 68.074219 35.503906 66.203125 35.136719 64.011719 35.132812 L 53.367188 35.132812 L 53.367188 62.003906 L 59.054688 62.003906 L 59.054688 51.535156 L 61.738281 51.535156 L 67.992188 62.007812 L 74.578125 62.007812 Z M 63.808594 47.496094 L 59.054688 47.496094 L 59.054688 39.601562 L 63.808594 39.601562 C 65.351562 39.601562 66.503906 39.941406 67.261719 40.621094 C 68.019531 41.300781 68.402344 42.257812 68.402344 43.488281 C 68.402344 44.746094 68.019531 45.730469 67.261719 46.433594 C 66.507812 47.136719 65.355469 47.496094 63.808594 47.496094 Z M 63.808594 47.496094 " fill-opacity="1" fill-rule="nonzero"/><path fill="#333333" d="M 103.722656 41.429688 C 103.527344 41.109375 103.320312 40.800781 103.097656 40.5 C 102.273438 39.371094 101.296875 38.398438 100.164062 37.578125 C 99.628906 37.1875 99.070312 36.835938 98.484375 36.523438 C 96.273438 35.339844 93.828125 34.75 91.148438 34.75 C 88.496094 34.75 86.058594 35.339844 83.835938 36.523438 C 81.625 37.675781 79.867188 39.308594 78.554688 41.429688 C 77.253906 43.523438 76.605469 45.878906 76.605469 48.496094 C 76.605469 51.140625 77.253906 53.507812 78.554688 55.597656 C 79.867188 57.71875 81.625 59.355469 83.835938 60.503906 C 84.039062 60.617188 84.25 60.71875 84.457031 60.816406 C 85.066406 61.105469 85.691406 61.351562 86.335938 61.554688 C 87.902344 62.046875 89.507812 62.289062 91.148438 62.277344 C 93.804688 62.277344 96.242188 61.6875 98.460938 60.503906 C 100.667969 59.355469 102.421875 57.71875 103.722656 55.597656 C 105.011719 53.507812 105.652344 51.136719 105.652344 48.496094 C 105.652344 45.878906 105.011719 43.523438 103.722656 41.429688 Z M 98.707031 53.230469 C 98 54.578125 96.984375 55.621094 95.660156 56.367188 C 94.425781 57.0625 93.007812 57.429688 91.40625 57.460938 C 91.320312 57.460938 91.234375 57.460938 91.148438 57.460938 C 90.328125 57.464844 89.519531 57.375 88.722656 57.183594 C 87.984375 57.003906 87.285156 56.734375 86.617188 56.367188 C 85.285156 55.625 84.261719 54.582031 83.550781 53.230469 C 82.820312 51.867188 82.453125 50.289062 82.453125 48.492188 C 82.453125 46.695312 82.820312 45.125 83.550781 43.777344 C 84.265625 42.433594 85.285156 41.402344 86.617188 40.675781 C 87.933594 39.957031 89.441406 39.601562 91.148438 39.601562 C 92.855469 39.601562 94.359375 39.960938 95.660156 40.675781 C 96.871094 41.34375 97.828125 42.273438 98.53125 43.46875 C 98.589844 43.570312 98.652344 43.671875 98.707031 43.777344 C 99.34375 44.984375 99.699219 46.273438 99.769531 47.640625 C 99.792969 47.917969 99.800781 48.203125 99.800781 48.496094 C 99.800781 50.292969 99.4375 51.871094 98.707031 53.230469 Z M 98.707031 53.230469 " fill-opacity="1" fill-rule="nonzero"/><path fill="#333333" d="M 119.628906 48.457031 L 131.332031 35.136719 L 124.46875 35.136719 L 114.144531 47.191406 L 114.144531 35.132812 L 108.457031 35.132812 L 108.457031 62.007812 L 114.144531 62.007812 L 114.144531 50.03125 L 124.460938 62.007812 L 131.65625 62.007812 Z M 119.628906 48.457031 " fill-opacity="1" fill-rule="nonzero"/><path fill="#333333" d="M 150.421875 39.484375 L 150.421875 35.09375 L 133.976562 35.09375 L 133.976562 62.007812 L 150.433594 62.007812 L 150.433594 57.617188 L 139.671875 57.617188 L 139.671875 50.496094 L 149.21875 50.496094 L 149.21875 46.21875 L 139.65625 46.21875 L 139.65625 39.484375 Z M 150.421875 39.484375 " fill-opacity="1" fill-rule="nonzero"/><path fill="#333333" d="M 168.582031 51.113281 C 170.722656 50.574219 172.332031 49.59375 173.417969 48.164062 C 173.902344 47.527344 174.28125 46.832031 174.554688 46.082031 C 174.832031 45.328125 174.988281 44.554688 175.03125 43.753906 C 175.074219 42.953125 174.996094 42.164062 174.800781 41.390625 C 174.605469 40.613281 174.300781 39.882812 173.886719 39.199219 C 173.113281 37.953125 171.953125 36.964844 170.410156 36.234375 C 168.867188 35.503906 167 35.136719 164.804688 35.132812 L 154.160156 35.132812 L 154.160156 62.003906 L 159.847656 62.003906 L 159.847656 51.535156 L 162.53125 51.535156 L 168.785156 62.007812 L 175.367188 62.007812 Z M 164.601562 47.496094 L 159.847656 47.496094 L 159.847656 39.601562 L 164.601562 39.601562 C 166.148438 39.601562 167.296875 39.941406 168.054688 40.621094 C 168.8125 41.300781 169.195312 42.257812 169.195312 43.488281 C 169.195312 44.746094 168.8125 45.730469 168.054688 46.433594 C 167.300781 47.136719 166.144531 47.496094 164.601562 47.496094 Z M 164.601562 47.496094 " fill-opacity="1" fill-rule="nonzero"/><path fill="#333333" d="M 197.859375 58.371094 C 196.195312 59.382812 194.183594 59.890625 191.828125 59.890625 C 189.742188 59.890625 187.867188 59.429688 186.199219 58.503906 C 184.503906 57.566406 183.199219 56.246094 182.28125 54.539062 C 181.324219 52.816406 180.847656 50.816406 180.851562 48.535156 C 180.851562 46.253906 181.328125 44.246094 182.273438 42.507812 C 183.191406 40.792969 184.496094 39.464844 186.191406 38.527344 C 187.859375 37.601562 189.738281 37.140625 191.820312 37.140625 C 194.175781 37.140625 196.1875 37.652344 197.851562 38.679688 C 199.542969 39.710938 200.785156 41.136719 201.574219 42.957031 L 204.902344 42.957031 C 203.875 40.363281 202.230469 38.355469 199.96875 36.933594 C 197.707031 35.507812 194.992188 34.796875 191.820312 34.792969 C 189.21875 34.792969 186.863281 35.378906 184.75 36.546875 C 182.628906 37.707031 180.960938 39.335938 179.75 41.433594 C 178.53125 43.527344 177.921875 45.894531 177.921875 48.539062 C 177.921875 51.183594 178.53125 53.542969 179.75 55.621094 C 180.964844 57.710938 182.628906 59.335938 184.75 60.492188 C 186.863281 61.660156 189.21875 62.242188 191.820312 62.242188 C 194.960938 62.242188 197.671875 61.535156 199.945312 60.125 C 202.222656 58.710938 203.875 56.722656 204.902344 54.15625 L 201.570312 54.15625 C 200.777344 55.953125 199.539062 57.359375 197.859375 58.371094 Z M 197.859375 58.371094 " fill-opacity="1" fill-rule="nonzero"/><path fill="#333333" d="M 223.957031 37.292969 L 223.957031 35.058594 L 209.128906 35.058594 L 209.128906 62.007812 L 223.957031 62.007812 L 223.957031 59.777344 L 211.96875 59.777344 L 211.96875 49.574219 L 222.738281 49.574219 L 222.738281 47.339844 L 211.96875 47.339844 L 211.96875 37.292969 Z M 223.957031 37.292969 " fill-opacity="1" fill-rule="nonzero"/><path fill="#333333" d="M 230.984375 59.8125 L 230.984375 35.09375 L 228.140625 35.09375 L 228.140625 62.007812 L 241.1875 62.007812 L 241.1875 59.804688 Z M 230.984375 59.8125 " fill-opacity="1" fill-rule="nonzero"/><g clip-path="url(#d71174e6a7)"><path fill="#333333" d="M 246.667969 59.8125 L 246.667969 35.09375 L 243.820312 35.09375 L 243.820312 62.007812 L 256.863281 62.007812 L 256.863281 59.804688 Z M 246.667969 59.8125 " fill-opacity="1" fill-rule="nonzero"/></g><g fill="#ffffff" fill-opacity="1"><g transform="translate(35.843582, 111.666125)"><g><path d="M 10.640625 -5.109375 L 7.390625 -5.109375 L 7.390625 -1.78125 L 4.359375 -1.78125 L 4.359375 -5.109375 L 1.109375 -5.109375 L 1.109375 -7.96875 L 4.359375 -7.96875 L 4.359375 -11.3125 L 7.390625 -11.3125 L 7.390625 -7.96875 L 10.640625 -7.96875 Z M 10.640625 -5.109375 "/></g></g></g><g fill="#ffffff" fill-opacity="1"><g transform="translate(48.525475, 111.666125)"><g/></g></g><g fill="#ffffff" fill-opacity="1"><g transform="translate(53.426279, 111.666125)"><g><path d="M 9.328125 -2.3125 L 4.4375 -2.3125 L 3.640625 0 L 0.296875 0 L 5.046875 -13.125 L 8.75 -13.125 L 13.5 0 L 10.125 0 Z M 8.515625 -4.78125 L 6.875 -9.59375 L 5.28125 -4.78125 Z M 8.515625 -4.78125 "/></g></g></g><g fill="#ffffff" fill-opacity="1"><g transform="translate(68.146962, 111.666125)"><g><path d="M 6.078125 -13.125 C 7.460938 -13.125 8.671875 -12.847656 9.703125 -12.296875 C 10.742188 -11.753906 11.546875 -10.988281 12.109375 -10 C 12.679688 -9.007812 12.96875 -7.863281 12.96875 -6.5625 C 12.96875 -5.28125 12.679688 -4.140625 12.109375 -3.140625 C 11.546875 -2.140625 10.742188 -1.363281 9.703125 -0.8125 C 8.660156 -0.269531 7.453125 0 6.078125 0 L 1.15625 0 L 1.15625 -13.125 Z M 5.875 -2.765625 C 7.082031 -2.765625 8.019531 -3.09375 8.6875 -3.75 C 9.363281 -4.414062 9.703125 -5.351562 9.703125 -6.5625 C 9.703125 -7.769531 9.363281 -8.710938 8.6875 -9.390625 C 8.019531 -10.066406 7.082031 -10.40625 5.875 -10.40625 L 4.359375 -10.40625 L 4.359375 -2.765625 Z M 5.875 -2.765625 "/></g></g></g><g fill="#ffffff" fill-opacity="1"><g transform="translate(82.680607, 111.666125)"><g><path d="M 6.078125 -13.125 C 7.460938 -13.125 8.671875 -12.847656 9.703125 -12.296875 C 10.742188 -11.753906 11.546875 -10.988281 12.109375 -10 C 12.679688 -9.007812 12.96875 -7.863281 12.96875 -6.5625 C 12.96875 -5.28125 12.679688 -4.140625 12.109375 -3.140625 C 11.546875 -2.140625 10.742188 -1.363281 9.703125 -0.8125 C 8.660156 -0.269531 7.453125 0 6.078125 0 L 1.15625 0 L 1.15625 -13.125 Z M 5.875 -2.765625 C 7.082031 -2.765625 8.019531 -3.09375 8.6875 -3.75 C 9.363281 -4.414062 9.703125 -5.351562 9.703125 -6.5625 C 9.703125 -7.769531 9.363281 -8.710938 8.6875 -9.390625 C 8.019531 -10.066406 7.082031 -10.40625 5.875 -10.40625 L 4.359375 -10.40625 L 4.359375 -2.765625 Z M 5.875 -2.765625 "/></g></g></g><g fill="#ffffff" fill-opacity="1"><g transform="translate(97.214251, 111.666125)"><g/></g></g><g fill="#ffffff" fill-opacity="1"><g transform="translate(102.115056, 111.666125)"><g><path d="M 16.03125 -13.125 L 16.03125 0 L 12.828125 0 L 12.828125 -7.875 L 9.890625 0 L 7.3125 0 L 4.359375 -7.890625 L 4.359375 0 L 1.15625 0 L 1.15625 -13.125 L 4.9375 -13.125 L 8.625 -4.046875 L 12.265625 -13.125 Z M 16.03125 -13.125 "/></g></g></g><g fill="#ffffff" fill-opacity="1"><g transform="translate(120.221262, 111.666125)"><g><path d="M 12.421875 -13.125 L 7.875 -4.34375 L 7.875 0 L 4.671875 0 L 4.671875 -4.34375 L 0.125 -13.125 L 3.765625 -13.125 L 6.296875 -7.625 L 8.828125 -13.125 Z M 12.421875 -13.125 "/></g></g></g><g fill="#ffffff" fill-opacity="1"><g transform="translate(133.707451, 111.666125)"><g/></g></g><g fill="#ffffff" fill-opacity="1"><g transform="translate(138.608256, 111.666125)"><g><path d="M 13.484375 -13.125 L 8.828125 0 L 4.828125 0 L 0.171875 -13.125 L 3.578125 -13.125 L 6.828125 -3.21875 L 10.09375 -13.125 Z M 13.484375 -13.125 "/></g></g></g><g fill="#ffffff" fill-opacity="1"><g transform="translate(153.198011, 111.666125)"><g><path d="M 4.359375 -10.5625 L 4.359375 -7.90625 L 8.640625 -7.90625 L 8.640625 -5.4375 L 4.359375 -5.4375 L 4.359375 -2.5625 L 9.203125 -2.5625 L 9.203125 0 L 1.15625 0 L 1.15625 -13.125 L 9.203125 -13.125 L 9.203125 -10.5625 Z M 4.359375 -10.5625 "/></g></g></g><g fill="#ffffff" fill-opacity="1"><g transform="translate(164.252606, 111.666125)"><g><path d="M 12.90625 0 L 9.703125 0 L 4.359375 -8.09375 L 4.359375 0 L 1.15625 0 L 1.15625 -13.125 L 4.359375 -13.125 L 9.703125 -5 L 9.703125 -13.125 L 12.90625 -13.125 Z M 12.90625 0 "/></g></g></g><g fill="#ffffff" fill-opacity="1"><g transform="translate(179.253861, 111.666125)"><g><path d="M 6.078125 -13.125 C 7.460938 -13.125 8.671875 -12.847656 9.703125 -12.296875 C 10.742188 -11.753906 11.546875 -10.988281 12.109375 -10 C 12.679688 -9.007812 12.96875 -7.863281 12.96875 -6.5625 C 12.96875 -5.28125 12.679688 -4.140625 12.109375 -3.140625 C 11.546875 -2.140625 10.742188 -1.363281 9.703125 -0.8125 C 8.660156 -0.269531 7.453125 0 6.078125 0 L 1.15625 0 L 1.15625 -13.125 Z M 5.875 -2.765625 C 7.082031 -2.765625 8.019531 -3.09375 8.6875 -3.75 C 9.363281 -4.414062 9.703125 -5.351562 9.703125 -6.5625 C 9.703125 -7.769531 9.363281 -8.710938 8.6875 -9.390625 C 8.019531 -10.066406 7.082031 -10.40625 5.875 -10.40625 L 4.359375 -10.40625 L 4.359375 -2.765625 Z M 5.875 -2.765625 "/></g></g></g><g fill="#ffffff" fill-opacity="1"><g transform="translate(193.787506, 111.666125)"><g><path d="M 7.375 0.125 C 6.132812 0.125 5 -0.160156 3.96875 -0.734375 C 2.945312 -1.304688 2.132812 -2.101562 1.53125 -3.125 C 0.925781 -4.15625 0.625 -5.316406 0.625 -6.609375 C 0.625 -7.890625 0.925781 -9.039062 1.53125 -10.0625 C 2.132812 -11.082031 2.945312 -11.878906 3.96875 -12.453125 C 5 -13.023438 6.132812 -13.3125 7.375 -13.3125 C 8.601562 -13.3125 9.734375 -13.023438 10.765625 -12.453125 C 11.796875 -11.878906 12.601562 -11.082031 13.1875 -10.0625 C 13.78125 -9.039062 14.078125 -7.890625 14.078125 -6.609375 C 14.078125 -5.316406 13.773438 -4.15625 13.171875 -3.125 C 12.578125 -2.101562 11.769531 -1.304688 10.75 -0.734375 C 9.726562 -0.160156 8.601562 0.125 7.375 0.125 Z M 7.375 -2.78125 C 8.414062 -2.78125 9.25 -3.128906 9.875 -3.828125 C 10.507812 -4.523438 10.828125 -5.453125 10.828125 -6.609375 C 10.828125 -7.765625 10.507812 -8.6875 9.875 -9.375 C 9.25 -10.070312 8.414062 -10.421875 7.375 -10.421875 C 6.3125 -10.421875 5.460938 -10.078125 4.828125 -9.390625 C 4.203125 -8.703125 3.890625 -7.773438 3.890625 -6.609375 C 3.890625 -5.441406 4.203125 -4.507812 4.828125 -3.8125 C 5.460938 -3.125 6.3125 -2.78125 7.375 -2.78125 Z M 7.375 -2.78125 "/></g></g></g><g fill="#ffffff" fill-opacity="1"><g transform="translate(209.424715, 111.666125)"><g><path d="M 7.859375 0 L 5.125 -4.953125 L 4.359375 -4.953125 L 4.359375 0 L 1.15625 0 L 1.15625 -13.125 L 6.53125 -13.125 C 7.5625 -13.125 8.441406 -12.941406 9.171875 -12.578125 C 9.898438 -12.222656 10.445312 -11.726562 10.8125 -11.09375 C 11.175781 -10.46875 11.359375 -9.769531 11.359375 -9 C 11.359375 -8.125 11.109375 -7.34375 10.609375 -6.65625 C 10.117188 -5.96875 9.394531 -5.484375 8.4375 -5.203125 L 11.46875 0 Z M 4.359375 -7.21875 L 6.34375 -7.21875 C 6.925781 -7.21875 7.363281 -7.359375 7.65625 -7.640625 C 7.945312 -7.929688 8.09375 -8.335938 8.09375 -8.859375 C 8.09375 -9.359375 7.945312 -9.75 7.65625 -10.03125 C 7.363281 -10.320312 6.925781 -10.46875 6.34375 -10.46875 L 4.359375 -10.46875 Z M 4.359375 -7.21875 "/></g></g></g><g fill="#ffffff" fill-opacity="1"><g transform="translate(222.555513, 111.666125)"><g><path d="M 5.90625 0.125 C 4.945312 0.125 4.085938 -0.0234375 3.328125 -0.328125 C 2.566406 -0.640625 1.957031 -1.101562 1.5 -1.71875 C 1.050781 -2.332031 0.8125 -3.066406 0.78125 -3.921875 L 4.1875 -3.921875 C 4.238281 -3.441406 4.40625 -3.070312 4.6875 -2.8125 C 4.976562 -2.5625 5.351562 -2.4375 5.8125 -2.4375 C 6.289062 -2.4375 6.664062 -2.546875 6.9375 -2.765625 C 7.207031 -2.984375 7.34375 -3.285156 7.34375 -3.671875 C 7.34375 -3.992188 7.234375 -4.257812 7.015625 -4.46875 C 6.804688 -4.675781 6.539062 -4.847656 6.21875 -4.984375 C 5.894531 -5.128906 5.441406 -5.289062 4.859375 -5.46875 C 4.015625 -5.726562 3.320312 -5.988281 2.78125 -6.25 C 2.25 -6.507812 1.789062 -6.894531 1.40625 -7.40625 C 1.019531 -7.914062 0.828125 -8.582031 0.828125 -9.40625 C 0.828125 -10.625 1.269531 -11.578125 2.15625 -12.265625 C 3.039062 -12.960938 4.191406 -13.3125 5.609375 -13.3125 C 7.054688 -13.3125 8.222656 -12.960938 9.109375 -12.265625 C 9.992188 -11.578125 10.46875 -10.617188 10.53125 -9.390625 L 7.0625 -9.390625 C 7.039062 -9.816406 6.882812 -10.148438 6.59375 -10.390625 C 6.3125 -10.628906 5.945312 -10.75 5.5 -10.75 C 5.113281 -10.75 4.800781 -10.644531 4.5625 -10.4375 C 4.320312 -10.238281 4.203125 -9.945312 4.203125 -9.5625 C 4.203125 -9.132812 4.398438 -8.800781 4.796875 -8.5625 C 5.203125 -8.320312 5.828125 -8.066406 6.671875 -7.796875 C 7.523438 -7.515625 8.210938 -7.238281 8.734375 -6.96875 C 9.265625 -6.707031 9.722656 -6.328125 10.109375 -5.828125 C 10.503906 -5.335938 10.703125 -4.695312 10.703125 -3.90625 C 10.703125 -3.15625 10.507812 -2.472656 10.125 -1.859375 C 9.75 -1.253906 9.195312 -0.769531 8.46875 -0.40625 C 7.75 -0.0507812 6.894531 0.125 5.90625 0.125 Z M 5.90625 0.125 "/></g></g></g></svg>