<svg xmlns="http://www.w3.org/2000/svg" version="1.1" xmlns:xlink="http://www.w3.org/1999/xlink" width="512" height="512" x="0" y="0" viewBox="0 0 480 480" style="enable-background:new 0 0 512 512" xml:space="preserve" class=""><g><path d="M328 224h32v32h-32zM328 304h32v32h-32zM128 272h32v32h-32zM208 112h32v32h-32zM128 32h32v32h-32zM128 192h32v32h-32zM208 32h32v32h-32zM128 112h32v32h-32zM328 384h32v32h-32zM248 384h32v32h-32zM248 224h32v32h-32zM248 304h32v32h-32zm0 0" fill="#2c83ec" opacity="1" data-original="#000000" class=""></path><path d="M400 448V192H208v256h-16V184a8 8 0 0 1 8-8h80V0H88v448H0v16h480v-16zm-88-232a8 8 0 0 1 8-8h48a8 8 0 0 1 8 8v48a8 8 0 0 1-8 8h-48a8 8 0 0 1-8-8zm0 80a8 8 0 0 1 8-8h48a8 8 0 0 1 8 8v48a8 8 0 0 1-8 8h-48a8 8 0 0 1-8-8zm0 80a8 8 0 0 1 8-8h48a8 8 0 0 1 8 8v48a8 8 0 0 1-8 8h-48a8 8 0 0 1-8-8zm-80-160a8 8 0 0 1 8-8h48a8 8 0 0 1 8 8v48a8 8 0 0 1-8 8h-48a8 8 0 0 1-8-8zm0 80a8 8 0 0 1 8-8h48a8 8 0 0 1 8 8v48a8 8 0 0 1-8 8h-48a8 8 0 0 1-8-8zm0 80a8 8 0 0 1 8-8h48a8 8 0 0 1 8 8v48a8 8 0 0 1-8 8h-48a8 8 0 0 1-8-8zM192 24a8 8 0 0 1 8-8h48a8 8 0 0 1 8 8v48a8 8 0 0 1-8 8h-48a8 8 0 0 1-8-8zm0 80a8 8 0 0 1 8-8h48a8 8 0 0 1 8 8v48a8 8 0 0 1-8 8h-48a8 8 0 0 1-8-8zm-80-80a8 8 0 0 1 8-8h48a8 8 0 0 1 8 8v48a8 8 0 0 1-8 8h-48a8 8 0 0 1-8-8zm0 80a8 8 0 0 1 8-8h48a8 8 0 0 1 8 8v48a8 8 0 0 1-8 8h-48a8 8 0 0 1-8-8zm0 80a8 8 0 0 1 8-8h48a8 8 0 0 1 8 8v48a8 8 0 0 1-8 8h-48a8 8 0 0 1-8-8zm0 80a8 8 0 0 1 8-8h48a8 8 0 0 1 8 8v48a8 8 0 0 1-8 8h-48a8 8 0 0 1-8-8zm48 184v-72a8 8 0 0 0-8-8h-16a8 8 0 0 0-8 8v72h-16v-72c0-13.254 10.746-24 24-24h16c13.254 0 24 10.746 24 24v72zm0 0" fill="#2c83ec" opacity="1" data-original="#000000" class=""></path></g></svg>