<svg xmlns="http://www.w3.org/2000/svg" xmlns:xlink="http://www.w3.org/1999/xlink" viewBox="0 0 14.72 14.65"><defs><style>.cls-1{isolation:isolate;}.cls-2{fill:#cd4e0e;}.cls-3{fill:#f0efee;}.cls-4,.cls-5,.cls-6{opacity:0.5;mix-blend-mode:multiply;}.cls-4{fill:url(#linear-gradient);}.cls-5{fill:url(#linear-gradient-2);}.cls-6{fill:url(#linear-gradient-3);}</style><linearGradient id="linear-gradient" x1="20.37" y1="18.8" x2="-0.54" y2="-1.19" gradientUnits="userSpaceOnUse"><stop offset="0" stop-color="#fff"/><stop offset="1"/></linearGradient><linearGradient id="linear-gradient-2" x1="19.01" y1="20.18" x2="-1.87" y2="0.22" xlink:href="#linear-gradient"/><linearGradient id="linear-gradient-3" x1="15.21" y1="13.88" x2="3.08" y2="2.29" xlink:href="#linear-gradient"/></defs><title>Asset 9</title><g class="cls-1"><g id="Layer_2" data-name="Layer 2"><g id="Layer_7" data-name="Layer 7"><rect class="cls-2" width="14.65" height="14.65" rx="2" ry="2"/><polygon class="cls-3" points="4.8 3.16 4.79 3.11 1.91 3.11 1.91 3.69 4.77 3.12 4.8 3.16"/><polygon class="cls-4" points="6.31 4.66 4.8 3.16 5.49 5.34 6.31 4.66"/><polygon class="cls-5" points="1.91 3.7 1.91 3.69 1.88 3.7 4.9 6.72 5.55 9.74 4.31 3.7 1.91 3.7"/><path class="cls-6" d="M12.38,4.14v0h0l-1,5.58H5.55l.8.81h.12A.84.84,0,1,1,5.9,12h0l4.62,2.63h1.68a2.94,2.94,0,0,0,2-.63c.83-.72.49-3.19.49-3.19V9.74Zm-1.88,8.09a.84.84,0,0,1,0-1.69.84.84,0,1,1,0,1.69Z"/><path class="cls-3" d="M6.47,10.54H6.35a.84.84,0,0,0-.72.83.85.85,0,0,0,.85.84.84.84,0,1,0,0-1.69Z"/><circle class="cls-3" cx="10.51" cy="11.38" r="0.85"/><polygon class="cls-3" points="12.38 4.16 12.38 4.16 6.91 4.16 6.31 4.66 5.49 5.34 4.8 3.16 4.77 3.12 1.91 3.69 1.91 3.7 4.31 3.7 5.55 9.74 11.34 9.74 12.38 4.16"/></g></g></g></svg>