<svg xmlns="http://www.w3.org/2000/svg" xmlns:xlink="http://www.w3.org/1999/xlink" viewBox="0 0 14.65 14.65"><defs><style>.cls-1{isolation:isolate;}.cls-2{fill:#cd4e0e;}.cls-3{opacity:0.5;mix-blend-mode:multiply;fill:url(#linear-gradient);}.cls-4{fill:#fff;}</style><linearGradient id="linear-gradient" x1="15.05" y1="15.76" x2="3.54" y2="1.89" gradientUnits="userSpaceOnUse"><stop offset="0" stop-color="#fff"/><stop offset="1"/></linearGradient></defs><title>Asset 5</title><g class="cls-1"><g id="Layer_2" data-name="Layer 2"><g id="Layer_2-2" data-name="Layer 2"><rect class="cls-2" width="14.65" height="14.65" rx="2" ry="2"/><path class="cls-3" d="M3.87,9.5l0-.71L3.2,5.85l1.43-.54L5.5,3.14,11,2.94l3.59,2.69v6.5A2.48,2.48,0,0,1,14.12,14a2.26,2.26,0,0,1-1.51.63H6.85L2.4,10.14l1.45.07Z"/><g id="quality"><path class="cls-4" d="M12.68,5.87l-1.21-1-.26-1.65a.62.62,0,0,0-.57-.5L9,2.82l-1.19-1a.64.64,0,0,0-.88,0L5.75,2.82,4.11,2.75a.64.64,0,0,0-.67.58L3.26,4.9l-1.35,1a.62.62,0,0,0-.14.75l.93,1.42L2.33,9.61a.64.64,0,0,0,.39.79l1.59.5L5,12.33a.64.64,0,0,0,.84.27L7.36,12l1.5.63a.62.62,0,0,0,.72-.25l.82-1.49,1.45-.47a.85.85,0,0,0,.25-.13.56.56,0,0,0,.25-.41V9.83a.63.63,0,0,0,0-.14L12,8.1l.82-1.36A.64.64,0,0,0,12.68,5.87Zm-7.1,2.3H5.06L4.17,6.73V8.17H3.68V6.08h.64l.76,1.2V6.08h.49Zm2-1.69h-1v.36h.91v.4H6.65v.52h1v.4H6.12V6.08H7.63Zm2.78,1.69h-.6L9.43,6.81,9.07,8.17h-.6L7.91,6.08h.56l.32,1.44.39-1.44h.54l.37,1.44.34-1.44H11Z"/></g></g></g></g></svg>