<svg xmlns="http://www.w3.org/2000/svg" xmlns:xlink="http://www.w3.org/1999/xlink" viewBox="0 0 14.69 14.66"><defs><style>.cls-1{isolation:isolate;}.cls-2{fill:#cd4e0e;}.cls-3,.cls-4{opacity:0.5;mix-blend-mode:multiply;}.cls-3{fill:url(#linear-gradient);}.cls-4{fill:url(#linear-gradient-2);}.cls-5{fill:#fff;}</style><linearGradient id="linear-gradient" x1="16.12" y1="15.18" x2="2.82" y2="3.83" gradientUnits="userSpaceOnUse"><stop offset="0" stop-color="#fff"/><stop offset="1"/></linearGradient><linearGradient id="linear-gradient-2" x1="20.72" y1="21.48" x2="0.11" y2="3.89" xlink:href="#linear-gradient"/></defs><title>Asset 9 1</title><g class="cls-1"><g id="Layer_2" data-name="Layer 2"><g id="Layer_7" data-name="Layer 7"><rect class="cls-2" width="14.65" height="14.65" rx="2" ry="2"/><path class="cls-3" d="M9,2.23c.49.34.22,1.4.25,2.12,0,.14.26.08.29.21a4.12,4.12,0,0,1,0,.93c-.57.23-.68.93-1.14,1.27-.34,1.29.52,1.32,1.48,1.52a2,2,0,0,1,1.82,2.18v0h0s0,0,0,0h0a.61.61,0,0,1-.08.25,1.52,1.52,0,0,1-.65.58,1.64,1.64,0,0,0-3.25.29,1.73,1.73,0,0,0,0,.41H7.32a11,11,0,0,1-2.06-.19h0A3.3,3.3,0,0,1,3,10.8l.18.24,6.38,3.61h2.25a3.59,3.59,0,0,0,2.1-.44c1-.75.71-2.65.71-2.65l0-1.33Zm.4,10.92a1.39,1.39,0,0,1-1.35-1,1.33,1.33,0,0,1,0-.35,1.39,1.39,0,0,1,2.76-.25,1.45,1.45,0,0,1,0,.25A1.39,1.39,0,0,1,9.4,13.15Z"/><path class="cls-4" d="M10,11.65H9.56v-.49a.09.09,0,0,0-.09-.09H9.32a.09.09,0,0,0-.09.09v.49H8.74a.09.09,0,0,0-.09.09v.14a.09.09,0,0,0,.09.09h.49v.49a.09.09,0,0,0,.09.09h.15a.09.09,0,0,0,.09-.09V12H10a.09.09,0,0,0,.09-.09v-.14A.09.09,0,0,0,10,11.65Z"/><path class="cls-5" d="M11.71,10.49v0A2,2,0,0,0,9.88,8.29c-1-.2-1.83-.24-1.48-1.52.47-.34.57-1,1.14-1.27a4.12,4.12,0,0,0,0-.93c0-.13-.26-.07-.29-.21,0-.72.24-1.78-.25-2.12a.44.44,0,0,0-.25-.07H8.48a.59.59,0,0,1-.2,0C8,2,8,1.67,7.68,1.64H7.43A4.24,4.24,0,0,1,6.06,2L6,2a.85.85,0,0,0-.51.44,2.5,2.5,0,0,0-.17,1.07c0,.25,0,.51,0,.78a.67.67,0,0,0-.32.6,1.27,1.27,0,0,0,.06.42c.07.23.29.29.46.51s.35.6.54.79a.43.43,0,0,0,.22.14v.83a1.19,1.19,0,0,1-.22.24c-.79.67-2.4.38-2.91,1.36a5.62,5.62,0,0,0-.21,1.19v.13h0A.73.73,0,0,0,3,10.8a3.3,3.3,0,0,0,2.21,1.09h0a11,11,0,0,0,2.06.19h.46a1.73,1.73,0,0,1,0-.41A1.64,1.64,0,0,1,11,11.35a1.52,1.52,0,0,0,.65-.58.61.61,0,0,0,.08-.25h0s0,0,0,0Z"/><path class="cls-5" d="M9.4,10.37A1.39,1.39,0,0,0,8,11.76a1.33,1.33,0,0,0,0,.35,1.39,1.39,0,0,0,2.74-.35,1.45,1.45,0,0,0,0-.25A1.39,1.39,0,0,0,9.4,10.37Zm.73,1.51A.09.09,0,0,1,10,12H9.56v.49a.09.09,0,0,1-.09.09H9.32a.09.09,0,0,1-.09-.09V12H8.74a.09.09,0,0,1-.09-.09v-.14a.09.09,0,0,1,.09-.09h.49v-.49a.09.09,0,0,1,.09-.09h.15a.09.09,0,0,1,.09.09v.49H10a.09.09,0,0,1,.09.09Z"/></g></g></g></svg>