<svg xmlns="http://www.w3.org/2000/svg" xmlns:xlink="http://www.w3.org/1999/xlink" viewBox="0 0 14.65 14.75"><defs><style>.cls-1{isolation:isolate;}.cls-2{fill:#cd4e0e;}.cls-3{opacity:0.37;mix-blend-mode:multiply;fill:url(#linear-gradient);}.cls-4{fill:#fff;}</style><linearGradient id="linear-gradient" x1="14.55" y1="16.31" x2="1.9" y2="3.65" gradientUnits="userSpaceOnUse"><stop offset="0" stop-color="#fff"/><stop offset="1"/></linearGradient></defs><title>Asset 12</title><g class="cls-1"><g id="Layer_2" data-name="Layer 2"><g id="Layer_7" data-name="Layer 7"><rect class="cls-2" width="14.65" height="14.65" rx="2" ry="2"/><path class="cls-3" d="M7.75,1.39l-1.24.3L6.73,4.4l-1.24.91L4,10.28,1.84,12l5.45,2.68h3.19s2.74.22,3.5-.43a3.06,3.06,0,0,0,.63-2.47V7.93Z"/><path class="cls-4" d="M6.13,10.73a4.77,4.77,0,0,0-1.5-.43l.05-.37a.42.42,0,0,0,.21-.27l0-.34a.09.09,0,0,0,.06,0,.1.1,0,0,0,.11-.09l.05-.53a.1.1,0,0,0-.09-.11H5l0-.3a.84.84,0,0,0-.19-.74,1.29,1.29,0,0,0-1.61,0,.83.83,0,0,0-.19.74l0,.3H3a.1.1,0,0,0-.09.11L3,9.26a.1.1,0,0,0,.11.09.1.1,0,0,0,.06,0l0,.34a.42.42,0,0,0,.21.27l.05.37a4.78,4.78,0,0,0-1.5.43.5.5,0,0,0-.24.45l.06.56a.42.42,0,0,0,.31.35,12.37,12.37,0,0,0,3.93,0,.42.42,0,0,0,.31-.35l.06-.56A.5.5,0,0,0,6.13,10.73Z"/><path class="cls-4" d="M12.67,10.73a4.78,4.78,0,0,0-1.5-.43l.05-.37a.42.42,0,0,0,.21-.27l0-.34a.1.1,0,0,0,.06,0,.1.1,0,0,0,.11-.09l.05-.53a.1.1,0,0,0-.09-.11h-.06l0-.3a.83.83,0,0,0-.19-.74,1.29,1.29,0,0,0-1.61,0,.83.83,0,0,0-.19.74l0,.3H9.57a.1.1,0,0,0-.09.11l.05.53a.1.1,0,0,0,.11.09.1.1,0,0,0,.06,0l0,.34a.43.43,0,0,0,.21.27l.05.37a4.77,4.77,0,0,0-1.5.43.5.5,0,0,0-.25.45l.06.56a.42.42,0,0,0,.31.35,12.37,12.37,0,0,0,3.93,0,.42.42,0,0,0,.31-.35l.05-.56A.5.5,0,0,0,12.67,10.73Z"/><path class="cls-4" d="M8.87,9.34,7.6,8.61V7.14a.28.28,0,0,0-.57,0V8.61l-1.27.74a.28.28,0,0,0,.14.53.28.28,0,0,0,.14,0L7.32,9.1l1.27.73a.28.28,0,0,0,.14,0,.28.28,0,0,0,.14-.53Z"/><path class="cls-4" d="M9.4,4.83A4.83,4.83,0,0,0,7.9,4.4L7.95,4a.42.42,0,0,0,.21-.27l0-.34.06,0a.1.1,0,0,0,.11-.09l.05-.53a.1.1,0,0,0-.09-.11H8.27l0-.3a.83.83,0,0,0-.19-.74,1.29,1.29,0,0,0-1.61,0,.83.83,0,0,0-.19.74l0,.3H6.3a.1.1,0,0,0-.09.11l.05.53a.1.1,0,0,0,.11.09l.06,0,0,.34A.42.42,0,0,0,6.68,4l.05.37a4.83,4.83,0,0,0-1.5.43A.5.5,0,0,0,5,5.28q0,.28.06.56a.42.42,0,0,0,.31.35,12.37,12.37,0,0,0,3.93,0,.42.42,0,0,0,.31-.35l.05-.56A.5.5,0,0,0,9.4,4.83Z"/></g></g></g></svg>