<svg xmlns="http://www.w3.org/2000/svg" xmlns:xlink="http://www.w3.org/1999/xlink" viewBox="0 0 14.68 14.69"><defs><style>.cls-1{isolation:isolate;}.cls-2{fill:#cd4e0e;}.cls-3{fill:#efeeed;}.cls-4,.cls-5,.cls-6{opacity:0.5;mix-blend-mode:multiply;}.cls-4{fill:url(#linear-gradient);}.cls-5{fill:url(#linear-gradient-2);}.cls-6{fill:url(#linear-gradient-3);}</style><linearGradient id="linear-gradient" x1="16.77" y1="14.77" x2="3.57" y2="0.95" gradientUnits="userSpaceOnUse"><stop offset="0" stop-color="#fff"/><stop offset="1"/></linearGradient><linearGradient id="linear-gradient-2" x1="24.86" y1="17.25" x2="4.9" y2="-3.63" xlink:href="#linear-gradient"/><linearGradient id="linear-gradient-3" x1="6.19" y1="6.11" x2="9.29" y2="10.09" xlink:href="#linear-gradient"/></defs><title>Asset 7 1</title><g class="cls-1"><g id="Layer_2" data-name="Layer 2"><g id="Layer_7" data-name="Layer 7"><rect class="cls-2" width="14.65" height="14.65" rx="2" ry="2"/><polygon class="cls-3" points="11.68 2.15 11.65 2.19 11.73 2.25 11.68 2.15"/><path class="cls-4" d="M13.63,3.58S11.52,4,11.46,4l1-1.12,1.15.67-1.31-.84L9.47,5.85a.2.2,0,0,1-.28,0h0L9,6l.09.09L7.78,7.18a.59.59,0,0,1,0,.79.6.6,0,1,1-.13-.92l1-1.42.08.09.15-.16h0a.2.2,0,0,1,0-.29l.44-.48V4.54l-.59.65A2.74,2.74,0,1,0,9.57,6l.59-.64a3.6,3.6,0,0,1-5.26,4.88l4.43,4.42h2.19A3.5,3.5,0,0,0,14,14.12,2.63,2.63,0,0,0,14.65,12V9.21ZM8.78,8.89a2,2,0,1,1-.54-3.07h0l-.34.61h0a1.27,1.27,0,1,0,.49.44L9,6.5A2,2,0,0,1,8.78,8.89Z"/><polygon class="cls-5" points="11.46 2.03 10.52 3.07 10.49 3.46 11.65 2.19 11.46 2.03"/><path class="cls-3" d="M10.69,1.19c0-.16,0-.27,0-.27Z"/><path class="cls-6" d="M7.27,7.6l.17-.25a.25.25,0,0,0-.3.05.24.24,0,1,0,.37,0Z"/><path class="cls-3" d="M11.46,4c.07-.07,2.17-.45,2.17-.45l-1.15-.67Z"/><path class="cls-3" d="M10.72.93s0,.1,0,.27l-.16,1.87.94-1Z"/><path class="cls-3" d="M8.23,5.83Z"/><path class="cls-3" d="M10,10a3.6,3.6,0,0,0,.17-4.64L9.57,6a2.75,2.75,0,1,1-.89-.81l.59-.65A3.6,3.6,0,1,0,10,10Z"/><path class="cls-3" d="M8.38,6.87a1.27,1.27,0,1,1-.49-.44h0l.34-.61A2,2,0,1,0,9,6.5Z"/><path class="cls-3" d="M11.88,2.58l-.15-.33-.08-.07L10.49,3.46,9.27,4.79l-.44.48a.2.2,0,0,0,0,.29h0l-.15.16-.08-.09-1,1.42a.6.6,0,1,0,.15.13L9.13,6.12,9,6l.15-.16h0a.2.2,0,0,0,.28,0l2.85-3.11ZM7.5,7.73a.24.24,0,0,1-.36-.33.25.25,0,0,1,.3-.05l-.17.25.24-.19A.24.24,0,0,1,7.5,7.73Z"/></g></g></g></svg>