<svg id="Layer_1" data-name="Layer 1" xmlns="http://www.w3.org/2000/svg" viewBox="0 0 500 500"><defs><style>.cls-1{fill:#2c83ec;}.cls-2{fill:#fff;}</style></defs><rect class="cls-1" width="500" height="500" rx="52.69"/><path class="cls-2" d="M447.1,176.06V378.18A34.82,34.82,0,0,1,412.28,413h-325a34.82,34.82,0,0,1-34.82-34.82V176.06L197.24,298.81a81.26,81.26,0,0,0,105.09,0ZM412.28,88a35.12,35.12,0,0,1,12.42,2.28,34.5,34.5,0,0,1,14.58,10.56A34.35,34.35,0,0,1,447,120.78l.06,2v11.61l-174.72,149a34.83,34.83,0,0,1-43.47,1.39l-1.73-1.4-174.72-149V122.82A34.82,34.82,0,0,1,87.28,88Z"/></svg>