<svg xmlns="http://www.w3.org/2000/svg" xmlns:xlink="http://www.w3.org/1999/xlink" viewBox="0 0 14.69 14.68"><defs><style>.cls-1{isolation:isolate;}.cls-2{fill:#cd4e0e;}.cls-3{fill:#f0efee;}.cls-4,.cls-5{opacity:0.5;mix-blend-mode:multiply;}.cls-4{fill:url(#linear-gradient);}.cls-5{fill:url(#linear-gradient-2);}.cls-6{fill:#fff;}</style><linearGradient id="linear-gradient" x1="16.52" y1="16.14" x2="2.9" y2="3.18" gradientUnits="userSpaceOnUse"><stop offset="0" stop-color="#fff"/><stop offset="1"/></linearGradient><linearGradient id="linear-gradient-2" x1="23.83" y1="20.14" x2="2.69" y2="0.01" xlink:href="#linear-gradient"/></defs><title>Asset 10</title><g class="cls-1"><g id="Layer_2" data-name="Layer 2"><g id="Layer_7" data-name="Layer 7"><rect class="cls-2" width="14.65" height="14.65" rx="2" ry="2"/><path class="cls-3" d="M2.59,9.64l0,0Z"/><polygon class="cls-3" points="2.53 4.69 2.53 4.69 2.53 4.69 2.53 4.69"/><path class="cls-3" d="M2.53,9.58l0,0,0,0Z"/><polygon class="cls-3" points="11 4.09 10.99 4.1 11.01 4.1 11 4.09"/><path class="cls-3" d="M11.63,4.69h0l.12.12Z"/><polygon class="cls-3" points="11.63 4.69 11.63 4.69 11.63 4.69 11.63 4.69"/><polygon class="cls-3" points="3.04 4.1 3.04 4.1 3.04 4.09 3.04 4.1"/><path class="cls-4" d="M11.73,4.82a1.11,1.11,0,0,1,.2.65V8.8A1.16,1.16,0,0,1,10.78,10H3.38a1.15,1.15,0,0,1-.8-.32l6.54,5h2.43a3.79,3.79,0,0,0,2.33-.42,2.26,2.26,0,0,0,.76-2.13V10.45Z"/><polygon class="cls-5" points="6.66 6.91 7.08 7.14 9.78 5.69 11.61 4.7 11.01 4.1 10.99 4.1 7.02 6.24 3.04 4.1 4.92 5.97 6.66 6.91"/><path class="cls-6" d="M11.73,4.82l-.12-.12-1.83,1L7.08,7.14l-.42-.23L4.92,6,2.53,4.69a1.16,1.16,0,0,0-.3.78V8.8a1.17,1.17,0,0,0,.3.78l0,0,0,0a1.15,1.15,0,0,0,.8.32h7.4A1.16,1.16,0,0,0,11.93,8.8V5.47A1.11,1.11,0,0,0,11.73,4.82Z"/><path class="cls-6" d="M7,6.24,11,4.1h0a1,1,0,0,0-.74-.33H3.79A1,1,0,0,0,3,4.09H3Z"/></g></g></g></svg>