<?xml version="1.0" encoding="UTF-8"?>
<svg id="Layer_2" data-name="Layer 2" xmlns="http://www.w3.org/2000/svg" xmlns:xlink="http://www.w3.org/1999/xlink" viewBox="0 0 150 150">
  <defs>
    <style>
      .cls-1 {
        fill: url(#linear-gradient);
      }

      .cls-1, .cls-2 {
        isolation: isolate;
        opacity: .5;
      }

      .cls-3 {
        fill: #fff;
      }

      .cls-2 {
        fill: url(#linear-gradient-2);
      }

      .cls-4 {
        fill: #f0efee;
      }

      .cls-5 {
        fill: #2c83ec;
      }
    </style>
    <linearGradient id="linear-gradient" x1="-395.38" y1="136.65" x2="-534.48" y2="269" gradientTransform="translate(564 301.41) scale(1 -1)" gradientUnits="userSpaceOnUse">
      <stop offset="0" stop-color="#fff" stop-opacity="0"/>
      <stop offset="1" stop-color="#000"/>
    </linearGradient>
    <linearGradient id="linear-gradient-2" x1="-320.49" y1="95.72" x2="-536.5" y2="301.42" gradientTransform="translate(564 301.41) scale(1 -1)" gradientUnits="userSpaceOnUse">
      <stop offset="0" stop-color="#fff"/>
      <stop offset="1" stop-color="#000"/>
    </linearGradient>
  </defs>
  <g id="Layer_1-2" data-name="Layer 1">
    <g id="Layer_2-2" data-name="Layer 2">
      <g id="Layer_7" data-name="Layer 7">
        <path class="cls-5" d="m20.44,0h108.84c11.29,0,20.44,9.13,20.44,20.38v108.55c0,11.26-9.15,20.38-20.44,20.38H20.44c-11.29,0-20.44-9.13-20.44-20.38V20.38C0,9.13,9.15,0,20.44,0Z"/>
        <polygon class="cls-4" points="112.42 41.69 112.32 41.79 112.52 41.79 112.42 41.69"/>
        <path class="cls-4" d="m118.86,47.8h0l1.23,1.22-1.23-1.22Z"/>
        <path class="cls-1" d="m119.88,49.13c1.36,1.94,2.07,4.26,2.04,6.63v33.94c.23,6.53-4.9,12-11.44,12.22-.1,0-.21,0-.31,0H34.54c-3.05.01-5.98-1.16-8.18-3.26l66.84,50.96h24.83c8.19,1.15,16.54-.35,23.81-4.28,6.29-5.33,9.26-13.61,7.77-21.71v-17.12l-29.74-57.38Z"/>
        <polygon class="cls-2" points="68.07 70.43 72.36 72.77 99.95 58 118.65 47.9 112.52 41.79 112.32 41.79 71.74 63.6 31.07 41.79 50.28 60.85 68.07 70.43"/>
        <path class="cls-3" d="m119.88,49.13l-1.23-1.22-18.7,10.19-27.59,14.68-4.29-2.34-17.78-9.28-24.43-13.35c-1.98,2.18-3.07,5.01-3.07,7.95v33.94c0,2.94,1.1,5.77,3.07,7.95h0c2.2,2.1,5.13,3.27,8.18,3.26h75.63c6.47.23,11.93-4.76,12.26-11.21v-33.94c.03-2.37-.68-4.68-2.04-6.63Z"/>
        <path class="cls-3" d="m71.54,63.6l40.88-21.81h0c-1.93-2.14-4.68-3.36-7.56-3.36H38.73c-3.04-.17-6.01,1.03-8.07,3.26h0l40.88,21.91Z"/>
      </g>
    </g>
  </g>
</svg>