<svg xmlns="http://www.w3.org/2000/svg" xmlns:xlink="http://www.w3.org/1999/xlink" viewBox="0 0 14.65 14.65"><defs><style>.cls-1{isolation:isolate;}.cls-2{fill:#cd4e0e;}.cls-3{opacity:0.5;mix-blend-mode:multiply;fill:url(#linear-gradient);}.cls-4{fill:#fff;}</style><linearGradient id="linear-gradient" x1="15.05" y1="15.76" x2="3.54" y2="1.89" gradientUnits="userSpaceOnUse"><stop offset="0" stop-color="#fff"/><stop offset="1"/></linearGradient></defs><title>Asset 6</title><g class="cls-1"><g id="Layer_2" data-name="Layer 2"><g id="Layer_2-2" data-name="Layer 2"><rect class="cls-2" width="14.65" height="14.65" rx="2" ry="2"/><path class="cls-3" d="M3.87,9.5l0-.71L3.2,5.85l1.43-.54L5.5,3.14,11,2.94l3.59,2.69v6.5A2.48,2.48,0,0,1,14.12,14a2.26,2.26,0,0,1-1.51.63H6.85L2.4,10.14l1.45.07Z"/><path class="cls-4" d="M7.61,1.06a6,6,0,0,0-5,9.26L2,11.69l-.58,1.52L3,12.64l1.37-.52A6,6,0,1,0,7.61,1.06ZM5.82,6.47H5.16V6.14H4.59v.65H5.3v.5H4.59v.48H5v.5H3.57v-.5h.23V6.14H3.57v-.5H5.82Zm3.1,1.8H7.41V7.78h.36l-.08-.26H6.92l-.08.26h.29v.49H5.94V7.78h.26L6.7,6.13H6.55V5.64H8l.67,2.14h.26Zm2.84-.21a.55.55,0,0,1-.56.6.61.61,0,0,1-.58-.42l-.29,0A1.2,1.2,0,0,1,9,6.94,1.23,1.23,0,0,1,10.3,5.63,1.18,1.18,0,0,1,11.58,7a1.35,1.35,0,0,1-.31.94c0,.12.07.24.17.24s.08-.11.08-.17V7.87h.25Z"/><path class="cls-4" d="M10.29,6.18c-.23,0-.43.32-.43.76a1.19,1.19,0,0,0,0,.21A.58.58,0,0,1,10.32,7a.71.71,0,0,1,.42.15s0-.09,0-.15C10.75,6.54,10.57,6.18,10.29,6.18Z"/><path class="cls-4" d="M10.52,7.63c0-.19-.07-.32-.2-.32s-.2.12-.25.27"/><polygon class="cls-4" points="7.06 7.07 7.55 7.07 7.3 6.26 7.06 7.07"/></g></g></g></svg>