<svg xmlns="http://www.w3.org/2000/svg" xmlns:xlink="http://www.w3.org/1999/xlink" viewBox="0 0 14.67 14.66"><defs><style>.cls-1{isolation:isolate;}.cls-2{fill:#cd4e0e;}.cls-3{opacity:0.5;mix-blend-mode:multiply;fill:url(#linear-gradient);}.cls-4{fill:#f0efee;}</style><linearGradient id="linear-gradient" x1="14.09" y1="14.28" x2="4.24" y2="5.03" gradientUnits="userSpaceOnUse"><stop offset="0" stop-color="#fff"/><stop offset="1"/></linearGradient></defs><title>Asset 11 1</title><g class="cls-1"><g id="Layer_2" data-name="Layer 2"><g id="Layer_7" data-name="Layer 7"><rect class="cls-2" width="14.65" height="14.65" rx="2" ry="2"/><path class="cls-3" d="M3.11,4.21l.17,8,6.36,2.44h1.67A4.73,4.73,0,0,0,14,14.11c.87-.73.64-2.48.64-2.48V6.73L9.27,2.1H3.11"/><polygon class="cls-4" points="8.77 6.99 7.42 6.99 7.92 5.75 8.43 4.46 6.63 4.46 5.88 4.46 5.88 8.43 6.69 8.43 5.88 11.05 8.77 6.99"/><path class="cls-4" d="M9.27,2.1H3V12.55h8.71V4.32ZM11,11.89H3.61V3H8.83l0,2.13L11,5.24Z"/></g></g></g></svg>