<svg id="Layer_1" data-name="Layer 1" xmlns="http://www.w3.org/2000/svg" viewBox="0 0 500 500"><defs><style>.cls-1{fill:#2c83ec;}.cls-2{fill:#fff;}.cls-3{fill:#dbdbdb;}.cls-4{fill:#445b69;}</style></defs><rect class="cls-1" width="500" height="500" rx="52.69"/><ellipse class="cls-2" cx="247.89" cy="250" rx="160.4" ry="160"/><ellipse class="cls-1" cx="247.89" cy="250" rx="138.02" ry="137.68"/><ellipse class="cls-2" cx="247.89" cy="250" rx="115.7" ry="115.41"/><ellipse class="cls-1" cx="247.89" cy="250" rx="93.38" ry="93.15"/><ellipse class="cls-2" cx="247.89" cy="250" rx="71" ry="70.82"/><ellipse class="cls-1" cx="247.89" cy="250" rx="48.67" ry="48.56"/><path class="cls-2" d="M276.24,250a26.35,26.35,0,1,1-26.35-26.29A26.33,26.33,0,0,1,276.24,250Z" transform="translate(-2)"/><path class="cls-3" d="M377.31,163.66l-35.69-4.78-4.82-35.64,46-55.24,13.07,36.69,36.8,13.07Z" transform="translate(-2)"/><path class="cls-4" d="M402.8,97.86a6.22,6.22,0,0,0-4.53-1.81,7.52,7.52,0,0,0-5.18,2.16L246.67,244.29a7.1,7.1,0,0,0-2.16,4.82,6.25,6.25,0,0,0,1.8,4.83,6.18,6.18,0,0,0,4.53,1.81,7.57,7.57,0,0,0,5.18-2.16L402.44,107.51A6.84,6.84,0,0,0,402.8,97.86Z" transform="translate(-2)"/></svg>