<svg id="Layer_1" data-name="Layer 1" xmlns="http://www.w3.org/2000/svg" viewBox="0 0 500 500"><defs><style>.cls-1{fill:#2c83ec;}.cls-2{fill:#fff;}</style></defs><rect class="cls-1" width="500" height="500" rx="52.69"/><path class="cls-2" d="M230.89,252.2c45.06,0,61.28-45.12,65.52-82.18,5.23-45.66-16.36-80-65.52-80s-70.75,34.36-65.51,80C169.62,207.08,185.83,252.2,230.89,252.2Z" transform="translate(0 0)"/><path class="cls-2" d="M329.42,271q2.18,0,4.32.12a34.25,34.25,0,0,0-7.53-7.93c-8.66-6.46-19.87-8.58-29.78-12.48a126.49,126.49,0,0,1-13.21-5.92c-13.69,15-31.54,22.87-52.33,22.87s-38.64-7.85-52.33-22.87a126.29,126.29,0,0,1-13.2,5.92c-9.91,3.9-21.13,6-29.79,12.48-15,11.18-18.84,36.32-21.88,53.47a307.17,307.17,0,0,0-4.69,43c-.38,11.14,5.12,12.7,14.44,16.06a269.32,269.32,0,0,0,35.84,9.89c23.43,4.95,47.57,8.75,71.61,8.92A286.34,286.34,0,0,0,265.82,392a77.18,77.18,0,0,1,63.6-121Z" transform="translate(0 0)"/><path class="cls-2" d="M329.42,286.42a61.79,61.79,0,1,0,61.79,61.79A61.8,61.8,0,0,0,329.42,286.42Zm27,72.39H340v16.43a10.6,10.6,0,1,1-21.2,0V358.81H302.39a10.6,10.6,0,1,1,0-21.2h16.43V321.18a10.6,10.6,0,1,1,21.2,0v16.43h16.43a10.6,10.6,0,1,1,0,21.2Z" transform="translate(0 0)"/><rect class="cls-1" x="319" y="310" width="21" height="77" rx="2.82"/><rect class="cls-1" x="319" y="310" width="21" height="77" rx="2.82" transform="translate(678 19) rotate(90)"/></svg>