<svg id="Layer_1" data-name="Layer 1" xmlns="http://www.w3.org/2000/svg" viewBox="0 0 500 500"><defs><style>.cls-1{fill:#2c83ec;}.cls-2{fill:#fff;}</style></defs><rect class="cls-1" width="500" height="500" rx="52.69"/><path class="cls-2" d="M346,311.12a87.36,87.36,0,0,0-86-74.63H240.5a87.34,87.34,0,0,0-86,74.63l-9.34,65.25a13.73,13.73,0,0,0,3.9,11.64c3.66,3.66,26.11,22.32,101.2,22.32S347.73,391.74,351.45,388a13.73,13.73,0,0,0,3.9-11.64Z"/><path class="cls-2" d="M169,246.56a104.33,104.33,0,0,0-32.57,62l-6.77,46.85c-54.35-.37-70.82-20.13-73.56-24.16A13.49,13.49,0,0,1,53.69,321l4-22.69A74.9,74.9,0,0,1,169,246.56Z"/><path class="cls-2" d="M446.75,321a13.53,13.53,0,0,1-2.38,10.24c-2.74,4-19.21,23.79-73.56,24.16L364,308.59a104.33,104.33,0,0,0-32.57-62,74.89,74.89,0,0,1,111.25,51.79Z"/><path class="cls-2" d="M172.08,206.3a49.66,49.66,0,0,1-40.8,21,50.33,50.33,0,1,1,30.19-90.58,87.85,87.85,0,0,0-2.75,21.95A91.77,91.77,0,0,0,172.08,206.3Z"/><path class="cls-2" d="M419.48,177a50.29,50.29,0,0,1-50.24,50.33h-.08a49.65,49.65,0,0,1-40.8-21,91.66,91.66,0,0,0,13.35-47.58A87.84,87.84,0,0,0,339,136.77,50.31,50.31,0,0,1,419.48,177Z"/><circle class="cls-2" cx="250.22" cy="158.72" r="68.62"/></svg>