<svg id="Layer_1" data-name="Layer 1" xmlns="http://www.w3.org/2000/svg" viewBox="0 0 500 500"><defs><style>.cls-1{fill:#2c83ec;}.cls-2{fill:#fff;}</style></defs><rect class="cls-1" width="500" height="500" rx="52.69"/><path class="cls-2" d="M370.25,141.43h-240a11.43,11.43,0,0,0-11.43,11.43v5.71H381.68v-5.71A11.43,11.43,0,0,0,370.25,141.43Z" transform="translate(0 0)"/><path class="cls-2" d="M101.68,375.71h99.09l24.46-51.43H190.82A14.89,14.89,0,0,1,177,304.1l38.42-101.63a14.89,14.89,0,0,1,13.83-9.62H308A14.9,14.9,0,0,1,320.31,216l-41.39,62.57h30.76a14.9,14.9,0,0,1,10.85,25l-67.78,72.1H398.82a11.43,11.43,0,0,0,11.43-11.43V181.43A11.43,11.43,0,0,0,398.82,170H101.68a11.43,11.43,0,0,0-11.43,11.43V364.28A11.43,11.43,0,0,0,101.68,375.71Z" transform="translate(0 0)"/><path class="cls-2" d="M312.79,292.05a3.27,3.27,0,0,0-3.11-2.05H268.29a5.71,5.71,0,0,1-4.77-8.87l47.26-71.43a3.41,3.41,0,0,0,.16-3.61,3.31,3.31,0,0,0-3-1.81H229.21a3.44,3.44,0,0,0-3.16,2.23L187.63,308.14a3.5,3.5,0,0,0,.39,3.24,3.32,3.32,0,0,0,2.8,1.47h43.43a5.72,5.72,0,0,1,5.7,5.73,5.56,5.56,0,0,1-.56,2.44l-39.68,83.43a3.7,3.7,0,0,0,1.43,4.83,3.54,3.54,0,0,0,4.88-.57L312.19,295.82A3.37,3.37,0,0,0,312.79,292.05Z" transform="translate(0 0)"/><path class="cls-2" d="M398.82,118.57H237.74a34.32,34.32,0,0,1-22-7.95L197.4,95.3A22.89,22.89,0,0,0,182.76,90H101.68a11.43,11.43,0,0,0-11.43,11.43v60.32a22.58,22.58,0,0,1,11.43-3.18h5.72v-5.71A22.85,22.85,0,0,1,130.25,130h240a22.85,22.85,0,0,1,22.85,22.86v5.71h5.72a22.58,22.58,0,0,1,11.43,3.18V130A11.43,11.43,0,0,0,398.82,118.57Z" transform="translate(0 0)"/></svg>