<svg xmlns="http://www.w3.org/2000/svg" version="1.1" xmlns:xlink="http://www.w3.org/1999/xlink" width="512" height="512" x="0" y="0" viewBox="0 0 25.4 25.4" style="enable-background:new 0 0 512 512" xml:space="preserve" class=""><g><path fill-rule="evenodd" d="M7.42 1.59a1.6 1.6 0 0 0-1.59 1.591v3.708H4.238c-.872 0-1.588.72-1.588 1.591v13.25c0 1.165.953 2.12 2.118 2.12h16.43c.872 0 1.59-.719 1.59-1.59V3.18c0-.872-.718-1.59-1.59-1.59zm0 1.06H21.2c.302 0 .53.228.53.531v19.078c0 .303-.228.53-.53.53H6.6c.182-.312.288-.674.288-1.06V3.181c0-.303.228-.53.531-.53zM10.6 5.3c-.871 0-1.59.718-1.59 1.59v1.06c0 .872.719 1.59 1.59 1.59h1.061c.872 0 1.588-.718 1.588-1.59V6.89c0-.872-.716-1.59-1.588-1.59zm4.24.53c-.723-.017-.723 1.076 0 1.06h4.241c.723.016.723-1.077 0-1.06zm-4.24.53h1.061c.303 0 .528.227.528.53v1.06c0 .303-.225.53-.528.53h-1.06a.518.518 0 0 1-.53-.53V6.89c0-.303.227-.53.53-.53zM4.24 7.95h1.59v13.78c0 .596-.464 1.06-1.06 1.06a1.045 1.045 0 0 1-1.058-1.06V8.48c0-.303.225-.53.528-.53zm10.6 0c-.707 0-.707 1.06 0 1.06h2.122c.707 0 .707-1.06 0-1.06zm-4.238 2.65c-.872 0-1.59.717-1.59 1.589v1.06c0 .872.718 1.59 1.59 1.59h1.06c.872 0 1.588-.718 1.588-1.59v-1.06c0-.872-.716-1.588-1.588-1.588zm8.51.53-4.272.001c-.752-.048-.752 1.106 0 1.058h4.242c.731.048.763-1.065.03-1.059zm-8.51.531h1.06c.303 0 .528.225.528.528v1.06c0 .303-.225.53-.528.53h-1.06a.518.518 0 0 1-.53-.53v-1.06c0-.303.227-.528.53-.528zm4.238 1.588c-.69.016-.69 1.045 0 1.06h2.122c.722.016.722-1.076 0-1.06zm-2.13 3.175a.53.53 0 0 0-.363.16l-1.748 1.746-.684-.685c-.5-.52-1.27.25-.75.75l1.061 1.06a.53.53 0 0 0 .75 0l2.12-2.121a.53.53 0 0 0-.385-.91zm2.13.006c-.707 0-.707 1.06 0 1.06h4.242c.707 0 .707-1.06 0-1.06zm0 2.12c-.707 0-.707 1.061 0 1.061h2.122c.707 0 .707-1.06 0-1.06z" paint-order="stroke fill markers" fill="#2c83ec" opacity="1" data-original="#000000" class=""></path></g></svg>