<svg id="Layer_1" data-name="Layer 1" xmlns="http://www.w3.org/2000/svg" viewBox="0 0 499.5 499.5"><defs><style>.cls-1{fill:#2c83ec;}.cls-2{fill:#fff;}</style></defs><rect class="cls-1" width="499.5" height="499.5" rx="40.34"/><path class="cls-2" d="M346,310.63A87.34,87.34,0,0,0,260,236H240.53a87.34,87.34,0,0,0-86,74.62l-9.33,65.24a13.7,13.7,0,0,0,3.9,11.64c3.66,3.66,26.11,22.32,101.18,22.32s97.46-18.59,101.18-22.32a13.73,13.73,0,0,0,3.89-11.64Z" transform="translate(-0.5 0.02)"/><path class="cls-2" d="M169,246.08a104.3,104.3,0,0,0-32.57,62l-6.77,46.84c-54.34-.37-70.8-20.13-73.55-24.15a13.56,13.56,0,0,1-2.38-10.25l4-22.69A74.86,74.86,0,0,1,169,246.08Z" transform="translate(-0.5 0.02)"/><path class="cls-2" d="M446.76,320.54a13.56,13.56,0,0,1-2.38,10.25c-2.75,4-19.21,23.78-73.55,24.15l-6.77-46.84a104.3,104.3,0,0,0-32.57-62,74.89,74.89,0,0,1,111.24,51.77Z" transform="translate(-0.5 0.02)"/><path class="cls-2" d="M172.12,205.82a49.64,49.64,0,0,1-40.8,21,50.32,50.32,0,1,1,30.19-90.57,88,88,0,0,0-2.74,22A91.63,91.63,0,0,0,172.12,205.82Z" transform="translate(-0.5 0.02)"/><path class="cls-2" d="M419.49,176.55a50.27,50.27,0,0,1-50.24,50.31h-.07a49.64,49.64,0,0,1-40.8-21,91.63,91.63,0,0,0,13.35-47.57,88,88,0,0,0-2.74-22,50.32,50.32,0,0,1,80.5,40.26Z" transform="translate(-0.5 0.02)"/><circle class="cls-2" cx="249.75" cy="158.27" r="68.61"/></svg>