<?xml version="1.0" encoding="UTF-8"?>
<svg id="Layer_2" data-name="Layer 2" xmlns="http://www.w3.org/2000/svg" xmlns:xlink="http://www.w3.org/1999/xlink" viewBox="0 0 150.4 149.29">
  <defs>
    <style>
      .cls-1 {
        fill: url(#linear-gradient);
      }

      .cls-1, .cls-2, .cls-3 {
        isolation: isolate;
        opacity: .5;
      }

      .cls-2 {
        fill: url(#linear-gradient-3);
      }

      .cls-3 {
        fill: url(#linear-gradient-2);
      }

      .cls-4 {
        fill: #f0efee;
      }

      .cls-5 {
        fill: #2c83ec;
      }
    </style>
    <linearGradient id="linear-gradient" x1="-356.45" y1="467.23" x2="-569.53" y2="670.93" gradientTransform="translate(564 658.84) scale(1 -1)" gradientUnits="userSpaceOnUse">
      <stop offset="0" stop-color="#fff"/>
      <stop offset="1" stop-color="#000"/>
    </linearGradient>
    <linearGradient id="linear-gradient-2" x1="-370.28" y1="453.2" x2="-583.05" y2="656.6" xlink:href="#linear-gradient"/>
    <linearGradient id="linear-gradient-3" x1="-408.95" y1="517.45" x2="-532.56" y2="635.55" gradientTransform="translate(564 658.84) scale(1 -1)" gradientUnits="userSpaceOnUse">
      <stop offset="0" stop-color="#fff" stop-opacity="0"/>
      <stop offset="1" stop-color="#000"/>
    </linearGradient>
  </defs>
  <g id="Layer_1-2" data-name="Layer 1">
    <g id="Layer_2-2" data-name="Layer 2">
      <g id="Layer_7" data-name="Layer 7">
        <rect class="cls-5" width="149.29" height="149.29" rx="20.38" ry="20.38"/>
        <polygon class="cls-4" points="48.91 32.2 48.81 31.69 19.46 31.69 19.46 37.6 48.61 31.79 48.91 32.2"/>
        <polygon class="cls-1" points="64.3 47.49 48.91 32.2 55.94 54.42 64.3 47.49"/>
        <polygon class="cls-3" points="19.46 37.7 19.46 37.6 19.16 37.7 49.93 68.48 56.56 99.25 43.92 37.7 19.46 37.7"/>
        <path class="cls-2" d="m126.15,42.19h0l-10.19,56.86h-59.41l8.15,8.25h1.22c4.73.08,8.49,3.98,8.41,8.71-.08,4.73-3.98,8.49-8.71,8.41-2.03-.04-3.99-.79-5.51-2.14h0l47.08,26.8h17.12c7.35.44,14.61-1.85,20.38-6.42,8.46-7.34,4.99-32.51,4.99-32.51v-10.9l-23.54-57.07Zm-19.16,82.44c-4.76,0-8.61-3.86-8.61-8.61s3.86-8.61,8.61-8.61,8.61,3.86,8.61,8.61-3.86,8.61-8.61,8.61Z"/>
        <path class="cls-4" d="m65.93,107.4h-1.22c-4.21.61-7.33,4.21-7.34,8.46.06,4.74,3.92,8.56,8.66,8.56,4.76,0,8.61-3.86,8.61-8.61s-3.86-8.61-8.61-8.61h0l-.1.2Z"/>
        <circle class="cls-4" cx="107.1" cy="115.96" r="8.66"/>
        <polygon class="cls-4" points="126.15 42.39 126.15 42.39 70.41 42.39 64.3 47.49 55.94 54.42 48.91 32.2 48.61 31.79 19.46 37.6 19.46 37.7 43.92 37.7 56.56 99.25 115.56 99.25 126.15 42.39"/>
      </g>
    </g>
  </g>
</svg>