<?xml version="1.0" encoding="UTF-8"?>
<svg id="Layer_2" data-name="Layer 2" xmlns="http://www.w3.org/2000/svg" xmlns:xlink="http://www.w3.org/1999/xlink" viewBox="0 0 149.49 149.29">
  <defs>
    <style>
      .cls-1 {
        fill: url(#linear-gradient);
        isolation: isolate;
        opacity: .5;
      }

      .cls-2 {
        fill: #fff;
      }

      .cls-3 {
        fill: #2c83ec;
      }
    </style>
    <linearGradient id="linear-gradient" x1="-415.09" y1="494.5" x2="-532.48" y2="635.83" gradientTransform="translate(564 658.84) scale(1 -1)" gradientUnits="userSpaceOnUse">
      <stop offset="0" stop-color="#fff" stop-opacity="0"/>
      <stop offset="1" stop-color="#000"/>
    </linearGradient>
  </defs>
  <g id="Layer_1-2" data-name="Layer 1">
    <g id="Layer_2-2" data-name="Layer 2">
      <g id="Layer_2-2" data-name="Layer 2-2">
        <rect class="cls-3" x="0" width="149.29" height="149.29" rx="20.38" ry="20.38"/>
        <path class="cls-1" d="m39.44,96.81h35.16v-32.51l-27.41-10.19,8.87-22.11,32.1-12.23,61.14,37.6v66.24c.87,6.82-1.08,13.7-5.4,19.06-4.15,3.99-9.64,6.28-15.39,6.42h-58.7l-45.04-26.8,14.47-18.34.2-7.13Z"/>
        <path class="cls-2" d="m126.15,117.39h0c1.28-12.88-8.12-24.36-21-25.64-.13-.01-.27-.03-.4-.04-11.31-2.34-21.5-2.75-17.43-17.93,5.5-3.97,6.73-12.23,13.45-14.88.45-3.65.45-7.35,0-11.01,0-1.53-3.06-.92-3.36-2.45,0-8.46,2.75-20.38-3.06-24.86l-1.32-.61-1.32-.41h-3.26c-.77.14-1.57.14-2.34,0-1.39-.64-2.54-1.71-3.26-3.06-.65-1.16-1.65-2.08-2.85-2.65h-4.18c-5.05,2.31-10.46,3.72-16,4.18h-.92c-2.61.82-4.77,2.66-6.01,5.1-1.55,3.95-2.21,8.2-1.94,12.43v9.17c-2.4,1.55-3.76,4.28-3.57,7.13-.06,1.69.19,3.38.71,4.99.82,2.65,3.36,3.46,5.4,6.01,2.04,2.55,4.08,7.03,6.32,9.38.65.8,1.54,1.38,2.55,1.63v10.19c-.72,1.06-1.58,2.02-2.55,2.85-9.27,7.74-28.23,4.38-34.24,16-1.33,4.55-2.15,9.23-2.45,13.96h0v1.53h0c.11,1.43.61,2.8,1.43,3.97h0c.97,1.29,2.14,2.43,3.46,3.36,6.64,4.35,14.15,7.2,22.01,8.36h0c7.97,1.46,16.05,2.18,24.15,2.14h5.4s29.96-1.43,37.6-8.25c3.12-1.51,5.73-3.88,7.54-6.83.51-.87.82-1.85.92-2.85h0l.51-.92Z"/>
      </g>
    </g>
  </g>
</svg>