<svg id="Layer_1" data-name="Layer 1" xmlns="http://www.w3.org/2000/svg" viewBox="0 0 512 472.3"><defs><style>.cls-1{fill:#2c83ec;}</style></defs><path class="cls-1" d="M142.4,249h95.5A142.39,142.39,0,0,1,380.3,391.4V432a60.2,60.2,0,0,1-60.2,60.2H60.1A60.24,60.24,0,0,1,0,432V391.4A142.39,142.39,0,0,1,142.4,249Z" transform="translate(0 -19.9)"/><circle class="cls-1" cx="190.2" cy="101.3" r="101.3"/><path class="cls-1" d="M512,197.2A28.81,28.81,0,0,1,483.2,226H450.4v.11H392.8V226H360a28.8,28.8,0,0,1,0-57.6H483.2A28.81,28.81,0,0,1,512,197.2Z" transform="translate(0 -19.9)"/></svg>