<?xml version="1.0" encoding="UTF-8"?>
<svg id="Layer_2" data-name="Layer 2" xmlns="http://www.w3.org/2000/svg" xmlns:xlink="http://www.w3.org/1999/xlink" viewBox="0 0 149.54 149.83">
  <defs>
    <style>
      .cls-1 {
        fill: url(#linear-gradient);
      }

      .cls-1, .cls-2, .cls-3 {
        isolation: isolate;
        opacity: .5;
      }

      .cls-2 {
        fill: url(#linear-gradient-3);
      }

      .cls-3 {
        fill: url(#linear-gradient-2);
      }

      .cls-4 {
        fill: #efeeed;
      }

      .cls-5 {
        fill: #2c83ec;
      }
    </style>
    <linearGradient id="linear-gradient" x1="-393.07" y1="150.76" x2="-527.59" y2="291.59" gradientTransform="translate(564 301.23) scale(1 -1)" gradientUnits="userSpaceOnUse">
      <stop offset="0" stop-color="#fff" stop-opacity="0"/>
      <stop offset="1" stop-color="#000"/>
    </linearGradient>
    <linearGradient id="linear-gradient-2" x1="-310.67" y1="125.45" x2="-514.07" y2="338.22" gradientTransform="translate(564 301.23) scale(1 -1)" gradientUnits="userSpaceOnUse">
      <stop offset="0" stop-color="#fff"/>
      <stop offset="1" stop-color="#000"/>
    </linearGradient>
    <linearGradient id="linear-gradient-3" x1="-500.85" y1="239.03" x2="-469.26" y2="198.47" xlink:href="#linear-gradient-2"/>
  </defs>
  <g id="Layer_1-2" data-name="Layer 1">
    <g id="Layer_2-2" data-name="Layer 2">
      <g id="Layer_7" data-name="Layer 7">
        <rect class="cls-5" y="0" width="149.29" height="149.29" rx="20.38" ry="20.38"/>
        <polygon class="cls-4" points="119.02 21.91 118.72 22.32 119.53 22.93 119.02 21.91"/>
        <path class="cls-1" d="m138.89,36.48s-21.5,4.28-22.11,4.28l10.19-11.41,11.72,6.83-13.35-8.56-28.84,32c-.79.78-2.06.78-2.85,0h0l-1.94,1.53.92.92-13.35,11.11c2.06,2.29,2.06,5.76,0,8.05-2.29,2.48-6.16,2.64-8.64.35-2.48-2.29-2.64-6.16-.35-8.64,1.97-2.14,5.18-2.59,7.66-1.08l10.19-14.47.82.92,1.53-1.63h0c-.82-.78-.85-2.07-.07-2.88.02-.03.05-.05.07-.07l4.48-4.89v-2.55l-6.01,6.62c-13.13-8.09-30.33-4.02-38.42,9.11s-4.02,30.33,9.11,38.42c13.13,8.09,30.33,4.02,38.42-9.11,5.73-9.3,5.52-21.08-.55-30.17l6.01-6.52c12.5,15.95,9.7,39.01-6.24,51.5-14.1,11.05-34.12,10.3-47.36-1.77l45.14,45.04h22.32c8.82,1.39,17.83-.57,25.27-5.5,5.28-5.87,7.71-13.78,6.62-21.6v-28.43l-10.39-57.37Zm-49.42,54.11c-7.42,8.47-20.29,9.32-28.76,1.9-8.47-7.42-9.32-20.29-1.9-28.76,6.31-7.2,16.77-9.04,25.16-4.43h0l-3.46,6.22h0c-6.37-3.23-14.16-.69-17.4,5.69-3.23,6.37-.69,14.16,5.69,17.4,6.37,3.23,14.16.69,17.4-5.69,2.09-4.12,1.83-9.04-.69-12.91l6.22-3.77c4.75,7.71,3.83,17.64-2.24,24.35Z"/>
        <polygon class="cls-3" points="116.78 20.69 107.2 31.28 106.9 35.26 118.72 22.32 116.78 20.69"/>
        <path class="cls-2" d="m74.08,77.45l1.73-2.55c-1.02-.54-2.27-.33-3.06.51-.86,1.04-.71,2.58.33,3.44,1.04.86,2.58.71,3.44-.33.75-.9.75-2.21,0-3.12l-2.45,2.04Z"/>
        <path class="cls-4" d="m116.78,40.76c.71-.71,22.11-4.59,22.11-4.59l-11.72-6.83-10.39,11.41Z"/>
        <path class="cls-4" d="m109.24,9.48v2.75l-1.63,19.06,9.58-10.19-7.95-11.62Z"/>
        <path class="cls-4" d="m101.9,101.9c12.02-13.23,12.75-33.21,1.73-47.28l-6.11,6.52c8.89,12.67,5.83,30.15-6.84,39.04-12.67,8.89-30.15,5.83-39.04-6.84-8.89-12.67-5.83-30.15,6.84-39.04,8.87-6.23,20.55-6.78,29.97-1.41l6.01-6.62c-17.09-10.88-39.77-5.84-50.64,11.25-10.88,17.09-5.84,39.77,11.25,50.64,15.05,9.58,34.82,6.94,46.83-6.26Z"/>
        <path class="cls-4" d="m85.39,70.01c3.9,5.99,2.2,14.01-3.79,17.91-5.99,3.9-14.01,2.2-17.91-3.79s-2.2-14.01,3.79-17.91c3.87-2.52,8.79-2.78,12.91-.69h0l3.46-6.22c-10.07-5.03-22.31-.95-27.34,9.11-5.03,10.07-.95,22.31,9.11,27.34s22.31.95,27.34-9.11c3.27-6.54,2.79-14.33-1.27-20.41l-6.32,3.77Z"/>
        <path class="cls-4" d="m121.06,26.29l-1.53-3.36-.82-.71-11.82,13.04-12.43,13.55-4.48,4.89c-.82.78-.85,2.07-.07,2.88.02.03.05.05.07.07h0l-1.53,1.63-.82-.92-10.19,14.47c-2.88-1.76-6.65-.85-8.4,2.03-1.76,2.88-.85,6.65,2.03,8.4,2.88,1.76,6.65.85,8.4-2.03,1.36-2.23,1.16-5.07-.51-7.08l14.06-10.8-1.32-1.22,1.53-1.63h0c.79.78,2.06.78,2.85,0l29.04-31.69-4.08-1.53Zm-44.63,52.48c-.93,1.01-2.5,1.08-3.52.15-1.01-.93-1.08-2.5-.15-3.52h0c.79-.84,2.04-1.05,3.06-.51l-1.73,2.55,2.45-1.94c.8.95.76,2.36-.1,3.26Z"/>
      </g>
    </g>
  </g>
</svg>