<svg xmlns="http://www.w3.org/2000/svg" xmlns:xlink="http://www.w3.org/1999/xlink" viewBox="0 0 14.65 14.65"><defs><style>.cls-1{isolation:isolate;}.cls-2{fill:#cd4e0e;}.cls-3,.cls-4{opacity:0.5;mix-blend-mode:multiply;}.cls-3{fill:url(#linear-gradient);}.cls-4{fill:url(#linear-gradient-2);}.cls-5{fill:#f0efee;}</style><linearGradient id="linear-gradient" x1="14.2" y1="16.28" x2="3.56" y2="3.45" gradientUnits="userSpaceOnUse"><stop offset="0" stop-color="#fff"/><stop offset="1"/></linearGradient><linearGradient id="linear-gradient-2" x1="20.22" y1="17.89" x2="5.36" y2="2.65" xlink:href="#linear-gradient"/></defs><title>Asset 3</title><g class="cls-1"><g id="Layer_2" data-name="Layer 2"><g id="Layer_2-2" data-name="Layer 2"><rect class="cls-2" width="14.65" height="14.65" rx="2" ry="2"/><path class="cls-3" d="M3.94,9.54l.51.17.79-.81.62-1.2s-.67-2.4,0-3.4A3.51,3.51,0,0,1,9.28,2.88c1.37.4,5.35,4.67,5.35,4.67v4.6A2.46,2.46,0,0,1,14.12,14a2.25,2.25,0,0,1-1.5.63l-7,0L3.15,12.21l.77-2Z"/><path class="cls-4" d="M6.18,7.2a2.59,2.59,0,0,0,.73.74A2.65,2.65,0,1,0,6,7C6.08,7,6.13,7.12,6.18,7.2Z"/><polygon class="cls-5" points="10.15 3.08 10.15 3.08 10.15 3.08 10.15 3.08"/><path class="cls-5" d="M10.64,3.48a3.62,3.62,0,0,0-.49-.4L11,4A3.82,3.82,0,0,0,10.64,3.48Z"/><path class="cls-5" d="M11,4l-.89-.89h0a3.2,3.2,0,0,0-4.53,4.3L2,11l1.18,1.18L6.82,8.54A3.2,3.2,0,0,0,11,4Zm-.8,3.65a2.67,2.67,0,0,1-3.33.33,2.59,2.59,0,0,1-.73-.74C6.13,7.12,6.08,7,6,7a2.64,2.64,0,1,1,4.2.65Z"/></g></g></g></svg>