<svg xmlns="http://www.w3.org/2000/svg" xmlns:xlink="http://www.w3.org/1999/xlink" width="360" zoomAndPan="magnify" viewBox="0 0 270 128.249994" height="171" preserveAspectRatio="xMidYMid meet" version="1.0"><defs><g/><clipPath id="05793b4745"><path d="M 0.859375 0 L 269.214844 0 L 269.214844 127.503906 L 0.859375 127.503906 Z M 0.859375 0 " clip-rule="nonzero"/></clipPath><clipPath id="33bb7db679"><path d="M 6.824219 0 L 263.25 0 C 266.542969 0 269.214844 2.671875 269.214844 5.964844 L 269.214844 121.539062 C 269.214844 124.832031 266.542969 127.503906 263.25 127.503906 L 6.824219 127.503906 C 3.527344 127.503906 0.859375 124.832031 0.859375 121.539062 L 0.859375 5.964844 C 0.859375 2.671875 3.527344 0 6.824219 0 Z M 6.824219 0 " clip-rule="nonzero"/></clipPath><clipPath id="228878225f"><path d="M 0.859375 0 L 269.210938 0 L 269.210938 118.386719 L 0.859375 118.386719 Z M 0.859375 0 " clip-rule="nonzero"/></clipPath><clipPath id="e11f53a432"><path d="M 4.589844 0 L 265.480469 0 C 266.46875 0 267.417969 0.394531 268.117188 1.09375 C 268.816406 1.792969 269.210938 2.738281 269.210938 3.726562 L 269.210938 114.433594 C 269.210938 115.425781 268.816406 116.371094 268.117188 117.070312 C 267.417969 117.769531 266.46875 118.164062 265.480469 118.164062 L 4.589844 118.164062 C 3.601562 118.164062 2.652344 117.769531 1.953125 117.070312 C 1.253906 116.371094 0.863281 115.425781 0.863281 114.433594 L 0.863281 3.726562 C 0.863281 2.738281 1.253906 1.792969 1.953125 1.09375 C 2.652344 0.394531 3.601562 0 4.589844 0 Z M 4.589844 0 " clip-rule="nonzero"/></clipPath><clipPath id="903995df12"><path d="M 0.859375 84.421875 L 269.214844 84.421875 L 269.214844 127.503906 L 0.859375 127.503906 Z M 0.859375 84.421875 " clip-rule="nonzero"/></clipPath><clipPath id="7f92cdf3a7"><path d="M 0.859375 84.421875 L 269.214844 84.421875 L 269.214844 97.050781 L 0.859375 97.050781 Z M 0.859375 84.421875 " clip-rule="nonzero"/></clipPath><clipPath id="c6f3d51fe2"><path d="M 13.113281 11.726562 L 105 11.726562 L 105 76 L 13.113281 76 Z M 13.113281 11.726562 " clip-rule="nonzero"/></clipPath><clipPath id="9bef0184ab"><path d="M 243 35 L 256.871094 35 L 256.871094 62 L 243 62 Z M 243 35 " clip-rule="nonzero"/></clipPath></defs><g clip-path="url(#05793b4745)"><g clip-path="url(#33bb7db679)"><path fill="#ffffff" d="M 0.859375 0 L 269.3125 0 L 269.3125 127.503906 L 0.859375 127.503906 Z M 0.859375 0 " fill-opacity="1" fill-rule="nonzero"/></g></g><g clip-path="url(#228878225f)"><g clip-path="url(#e11f53a432)"><path stroke-linecap="butt" transform="matrix(0.745437, 0, 0, 0.745437, 0.863084, -0.00000198837)" fill="none" stroke-linejoin="miter" d="M 4.999426 0.00000266739 L 354.982672 0.00000266739 C 356.308446 0.00000266739 357.581817 0.529264 358.519815 1.467262 C 359.457813 2.40526 359.987074 3.673391 359.987074 4.999164 L 359.987074 153.511999 C 359.987074 154.843012 359.457813 156.111144 358.519815 157.049142 C 357.581817 157.987139 356.308446 158.516401 354.982672 158.516401 L 4.999426 158.516401 C 3.673653 158.516401 2.400281 157.987139 1.462283 157.049142 C 0.529526 156.111144 0.000264449 154.843012 0.000264449 153.511999 L 0.000264449 4.999164 C 0.000264449 3.673391 0.529526 2.40526 1.462283 1.467262 C 2.400281 0.529264 3.673653 0.00000266739 4.999426 0.00000266739 Z M 4.999426 0.00000266739 " stroke="#2c83ec" stroke-width="4.001084" stroke-opacity="1" stroke-miterlimit="4"/></g></g><g clip-path="url(#903995df12)"><path fill="#2c83ec" d="M 0.859375 84.421875 L 269.285156 84.421875 L 269.285156 127.503906 L 0.859375 127.503906 Z M 0.859375 84.421875 " fill-opacity="1" fill-rule="nonzero"/></g><g clip-path="url(#7f92cdf3a7)"><path fill="#2c83ec" d="M 0.859375 84.421875 L 269.199219 84.421875 L 269.199219 97.050781 L 0.859375 97.050781 Z M 0.859375 84.421875 " fill-opacity="1" fill-rule="nonzero"/></g><g clip-path="url(#c6f3d51fe2)"><path fill="#2c83ec" d="M 103.136719 27.476562 C 97.710938 12.335938 73.40625 7.230469 48.847656 16.066406 C 24.289062 24.90625 8.773438 44.34375 14.191406 59.480469 C 19.613281 74.613281 43.921875 79.726562 68.480469 70.886719 C 75.210938 68.464844 81.265625 65.25 86.390625 61.539062 C 88.15625 60.269531 89.84375 58.902344 91.460938 57.445312 C 91.375 57.445312 91.289062 57.445312 91.199219 57.445312 C 90.382812 57.449219 89.574219 57.355469 88.777344 57.167969 C 87.417969 58.449219 85.996094 59.660156 84.507812 60.792969 C 79.738281 64.457031 74.0625 67.609375 67.726562 69.890625 C 45.210938 78 22.863281 72.027344 17.894531 58.148438 C 12.921875 44.269531 26.753906 25.195312 49.273438 17.082031 C 71.789062 8.972656 94.464844 14.925781 99.433594 28.8125 C 100.421875 31.566406 100.652344 34.53125 100.214844 37.578125 C 99.910156 39.605469 99.367188 41.570312 98.582031 43.464844 C 98.640625 43.566406 98.703125 43.667969 98.757812 43.773438 C 99.394531 44.984375 99.75 46.269531 99.820312 47.636719 C 101.234375 45.398438 102.34375 43.019531 103.148438 40.496094 C 104.535156 36.035156 104.609375 31.597656 103.136719 27.476562 Z M 103.136719 27.476562 " fill-opacity="1" fill-rule="nonzero"/></g><path fill="#333333" d="M 48.761719 50.488281 C 47.730469 49.234375 46.417969 48.476562 44.820312 48.214844 C 46.28125 47.78125 47.453125 47.035156 48.332031 45.984375 C 49.210938 44.929688 49.652344 43.621094 49.652344 42.058594 C 49.671875 40.75 49.3125 39.558594 48.578125 38.480469 C 47.863281 37.425781 46.804688 36.605469 45.410156 36.015625 C 44.015625 35.425781 42.359375 35.128906 40.4375 35.128906 L 28.738281 35.128906 L 28.738281 61.992188 L 40.960938 61.992188 C 42.882812 61.992188 44.550781 61.683594 45.957031 61.070312 C 47.367188 60.449219 48.445312 59.601562 49.1875 58.503906 C 49.929688 57.40625 50.304688 56.148438 50.304688 54.71875 C 50.316406 53.113281 49.800781 51.703125 48.761719 50.488281 Z M 34.421875 39.480469 L 39.621094 39.480469 C 40.976562 39.480469 42.019531 39.773438 42.746094 40.367188 C 43.476562 40.953125 43.84375 41.789062 43.84375 42.867188 C 43.84375 43.945312 43.476562 44.769531 42.746094 45.347656 C 42.015625 45.925781 40.976562 46.214844 39.621094 46.214844 L 34.421875 46.214844 Z M 43.378906 56.679688 C 42.605469 57.296875 41.53125 57.605469 40.148438 57.605469 L 34.417969 57.605469 L 34.417969 50.371094 L 40.027344 50.371094 C 41.40625 50.371094 42.503906 50.695312 43.316406 51.347656 C 44.128906 51.996094 44.535156 52.902344 44.535156 54.058594 C 44.535156 55.191406 44.148438 56.066406 43.378906 56.679688 Z M 43.378906 56.679688 " fill-opacity="1" fill-rule="nonzero"/><path fill="#333333" d="M 67.847656 51.101562 C 69.988281 50.5625 71.597656 49.582031 72.683594 48.15625 C 73.167969 47.519531 73.546875 46.824219 73.820312 46.074219 C 74.097656 45.320312 74.253906 44.546875 74.296875 43.746094 C 74.339844 42.945312 74.261719 42.15625 74.066406 41.382812 C 73.871094 40.605469 73.566406 39.875 73.148438 39.191406 C 72.378906 37.945312 71.222656 36.957031 69.675781 36.226562 C 68.128906 35.496094 66.261719 35.128906 64.070312 35.128906 L 53.429688 35.128906 L 53.429688 61.988281 L 59.117188 61.988281 L 59.117188 51.523438 L 61.796875 51.523438 L 68.050781 61.992188 L 74.632812 61.992188 Z M 63.867188 47.484375 L 59.113281 47.484375 L 59.113281 39.597656 L 63.867188 39.597656 C 65.410156 39.597656 66.5625 39.933594 67.320312 40.613281 C 68.078125 41.292969 68.457031 42.25 68.457031 43.480469 C 68.457031 44.738281 68.078125 45.722656 67.320312 46.425781 C 66.566406 47.128906 65.414062 47.484375 63.867188 47.484375 Z M 63.867188 47.484375 " fill-opacity="1" fill-rule="nonzero"/><path fill="#333333" d="M 103.773438 41.421875 C 103.574219 41.101562 103.367188 40.792969 103.148438 40.492188 C 102.324219 39.363281 101.347656 38.390625 100.214844 37.574219 C 99.679688 37.179688 99.121094 36.828125 98.53125 36.515625 C 96.324219 35.335938 93.878906 34.746094 91.199219 34.742188 C 88.546875 34.742188 86.109375 35.335938 83.886719 36.515625 C 81.679688 37.667969 79.921875 39.304688 78.609375 41.421875 C 77.3125 43.515625 76.660156 45.867188 76.660156 48.484375 C 76.660156 51.128906 77.3125 53.496094 78.609375 55.585938 C 79.921875 57.703125 81.679688 59.339844 83.886719 60.488281 C 84.09375 60.601562 84.300781 60.703125 84.511719 60.800781 C 85.121094 61.089844 85.746094 61.339844 86.390625 61.539062 C 87.953125 62.03125 89.558594 62.273438 91.199219 62.261719 C 93.855469 62.261719 96.292969 61.671875 98.511719 60.488281 C 100.71875 59.34375 102.472656 57.707031 103.773438 55.585938 C 105.058594 53.492188 105.699219 51.128906 105.699219 48.484375 C 105.699219 45.867188 105.058594 43.515625 103.773438 41.421875 Z M 98.757812 53.21875 C 98.046875 54.566406 97.03125 55.609375 95.710938 56.355469 C 94.476562 57.050781 93.058594 57.414062 91.460938 57.445312 C 91.371094 57.445312 91.285156 57.445312 91.199219 57.445312 C 90.378906 57.453125 89.570312 57.359375 88.773438 57.167969 C 88.035156 56.992188 87.335938 56.71875 86.671875 56.351562 C 85.339844 55.613281 84.316406 54.566406 83.605469 53.214844 C 82.875 51.855469 82.507812 50.277344 82.507812 48.480469 C 82.507812 46.6875 82.875 45.113281 83.605469 43.769531 C 84.316406 42.425781 85.339844 41.394531 86.671875 40.667969 C 87.984375 39.953125 89.492188 39.59375 91.199219 39.59375 C 92.90625 39.59375 94.410156 39.953125 95.710938 40.667969 C 96.921875 41.335938 97.878906 42.265625 98.578125 43.460938 C 98.640625 43.5625 98.703125 43.664062 98.753906 43.769531 C 99.394531 44.976562 99.75 46.265625 99.820312 47.632812 C 99.84375 47.910156 99.851562 48.191406 99.851562 48.488281 C 99.851562 50.28125 99.488281 51.859375 98.757812 53.21875 Z M 98.757812 53.21875 " fill-opacity="1" fill-rule="nonzero"/><path fill="#333333" d="M 119.671875 48.445312 L 131.371094 35.128906 L 124.511719 35.128906 L 114.191406 47.183594 L 114.191406 35.128906 L 108.503906 35.128906 L 108.503906 61.992188 L 114.191406 61.992188 L 114.191406 50.019531 L 124.503906 61.992188 L 131.695312 61.992188 Z M 119.671875 48.445312 " fill-opacity="1" fill-rule="nonzero"/><path fill="#333333" d="M 150.457031 39.480469 L 150.457031 35.089844 L 134.015625 35.089844 L 134.015625 61.992188 L 150.46875 61.992188 L 150.46875 57.605469 L 139.707031 57.605469 L 139.707031 50.488281 L 149.253906 50.488281 L 149.253906 46.210938 L 139.695312 46.210938 L 139.695312 39.480469 Z M 150.457031 39.480469 " fill-opacity="1" fill-rule="nonzero"/><path fill="#333333" d="M 168.613281 51.101562 C 170.75 50.5625 172.363281 49.582031 173.449219 48.15625 C 173.933594 47.519531 174.3125 46.824219 174.585938 46.070312 C 174.859375 45.320312 175.019531 44.542969 175.058594 43.746094 C 175.101562 42.945312 175.023438 42.15625 174.828125 41.382812 C 174.632812 40.605469 174.328125 39.875 173.914062 39.191406 C 173.140625 37.945312 171.984375 36.957031 170.441406 36.226562 C 168.898438 35.496094 167.03125 35.128906 164.835938 35.128906 L 154.191406 35.128906 L 154.191406 61.988281 L 159.878906 61.988281 L 159.878906 51.523438 L 162.5625 51.523438 L 168.816406 61.992188 L 175.398438 61.992188 Z M 164.632812 47.484375 L 159.878906 47.484375 L 159.878906 39.597656 L 164.632812 39.597656 C 166.179688 39.597656 167.328125 39.933594 168.085938 40.613281 C 168.84375 41.292969 169.222656 42.25 169.222656 43.480469 C 169.222656 44.738281 168.84375 45.722656 168.085938 46.425781 C 167.332031 47.128906 166.175781 47.484375 164.632812 47.484375 Z M 164.632812 47.484375 " fill-opacity="1" fill-rule="nonzero"/><path fill="#333333" d="M 197.882812 58.355469 C 196.21875 59.367188 194.207031 59.875 191.851562 59.875 C 189.765625 59.875 187.890625 59.414062 186.226562 58.492188 C 184.53125 57.554688 183.226562 56.234375 182.308594 54.527344 C 181.351562 52.804688 180.875 50.804688 180.878906 48.527344 C 180.878906 46.246094 181.355469 44.238281 182.300781 42.5 C 183.214844 40.785156 184.523438 39.460938 186.21875 38.519531 C 187.886719 37.597656 189.761719 37.132812 191.84375 37.132812 C 194.199219 37.132812 196.210938 37.648438 197.875 38.671875 C 199.566406 39.703125 200.804688 41.128906 201.59375 42.949219 L 204.921875 42.949219 C 203.894531 40.355469 202.25 38.347656 199.988281 36.925781 C 197.730469 35.503906 195.015625 34.789062 191.84375 34.789062 C 189.246094 34.789062 186.886719 35.371094 184.777344 36.539062 C 182.652344 37.699219 180.988281 39.328125 179.777344 41.425781 C 178.558594 43.519531 177.949219 45.886719 177.949219 48.527344 C 177.949219 51.171875 178.558594 53.53125 179.777344 55.605469 C 180.992188 57.699219 182.65625 59.320312 184.777344 60.476562 C 186.886719 61.644531 189.246094 62.226562 191.84375 62.226562 C 194.984375 62.226562 197.695312 61.523438 199.96875 60.109375 C 202.246094 58.699219 203.894531 56.710938 204.921875 54.144531 L 201.59375 54.144531 C 200.800781 55.941406 199.5625 57.34375 197.882812 58.355469 Z M 197.882812 58.355469 " fill-opacity="1" fill-rule="nonzero"/><path fill="#333333" d="M 223.972656 37.289062 L 223.972656 35.054688 L 209.148438 35.054688 L 209.148438 61.992188 L 223.972656 61.992188 L 223.972656 59.765625 L 211.988281 59.765625 L 211.988281 49.5625 L 222.753906 49.5625 L 222.753906 47.328125 L 211.988281 47.328125 L 211.988281 37.289062 Z M 223.972656 37.289062 " fill-opacity="1" fill-rule="nonzero"/><path fill="#333333" d="M 231 59.796875 L 231 35.089844 L 228.15625 35.089844 L 228.15625 61.992188 L 241.199219 61.992188 L 241.199219 59.792969 Z M 231 59.796875 " fill-opacity="1" fill-rule="nonzero"/><g clip-path="url(#9bef0184ab)"><path fill="#333333" d="M 246.675781 59.796875 L 246.675781 35.089844 L 243.828125 35.089844 L 243.828125 61.992188 L 256.871094 61.992188 L 256.871094 59.792969 Z M 246.675781 59.796875 " fill-opacity="1" fill-rule="nonzero"/></g><g fill="#000000" fill-opacity="1"><g transform="translate(109.861102, 23.688513)"><g><path d="M 3.96875 0.09375 C 3.351562 0.09375 2.800781 -0.015625 2.3125 -0.234375 C 1.832031 -0.453125 1.453125 -0.753906 1.171875 -1.140625 C 0.898438 -1.523438 0.765625 -1.96875 0.765625 -2.46875 L 2.046875 -2.46875 C 2.085938 -2.039062 2.265625 -1.675781 2.578125 -1.375 C 2.898438 -1.082031 3.363281 -0.9375 3.96875 -0.9375 C 4.539062 -0.9375 4.992188 -1.078125 5.328125 -1.359375 C 5.660156 -1.648438 5.828125 -2.019531 5.828125 -2.46875 C 5.828125 -2.820312 5.726562 -3.109375 5.53125 -3.328125 C 5.332031 -3.554688 5.085938 -3.726562 4.796875 -3.84375 C 4.503906 -3.957031 4.109375 -4.082031 3.609375 -4.21875 C 3.003906 -4.375 2.515625 -4.53125 2.140625 -4.6875 C 1.773438 -4.851562 1.460938 -5.101562 1.203125 -5.4375 C 0.941406 -5.78125 0.8125 -6.242188 0.8125 -6.828125 C 0.8125 -7.328125 0.9375 -7.769531 1.1875 -8.15625 C 1.445312 -8.550781 1.8125 -8.851562 2.28125 -9.0625 C 2.75 -9.28125 3.28125 -9.390625 3.875 -9.390625 C 4.75 -9.390625 5.460938 -9.171875 6.015625 -8.734375 C 6.566406 -8.296875 6.878906 -7.71875 6.953125 -7 L 5.625 -7 C 5.582031 -7.363281 5.394531 -7.675781 5.0625 -7.9375 C 4.738281 -8.207031 4.304688 -8.34375 3.765625 -8.34375 C 3.253906 -8.34375 2.835938 -8.210938 2.515625 -7.953125 C 2.203125 -7.691406 2.046875 -7.328125 2.046875 -6.859375 C 2.046875 -6.523438 2.140625 -6.25 2.328125 -6.03125 C 2.523438 -5.820312 2.757812 -5.660156 3.03125 -5.546875 C 3.3125 -5.441406 3.707031 -5.316406 4.21875 -5.171875 C 4.820312 -5.003906 5.3125 -4.835938 5.6875 -4.671875 C 6.0625 -4.503906 6.378906 -4.25 6.640625 -3.90625 C 6.910156 -3.570312 7.046875 -3.113281 7.046875 -2.53125 C 7.046875 -2.070312 6.925781 -1.644531 6.6875 -1.25 C 6.445312 -0.851562 6.09375 -0.53125 5.625 -0.28125 C 5.15625 -0.03125 4.601562 0.09375 3.96875 0.09375 Z M 3.96875 0.09375 "/></g></g></g><g fill="#000000" fill-opacity="1"><g transform="translate(117.663399, 23.688513)"><g><path d="M 2.234375 -8.28125 L 2.234375 -5.1875 L 5.609375 -5.1875 L 5.609375 -4.1875 L 2.234375 -4.1875 L 2.234375 -1 L 6.015625 -1 L 6.015625 0 L 1.03125 0 L 1.03125 -9.28125 L 6.015625 -9.28125 L 6.015625 -8.28125 Z M 2.234375 -8.28125 "/></g></g></g><g fill="#000000" fill-opacity="1"><g transform="translate(124.48211, 23.688513)"><g><path d="M 2.234375 -8.28125 L 2.234375 -5.1875 L 5.609375 -5.1875 L 5.609375 -4.1875 L 2.234375 -4.1875 L 2.234375 -1 L 6.015625 -1 L 6.015625 0 L 1.03125 0 L 1.03125 -9.28125 L 6.015625 -9.28125 L 6.015625 -8.28125 Z M 2.234375 -8.28125 "/></g></g></g><g fill="#000000" fill-opacity="1"><g transform="translate(131.300822, 23.688513)"><g/></g></g><g fill="#000000" fill-opacity="1"><g transform="translate(134.849735, 23.688513)"><g><path d="M 6.5 -2.0625 L 2.453125 -2.0625 L 1.71875 0 L 0.4375 0 L 3.796875 -9.21875 L 5.1875 -9.21875 L 8.515625 0 L 7.25 0 Z M 6.15625 -3.046875 L 4.484375 -7.71875 L 2.8125 -3.046875 Z M 6.15625 -3.046875 "/></g></g></g><g fill="#000000" fill-opacity="1"><g transform="translate(143.808429, 23.688513)"><g><path d="M 2.234375 -0.984375 L 5.484375 -0.984375 L 5.484375 0 L 1.03125 0 L 1.03125 -9.265625 L 2.234375 -9.265625 Z M 2.234375 -0.984375 "/></g></g></g><g fill="#000000" fill-opacity="1"><g transform="translate(149.550501, 23.688513)"><g><path d="M 2.234375 -0.984375 L 5.484375 -0.984375 L 5.484375 0 L 1.03125 0 L 1.03125 -9.265625 L 2.234375 -9.265625 Z M 2.234375 -0.984375 "/></g></g></g><g fill="#000000" fill-opacity="1"><g transform="translate(155.292572, 23.688513)"><g/></g></g><g fill="#000000" fill-opacity="1"><g transform="translate(158.841485, 23.688513)"><g><path d="M 2.234375 -9.265625 L 2.234375 0 L 1.03125 0 L 1.03125 -9.265625 Z M 2.234375 -9.265625 "/></g></g></g><g fill="#000000" fill-opacity="1"><g transform="translate(162.111271, 23.688513)"><g><path d="M 8.3125 0 L 7.09375 0 L 2.234375 -7.375 L 2.234375 0 L 1.03125 0 L 1.03125 -9.28125 L 2.234375 -9.28125 L 7.09375 -1.921875 L 7.09375 -9.28125 L 8.3125 -9.28125 Z M 8.3125 0 "/></g></g></g><g fill="#000000" fill-opacity="1"><g transform="translate(171.455419, 23.688513)"><g><path d="M 8.6875 -9.265625 L 5.1875 0 L 3.796875 0 L 0.296875 -9.265625 L 1.578125 -9.265625 L 4.5 -1.28125 L 7.40625 -9.265625 Z M 8.6875 -9.265625 "/></g></g></g><g fill="#000000" fill-opacity="1"><g transform="translate(180.440695, 23.688513)"><g><path d="M 2.234375 -8.28125 L 2.234375 -5.1875 L 5.609375 -5.1875 L 5.609375 -4.1875 L 2.234375 -4.1875 L 2.234375 -1 L 6.015625 -1 L 6.015625 0 L 1.03125 0 L 1.03125 -9.28125 L 6.015625 -9.28125 L 6.015625 -8.28125 Z M 2.234375 -8.28125 "/></g></g></g><g fill="#000000" fill-opacity="1"><g transform="translate(187.259407, 23.688513)"><g><path d="M 8.3125 0 L 7.09375 0 L 2.234375 -7.375 L 2.234375 0 L 1.03125 0 L 1.03125 -9.28125 L 2.234375 -9.28125 L 7.09375 -1.921875 L 7.09375 -9.28125 L 8.3125 -9.28125 Z M 8.3125 0 "/></g></g></g><g fill="#000000" fill-opacity="1"><g transform="translate(196.603555, 23.688513)"><g><path d="M 6.734375 -9.265625 L 6.734375 -8.28125 L 4.203125 -8.28125 L 4.203125 0 L 2.984375 0 L 2.984375 -8.28125 L 0.453125 -8.28125 L 0.453125 -9.265625 Z M 6.734375 -9.265625 "/></g></g></g><g fill="#000000" fill-opacity="1"><g transform="translate(203.794435, 23.688513)"><g><path d="M 5.21875 0.09375 C 4.363281 0.09375 3.582031 -0.101562 2.875 -0.5 C 2.164062 -0.90625 1.601562 -1.46875 1.1875 -2.1875 C 0.78125 -2.914062 0.578125 -3.734375 0.578125 -4.640625 C 0.578125 -5.546875 0.78125 -6.359375 1.1875 -7.078125 C 1.601562 -7.804688 2.164062 -8.367188 2.875 -8.765625 C 3.582031 -9.171875 4.363281 -9.375 5.21875 -9.375 C 6.09375 -9.375 6.882812 -9.171875 7.59375 -8.765625 C 8.300781 -8.367188 8.859375 -7.8125 9.265625 -7.09375 C 9.671875 -6.375 9.875 -5.554688 9.875 -4.640625 C 9.875 -3.722656 9.671875 -2.90625 9.265625 -2.1875 C 8.859375 -1.46875 8.300781 -0.90625 7.59375 -0.5 C 6.882812 -0.101562 6.09375 0.09375 5.21875 0.09375 Z M 5.21875 -0.953125 C 5.875 -0.953125 6.457031 -1.101562 6.96875 -1.40625 C 7.488281 -1.707031 7.894531 -2.132812 8.1875 -2.6875 C 8.488281 -3.25 8.640625 -3.898438 8.640625 -4.640625 C 8.640625 -5.378906 8.488281 -6.023438 8.1875 -6.578125 C 7.894531 -7.140625 7.488281 -7.570312 6.96875 -7.875 C 6.457031 -8.175781 5.875 -8.328125 5.21875 -8.328125 C 4.5625 -8.328125 3.976562 -8.175781 3.46875 -7.875 C 2.957031 -7.570312 2.550781 -7.140625 2.25 -6.578125 C 1.957031 -6.023438 1.8125 -5.378906 1.8125 -4.640625 C 1.8125 -3.898438 1.957031 -3.25 2.25 -2.6875 C 2.550781 -2.132812 2.957031 -1.707031 3.46875 -1.40625 C 3.988281 -1.101562 4.570312 -0.953125 5.21875 -0.953125 Z M 5.21875 -0.953125 "/></g></g></g><g fill="#000000" fill-opacity="1"><g transform="translate(214.241804, 23.688513)"><g><path d="M 5.90625 0 L 3.703125 -3.796875 L 2.234375 -3.796875 L 2.234375 0 L 1.03125 0 L 1.03125 -9.265625 L 4.015625 -9.265625 C 4.710938 -9.265625 5.300781 -9.144531 5.78125 -8.90625 C 6.269531 -8.664062 6.632812 -8.34375 6.875 -7.9375 C 7.113281 -7.53125 7.234375 -7.066406 7.234375 -6.546875 C 7.234375 -5.898438 7.046875 -5.332031 6.671875 -4.84375 C 6.304688 -4.363281 5.757812 -4.039062 5.03125 -3.875 L 7.359375 0 Z M 2.234375 -4.765625 L 4.015625 -4.765625 C 4.671875 -4.765625 5.160156 -4.925781 5.484375 -5.25 C 5.816406 -5.570312 5.984375 -6.003906 5.984375 -6.546875 C 5.984375 -7.085938 5.820312 -7.507812 5.5 -7.8125 C 5.175781 -8.113281 4.679688 -8.265625 4.015625 -8.265625 L 2.234375 -8.265625 Z M 2.234375 -4.765625 "/></g></g></g><g fill="#000000" fill-opacity="1"><g transform="translate(222.32324, 23.688513)"><g><path d="M 7.515625 -9.265625 L 4.5 -3.5 L 4.5 0 L 3.28125 0 L 3.28125 -3.5 L 0.25 -9.265625 L 1.59375 -9.265625 L 3.875 -4.578125 L 6.171875 -9.265625 Z M 7.515625 -9.265625 "/></g></g></g><g fill="#000000" fill-opacity="1"><g transform="translate(230.085671, 23.688513)"><g/></g></g><g fill="#000000" fill-opacity="1"><g transform="translate(233.634584, 23.688513)"><g><path d="M 5.21875 0.09375 C 4.363281 0.09375 3.582031 -0.101562 2.875 -0.5 C 2.164062 -0.90625 1.601562 -1.46875 1.1875 -2.1875 C 0.78125 -2.914062 0.578125 -3.734375 0.578125 -4.640625 C 0.578125 -5.546875 0.78125 -6.359375 1.1875 -7.078125 C 1.601562 -7.804688 2.164062 -8.367188 2.875 -8.765625 C 3.582031 -9.171875 4.363281 -9.375 5.21875 -9.375 C 6.09375 -9.375 6.882812 -9.171875 7.59375 -8.765625 C 8.300781 -8.367188 8.859375 -7.8125 9.265625 -7.09375 C 9.671875 -6.375 9.875 -5.554688 9.875 -4.640625 C 9.875 -3.722656 9.671875 -2.90625 9.265625 -2.1875 C 8.859375 -1.46875 8.300781 -0.90625 7.59375 -0.5 C 6.882812 -0.101562 6.09375 0.09375 5.21875 0.09375 Z M 5.21875 -0.953125 C 5.875 -0.953125 6.457031 -1.101562 6.96875 -1.40625 C 7.488281 -1.707031 7.894531 -2.132812 8.1875 -2.6875 C 8.488281 -3.25 8.640625 -3.898438 8.640625 -4.640625 C 8.640625 -5.378906 8.488281 -6.023438 8.1875 -6.578125 C 7.894531 -7.140625 7.488281 -7.570312 6.96875 -7.875 C 6.457031 -8.175781 5.875 -8.328125 5.21875 -8.328125 C 4.5625 -8.328125 3.976562 -8.175781 3.46875 -7.875 C 2.957031 -7.570312 2.550781 -7.140625 2.25 -6.578125 C 1.957031 -6.023438 1.8125 -5.378906 1.8125 -4.640625 C 1.8125 -3.898438 1.957031 -3.25 2.25 -2.6875 C 2.550781 -2.132812 2.957031 -1.707031 3.46875 -1.40625 C 3.988281 -1.101562 4.570312 -0.953125 5.21875 -0.953125 Z M 5.21875 -0.953125 "/></g></g></g><g fill="#000000" fill-opacity="1"><g transform="translate(244.081953, 23.688513)"><g><path d="M 8.3125 0 L 7.09375 0 L 2.234375 -7.375 L 2.234375 0 L 1.03125 0 L 1.03125 -9.28125 L 2.234375 -9.28125 L 7.09375 -1.921875 L 7.09375 -9.28125 L 8.3125 -9.28125 Z M 8.3125 0 "/></g></g></g><g fill="#ffffff" fill-opacity="1"><g transform="translate(16.391451, 113.063232)"><g><path d="M 14.390625 -11.796875 L 14.390625 0 L 11.515625 0 L 11.515625 -7.078125 L 8.890625 0 L 6.5625 0 L 3.90625 -7.09375 L 3.90625 0 L 1.046875 0 L 1.046875 -11.796875 L 4.4375 -11.796875 L 7.75 -3.625 L 11.015625 -11.796875 Z M 14.390625 -11.796875 "/></g></g></g><g fill="#ffffff" fill-opacity="1"><g transform="translate(32.137109, 113.063232)"><g><path d="M 9.875 -4.84375 C 9.875 -4.570312 9.859375 -4.289062 9.828125 -4 L 3.328125 -4 C 3.367188 -3.414062 3.554688 -2.96875 3.890625 -2.65625 C 4.222656 -2.351562 4.628906 -2.203125 5.109375 -2.203125 C 5.828125 -2.203125 6.320312 -2.503906 6.59375 -3.109375 L 9.65625 -3.109375 C 9.5 -2.492188 9.21875 -1.9375 8.8125 -1.4375 C 8.40625 -0.945312 7.890625 -0.5625 7.265625 -0.28125 C 6.648438 0 5.960938 0.140625 5.203125 0.140625 C 4.285156 0.140625 3.46875 -0.0546875 2.75 -0.453125 C 2.03125 -0.847656 1.46875 -1.40625 1.0625 -2.125 C 0.664062 -2.851562 0.46875 -3.707031 0.46875 -4.6875 C 0.46875 -5.65625 0.664062 -6.503906 1.0625 -7.234375 C 1.457031 -7.960938 2.015625 -8.519531 2.734375 -8.90625 C 3.453125 -9.300781 4.273438 -9.5 5.203125 -9.5 C 6.109375 -9.5 6.914062 -9.304688 7.625 -8.921875 C 8.332031 -8.546875 8.882812 -8.003906 9.28125 -7.296875 C 9.675781 -6.597656 9.875 -5.78125 9.875 -4.84375 Z M 6.9375 -5.59375 C 6.9375 -6.082031 6.765625 -6.472656 6.421875 -6.765625 C 6.085938 -7.054688 5.671875 -7.203125 5.171875 -7.203125 C 4.691406 -7.203125 4.285156 -7.0625 3.953125 -6.78125 C 3.617188 -6.5 3.414062 -6.101562 3.34375 -5.59375 Z M 6.9375 -5.59375 "/></g></g></g><g fill="#ffffff" fill-opacity="1"><g transform="translate(42.813352, 113.063232)"><g><path d="M 13 -9.46875 C 14.164062 -9.46875 15.09375 -9.113281 15.78125 -8.40625 C 16.46875 -7.707031 16.8125 -6.726562 16.8125 -5.46875 L 16.8125 0 L 13.953125 0 L 13.953125 -5.09375 C 13.953125 -5.695312 13.789062 -6.160156 13.46875 -6.484375 C 13.15625 -6.816406 12.71875 -6.984375 12.15625 -6.984375 C 11.601562 -6.984375 11.164062 -6.816406 10.84375 -6.484375 C 10.519531 -6.160156 10.359375 -5.695312 10.359375 -5.09375 L 10.359375 0 L 7.515625 0 L 7.515625 -5.09375 C 7.515625 -5.695312 7.351562 -6.160156 7.03125 -6.484375 C 6.707031 -6.816406 6.265625 -6.984375 5.703125 -6.984375 C 5.148438 -6.984375 4.710938 -6.816406 4.390625 -6.484375 C 4.066406 -6.160156 3.90625 -5.695312 3.90625 -5.09375 L 3.90625 0 L 1.046875 0 L 1.046875 -9.375 L 3.90625 -9.375 L 3.90625 -8.203125 C 4.195312 -8.585938 4.578125 -8.894531 5.046875 -9.125 C 5.523438 -9.351562 6.0625 -9.46875 6.65625 -9.46875 C 7.351562 -9.46875 7.976562 -9.316406 8.53125 -9.015625 C 9.09375 -8.710938 9.53125 -8.28125 9.84375 -7.71875 C 10.164062 -8.238281 10.609375 -8.660156 11.171875 -8.984375 C 11.734375 -9.304688 12.34375 -9.46875 13 -9.46875 Z M 13 -9.46875 "/></g></g></g><g fill="#ffffff" fill-opacity="1"><g transform="translate(60.925851, 113.063232)"><g><path d="M 3.90625 -8.046875 C 4.175781 -8.484375 4.5625 -8.832031 5.0625 -9.09375 C 5.570312 -9.363281 6.148438 -9.5 6.796875 -9.5 C 7.578125 -9.5 8.28125 -9.300781 8.90625 -8.90625 C 9.53125 -8.519531 10.023438 -7.960938 10.390625 -7.234375 C 10.753906 -6.503906 10.9375 -5.660156 10.9375 -4.703125 C 10.9375 -3.742188 10.753906 -2.894531 10.390625 -2.15625 C 10.023438 -1.425781 9.53125 -0.859375 8.90625 -0.453125 C 8.28125 -0.0546875 7.578125 0.140625 6.796875 0.140625 C 6.140625 0.140625 5.5625 0.0078125 5.0625 -0.25 C 4.570312 -0.519531 4.1875 -0.875 3.90625 -1.3125 L 3.90625 0 L 1.046875 0 L 1.046875 -12.421875 L 3.90625 -12.421875 Z M 8.015625 -4.703125 C 8.015625 -5.421875 7.8125 -5.984375 7.40625 -6.390625 C 7.007812 -6.796875 6.523438 -7 5.953125 -7 C 5.378906 -7 4.890625 -6.789062 4.484375 -6.375 C 4.085938 -5.96875 3.890625 -5.40625 3.890625 -4.6875 C 3.890625 -3.96875 4.085938 -3.398438 4.484375 -2.984375 C 4.890625 -2.578125 5.378906 -2.375 5.953125 -2.375 C 6.515625 -2.375 7 -2.582031 7.40625 -3 C 7.8125 -3.414062 8.015625 -3.984375 8.015625 -4.703125 Z M 8.015625 -4.703125 "/></g></g></g><g fill="#ffffff" fill-opacity="1"><g transform="translate(72.659625, 113.063232)"><g><path d="M 9.875 -4.84375 C 9.875 -4.570312 9.859375 -4.289062 9.828125 -4 L 3.328125 -4 C 3.367188 -3.414062 3.554688 -2.96875 3.890625 -2.65625 C 4.222656 -2.351562 4.628906 -2.203125 5.109375 -2.203125 C 5.828125 -2.203125 6.320312 -2.503906 6.59375 -3.109375 L 9.65625 -3.109375 C 9.5 -2.492188 9.21875 -1.9375 8.8125 -1.4375 C 8.40625 -0.945312 7.890625 -0.5625 7.265625 -0.28125 C 6.648438 0 5.960938 0.140625 5.203125 0.140625 C 4.285156 0.140625 3.46875 -0.0546875 2.75 -0.453125 C 2.03125 -0.847656 1.46875 -1.40625 1.0625 -2.125 C 0.664062 -2.851562 0.46875 -3.707031 0.46875 -4.6875 C 0.46875 -5.65625 0.664062 -6.503906 1.0625 -7.234375 C 1.457031 -7.960938 2.015625 -8.519531 2.734375 -8.90625 C 3.453125 -9.300781 4.273438 -9.5 5.203125 -9.5 C 6.109375 -9.5 6.914062 -9.304688 7.625 -8.921875 C 8.332031 -8.546875 8.882812 -8.003906 9.28125 -7.296875 C 9.675781 -6.597656 9.875 -5.78125 9.875 -4.84375 Z M 6.9375 -5.59375 C 6.9375 -6.082031 6.765625 -6.472656 6.421875 -6.765625 C 6.085938 -7.054688 5.671875 -7.203125 5.171875 -7.203125 C 4.691406 -7.203125 4.285156 -7.0625 3.953125 -6.78125 C 3.617188 -6.5 3.414062 -6.101562 3.34375 -5.59375 Z M 6.9375 -5.59375 "/></g></g></g><g fill="#ffffff" fill-opacity="1"><g transform="translate(83.335872, 113.063232)"><g><path d="M 3.90625 -7.8125 C 4.25 -8.320312 4.671875 -8.722656 5.171875 -9.015625 C 5.671875 -9.316406 6.234375 -9.46875 6.859375 -9.46875 L 6.859375 -6.4375 L 6.0625 -6.4375 C 5.34375 -6.4375 4.800781 -6.28125 4.4375 -5.96875 C 4.082031 -5.664062 3.90625 -5.125 3.90625 -4.34375 L 3.90625 0 L 1.046875 0 L 1.046875 -9.375 L 3.90625 -9.375 Z M 3.90625 -7.8125 "/></g></g></g><g fill="#ffffff" fill-opacity="1"><g transform="translate(90.856332, 113.063232)"><g/></g></g><g fill="#ffffff" fill-opacity="1"><g transform="translate(94.750984, 113.063232)"><g><path d="M 5.3125 0.140625 C 4.394531 0.140625 3.566406 -0.0546875 2.828125 -0.453125 C 2.097656 -0.847656 1.519531 -1.40625 1.09375 -2.125 C 0.675781 -2.851562 0.46875 -3.707031 0.46875 -4.6875 C 0.46875 -5.644531 0.679688 -6.488281 1.109375 -7.21875 C 1.535156 -7.957031 2.117188 -8.519531 2.859375 -8.90625 C 3.597656 -9.300781 4.425781 -9.5 5.34375 -9.5 C 6.257812 -9.5 7.085938 -9.300781 7.828125 -8.90625 C 8.566406 -8.519531 9.148438 -7.957031 9.578125 -7.21875 C 10.003906 -6.488281 10.21875 -5.644531 10.21875 -4.6875 C 10.21875 -3.71875 10 -2.867188 9.5625 -2.140625 C 9.132812 -1.410156 8.546875 -0.847656 7.796875 -0.453125 C 7.054688 -0.0546875 6.226562 0.140625 5.3125 0.140625 Z M 5.3125 -2.34375 C 5.851562 -2.34375 6.316406 -2.546875 6.703125 -2.953125 C 7.097656 -3.359375 7.296875 -3.9375 7.296875 -4.6875 C 7.296875 -5.4375 7.109375 -6.007812 6.734375 -6.40625 C 6.359375 -6.8125 5.894531 -7.015625 5.34375 -7.015625 C 4.78125 -7.015625 4.3125 -6.816406 3.9375 -6.421875 C 3.570312 -6.023438 3.390625 -5.445312 3.390625 -4.6875 C 3.390625 -3.9375 3.570312 -3.359375 3.9375 -2.953125 C 4.300781 -2.546875 4.757812 -2.34375 5.3125 -2.34375 Z M 5.3125 -2.34375 "/></g></g></g><g fill="#ffffff" fill-opacity="1"><g transform="translate(105.779746, 113.063232)"><g><path d="M 5.75 -6.984375 L 4.203125 -6.984375 L 4.203125 0 L 1.328125 0 L 1.328125 -6.984375 L 0.28125 -6.984375 L 0.28125 -9.375 L 1.328125 -9.375 L 1.328125 -9.640625 C 1.328125 -10.796875 1.65625 -11.671875 2.3125 -12.265625 C 2.976562 -12.867188 3.945312 -13.171875 5.21875 -13.171875 C 5.4375 -13.171875 5.59375 -13.164062 5.6875 -13.15625 L 5.6875 -10.71875 C 5.144531 -10.75 4.757812 -10.671875 4.53125 -10.484375 C 4.3125 -10.296875 4.203125 -9.953125 4.203125 -9.453125 L 4.203125 -9.375 L 5.75 -9.375 Z M 5.75 -6.984375 "/></g></g></g><g fill="#ffffff" fill-opacity="1"><g transform="translate(112.158744, 113.063232)"><g/></g></g><g fill="#ffffff" fill-opacity="1"><g transform="translate(116.053396, 113.063232)"><g><path d="M 8.1875 -6.046875 C 8.863281 -5.898438 9.410156 -5.5625 9.828125 -5.03125 C 10.242188 -4.5 10.453125 -3.890625 10.453125 -3.203125 C 10.453125 -2.222656 10.101562 -1.441406 9.40625 -0.859375 C 8.71875 -0.285156 7.757812 0 6.53125 0 L 1.046875 0 L 1.046875 -11.796875 L 6.34375 -11.796875 C 7.539062 -11.796875 8.476562 -11.519531 9.15625 -10.96875 C 9.832031 -10.414062 10.171875 -9.671875 10.171875 -8.734375 C 10.171875 -8.035156 9.988281 -7.457031 9.625 -7 C 9.269531 -6.539062 8.789062 -6.222656 8.1875 -6.046875 Z M 3.90625 -7.015625 L 5.796875 -7.015625 C 6.265625 -7.015625 6.625 -7.117188 6.875 -7.328125 C 7.125 -7.535156 7.25 -7.84375 7.25 -8.25 C 7.25 -8.65625 7.125 -8.960938 6.875 -9.171875 C 6.625 -9.378906 6.265625 -9.484375 5.796875 -9.484375 L 3.90625 -9.484375 Z M 6.03125 -2.3125 C 6.507812 -2.3125 6.878906 -2.421875 7.140625 -2.640625 C 7.410156 -2.859375 7.546875 -3.175781 7.546875 -3.59375 C 7.546875 -4.007812 7.40625 -4.332031 7.125 -4.5625 C 6.851562 -4.800781 6.476562 -4.921875 6 -4.921875 L 3.90625 -4.921875 L 3.90625 -2.3125 Z M 6.03125 -2.3125 "/></g></g></g><g fill="#ffffff" fill-opacity="1"><g transform="translate(127.451453, 113.063232)"><g><path d="M 3.90625 -7.8125 C 4.25 -8.320312 4.671875 -8.722656 5.171875 -9.015625 C 5.671875 -9.316406 6.234375 -9.46875 6.859375 -9.46875 L 6.859375 -6.4375 L 6.0625 -6.4375 C 5.34375 -6.4375 4.800781 -6.28125 4.4375 -5.96875 C 4.082031 -5.664062 3.90625 -5.125 3.90625 -4.34375 L 3.90625 0 L 1.046875 0 L 1.046875 -9.375 L 3.90625 -9.375 Z M 3.90625 -7.8125 "/></g></g></g><g fill="#ffffff" fill-opacity="1"><g transform="translate(134.971913, 113.063232)"><g><path d="M 5.3125 0.140625 C 4.394531 0.140625 3.566406 -0.0546875 2.828125 -0.453125 C 2.097656 -0.847656 1.519531 -1.40625 1.09375 -2.125 C 0.675781 -2.851562 0.46875 -3.707031 0.46875 -4.6875 C 0.46875 -5.644531 0.679688 -6.488281 1.109375 -7.21875 C 1.535156 -7.957031 2.117188 -8.519531 2.859375 -8.90625 C 3.597656 -9.300781 4.425781 -9.5 5.34375 -9.5 C 6.257812 -9.5 7.085938 -9.300781 7.828125 -8.90625 C 8.566406 -8.519531 9.148438 -7.957031 9.578125 -7.21875 C 10.003906 -6.488281 10.21875 -5.644531 10.21875 -4.6875 C 10.21875 -3.71875 10 -2.867188 9.5625 -2.140625 C 9.132812 -1.410156 8.546875 -0.847656 7.796875 -0.453125 C 7.054688 -0.0546875 6.226562 0.140625 5.3125 0.140625 Z M 5.3125 -2.34375 C 5.851562 -2.34375 6.316406 -2.546875 6.703125 -2.953125 C 7.097656 -3.359375 7.296875 -3.9375 7.296875 -4.6875 C 7.296875 -5.4375 7.109375 -6.007812 6.734375 -6.40625 C 6.359375 -6.8125 5.894531 -7.015625 5.34375 -7.015625 C 4.78125 -7.015625 4.3125 -6.816406 3.9375 -6.421875 C 3.570312 -6.023438 3.390625 -5.445312 3.390625 -4.6875 C 3.390625 -3.9375 3.570312 -3.359375 3.9375 -2.953125 C 4.300781 -2.546875 4.757812 -2.34375 5.3125 -2.34375 Z M 5.3125 -2.34375 "/></g></g></g><g fill="#ffffff" fill-opacity="1"><g transform="translate(146.000668, 113.063232)"><g><path d="M 6.765625 0 L 3.90625 -3.9375 L 3.90625 0 L 1.046875 0 L 1.046875 -12.421875 L 3.90625 -12.421875 L 3.90625 -5.5625 L 6.75 -9.375 L 10.296875 -9.375 L 6.40625 -4.671875 L 10.328125 0 Z M 6.765625 0 "/></g></g></g><g fill="#ffffff" fill-opacity="1"><g transform="translate(156.710482, 113.063232)"><g><path d="M 9.875 -4.84375 C 9.875 -4.570312 9.859375 -4.289062 9.828125 -4 L 3.328125 -4 C 3.367188 -3.414062 3.554688 -2.96875 3.890625 -2.65625 C 4.222656 -2.351562 4.628906 -2.203125 5.109375 -2.203125 C 5.828125 -2.203125 6.320312 -2.503906 6.59375 -3.109375 L 9.65625 -3.109375 C 9.5 -2.492188 9.21875 -1.9375 8.8125 -1.4375 C 8.40625 -0.945312 7.890625 -0.5625 7.265625 -0.28125 C 6.648438 0 5.960938 0.140625 5.203125 0.140625 C 4.285156 0.140625 3.46875 -0.0546875 2.75 -0.453125 C 2.03125 -0.847656 1.46875 -1.40625 1.0625 -2.125 C 0.664062 -2.851562 0.46875 -3.707031 0.46875 -4.6875 C 0.46875 -5.65625 0.664062 -6.503906 1.0625 -7.234375 C 1.457031 -7.960938 2.015625 -8.519531 2.734375 -8.90625 C 3.453125 -9.300781 4.273438 -9.5 5.203125 -9.5 C 6.109375 -9.5 6.914062 -9.304688 7.625 -8.921875 C 8.332031 -8.546875 8.882812 -8.003906 9.28125 -7.296875 C 9.675781 -6.597656 9.875 -5.78125 9.875 -4.84375 Z M 6.9375 -5.59375 C 6.9375 -6.082031 6.765625 -6.472656 6.421875 -6.765625 C 6.085938 -7.054688 5.671875 -7.203125 5.171875 -7.203125 C 4.691406 -7.203125 4.285156 -7.0625 3.953125 -6.78125 C 3.617188 -6.5 3.414062 -6.101562 3.34375 -5.59375 Z M 6.9375 -5.59375 "/></g></g></g><g fill="#ffffff" fill-opacity="1"><g transform="translate(167.386722, 113.063232)"><g><path d="M 3.90625 -7.8125 C 4.25 -8.320312 4.671875 -8.722656 5.171875 -9.015625 C 5.671875 -9.316406 6.234375 -9.46875 6.859375 -9.46875 L 6.859375 -6.4375 L 6.0625 -6.4375 C 5.34375 -6.4375 4.800781 -6.28125 4.4375 -5.96875 C 4.082031 -5.664062 3.90625 -5.125 3.90625 -4.34375 L 3.90625 0 L 1.046875 0 L 1.046875 -9.375 L 3.90625 -9.375 Z M 3.90625 -7.8125 "/></g></g></g><g fill="#ffffff" fill-opacity="1"><g transform="translate(174.907175, 113.063232)"><g><path d="M 0.546875 -5.90625 C 0.546875 -7.070312 0.796875 -8.109375 1.296875 -9.015625 C 1.804688 -9.929688 2.507812 -10.644531 3.40625 -11.15625 C 4.3125 -11.664062 5.335938 -11.921875 6.484375 -11.921875 C 7.878906 -11.921875 9.078125 -11.550781 10.078125 -10.8125 C 11.078125 -10.070312 11.742188 -9.066406 12.078125 -7.796875 L 8.921875 -7.796875 C 8.679688 -8.285156 8.34375 -8.660156 7.90625 -8.921875 C 7.476562 -9.179688 6.992188 -9.3125 6.453125 -9.3125 C 5.566406 -9.3125 4.847656 -9 4.296875 -8.375 C 3.753906 -7.757812 3.484375 -6.9375 3.484375 -5.90625 C 3.484375 -4.875 3.753906 -4.050781 4.296875 -3.4375 C 4.847656 -2.820312 5.566406 -2.515625 6.453125 -2.515625 C 6.992188 -2.515625 7.476562 -2.644531 7.90625 -2.90625 C 8.34375 -3.164062 8.679688 -3.539062 8.921875 -4.03125 L 12.078125 -4.03125 C 11.742188 -2.75 11.078125 -1.742188 10.078125 -1.015625 C 9.078125 -0.285156 7.878906 0.078125 6.484375 0.078125 C 5.335938 0.078125 4.3125 -0.171875 3.40625 -0.671875 C 2.507812 -1.179688 1.804688 -1.890625 1.296875 -2.796875 C 0.796875 -3.710938 0.546875 -4.75 0.546875 -5.90625 Z M 0.546875 -5.90625 "/></g></g></g><g fill="#ffffff" fill-opacity="1"><g transform="translate(188.034199, 113.063232)"><g><path d="M 9.875 -4.84375 C 9.875 -4.570312 9.859375 -4.289062 9.828125 -4 L 3.328125 -4 C 3.367188 -3.414062 3.554688 -2.96875 3.890625 -2.65625 C 4.222656 -2.351562 4.628906 -2.203125 5.109375 -2.203125 C 5.828125 -2.203125 6.320312 -2.503906 6.59375 -3.109375 L 9.65625 -3.109375 C 9.5 -2.492188 9.21875 -1.9375 8.8125 -1.4375 C 8.40625 -0.945312 7.890625 -0.5625 7.265625 -0.28125 C 6.648438 0 5.960938 0.140625 5.203125 0.140625 C 4.285156 0.140625 3.46875 -0.0546875 2.75 -0.453125 C 2.03125 -0.847656 1.46875 -1.40625 1.0625 -2.125 C 0.664062 -2.851562 0.46875 -3.707031 0.46875 -4.6875 C 0.46875 -5.65625 0.664062 -6.503906 1.0625 -7.234375 C 1.457031 -7.960938 2.015625 -8.519531 2.734375 -8.90625 C 3.453125 -9.300781 4.273438 -9.5 5.203125 -9.5 C 6.109375 -9.5 6.914062 -9.304688 7.625 -8.921875 C 8.332031 -8.546875 8.882812 -8.003906 9.28125 -7.296875 C 9.675781 -6.597656 9.875 -5.78125 9.875 -4.84375 Z M 6.9375 -5.59375 C 6.9375 -6.082031 6.765625 -6.472656 6.421875 -6.765625 C 6.085938 -7.054688 5.671875 -7.203125 5.171875 -7.203125 C 4.691406 -7.203125 4.285156 -7.0625 3.953125 -6.78125 C 3.617188 -6.5 3.414062 -6.101562 3.34375 -5.59375 Z M 6.9375 -5.59375 "/></g></g></g><g fill="#ffffff" fill-opacity="1"><g transform="translate(198.710439, 113.063232)"><g><path d="M 3.90625 -12.421875 L 3.90625 0 L 1.046875 0 L 1.046875 -12.421875 Z M 3.90625 -12.421875 "/></g></g></g><g fill="#ffffff" fill-opacity="1"><g transform="translate(203.998337, 113.063232)"><g><path d="M 3.90625 -12.421875 L 3.90625 0 L 1.046875 0 L 1.046875 -12.421875 Z M 3.90625 -12.421875 "/></g></g></g><g fill="#ffffff" fill-opacity="1"><g transform="translate(209.286236, 113.063232)"><g><path d="M 2.390625 0.140625 C 1.878906 0.140625 1.460938 -0.00390625 1.140625 -0.296875 C 0.828125 -0.597656 0.671875 -0.96875 0.671875 -1.40625 C 0.671875 -1.851562 0.828125 -2.226562 1.140625 -2.53125 C 1.460938 -2.832031 1.878906 -2.984375 2.390625 -2.984375 C 2.878906 -2.984375 3.28125 -2.832031 3.59375 -2.53125 C 3.914062 -2.226562 4.078125 -1.851562 4.078125 -1.40625 C 4.078125 -0.96875 3.914062 -0.597656 3.59375 -0.296875 C 3.28125 -0.00390625 2.878906 0.140625 2.390625 0.140625 Z M 2.390625 0.140625 "/></g></g></g><g fill="#ffffff" fill-opacity="1"><g transform="translate(214.355918, 113.063232)"><g><path d="M 0.46875 -4.6875 C 0.46875 -5.65625 0.664062 -6.503906 1.0625 -7.234375 C 1.457031 -7.960938 2.007812 -8.519531 2.71875 -8.90625 C 3.4375 -9.300781 4.253906 -9.5 5.171875 -9.5 C 6.347656 -9.5 7.332031 -9.191406 8.125 -8.578125 C 8.914062 -7.960938 9.429688 -7.097656 9.671875 -5.984375 L 6.625 -5.984375 C 6.363281 -6.691406 5.863281 -7.046875 5.125 -7.046875 C 4.59375 -7.046875 4.171875 -6.84375 3.859375 -6.4375 C 3.546875 -6.03125 3.390625 -5.445312 3.390625 -4.6875 C 3.390625 -3.925781 3.546875 -3.335938 3.859375 -2.921875 C 4.171875 -2.515625 4.59375 -2.3125 5.125 -2.3125 C 5.863281 -2.3125 6.363281 -2.671875 6.625 -3.390625 L 9.671875 -3.390625 C 9.429688 -2.296875 8.910156 -1.429688 8.109375 -0.796875 C 7.316406 -0.171875 6.335938 0.140625 5.171875 0.140625 C 4.253906 0.140625 3.4375 -0.0546875 2.71875 -0.453125 C 2.007812 -0.847656 1.457031 -1.40625 1.0625 -2.125 C 0.664062 -2.851562 0.46875 -3.707031 0.46875 -4.6875 Z M 0.46875 -4.6875 "/></g></g></g><g fill="#ffffff" fill-opacity="1"><g transform="translate(224.847517, 113.063232)"><g><path d="M 5.3125 0.140625 C 4.394531 0.140625 3.566406 -0.0546875 2.828125 -0.453125 C 2.097656 -0.847656 1.519531 -1.40625 1.09375 -2.125 C 0.675781 -2.851562 0.46875 -3.707031 0.46875 -4.6875 C 0.46875 -5.644531 0.679688 -6.488281 1.109375 -7.21875 C 1.535156 -7.957031 2.117188 -8.519531 2.859375 -8.90625 C 3.597656 -9.300781 4.425781 -9.5 5.34375 -9.5 C 6.257812 -9.5 7.085938 -9.300781 7.828125 -8.90625 C 8.566406 -8.519531 9.148438 -7.957031 9.578125 -7.21875 C 10.003906 -6.488281 10.21875 -5.644531 10.21875 -4.6875 C 10.21875 -3.71875 10 -2.867188 9.5625 -2.140625 C 9.132812 -1.410156 8.546875 -0.847656 7.796875 -0.453125 C 7.054688 -0.0546875 6.226562 0.140625 5.3125 0.140625 Z M 5.3125 -2.34375 C 5.851562 -2.34375 6.316406 -2.546875 6.703125 -2.953125 C 7.097656 -3.359375 7.296875 -3.9375 7.296875 -4.6875 C 7.296875 -5.4375 7.109375 -6.007812 6.734375 -6.40625 C 6.359375 -6.8125 5.894531 -7.015625 5.34375 -7.015625 C 4.78125 -7.015625 4.3125 -6.816406 3.9375 -6.421875 C 3.570312 -6.023438 3.390625 -5.445312 3.390625 -4.6875 C 3.390625 -3.9375 3.570312 -3.359375 3.9375 -2.953125 C 4.300781 -2.546875 4.757812 -2.34375 5.3125 -2.34375 Z M 5.3125 -2.34375 "/></g></g></g><g fill="#ffffff" fill-opacity="1"><g transform="translate(235.876272, 113.063232)"><g><path d="M 13 -9.46875 C 14.164062 -9.46875 15.09375 -9.113281 15.78125 -8.40625 C 16.46875 -7.707031 16.8125 -6.726562 16.8125 -5.46875 L 16.8125 0 L 13.953125 0 L 13.953125 -5.09375 C 13.953125 -5.695312 13.789062 -6.160156 13.46875 -6.484375 C 13.15625 -6.816406 12.71875 -6.984375 12.15625 -6.984375 C 11.601562 -6.984375 11.164062 -6.816406 10.84375 -6.484375 C 10.519531 -6.160156 10.359375 -5.695312 10.359375 -5.09375 L 10.359375 0 L 7.515625 0 L 7.515625 -5.09375 C 7.515625 -5.695312 7.351562 -6.160156 7.03125 -6.484375 C 6.707031 -6.816406 6.265625 -6.984375 5.703125 -6.984375 C 5.148438 -6.984375 4.710938 -6.816406 4.390625 -6.484375 C 4.066406 -6.160156 3.90625 -5.695312 3.90625 -5.09375 L 3.90625 0 L 1.046875 0 L 1.046875 -9.375 L 3.90625 -9.375 L 3.90625 -8.203125 C 4.195312 -8.585938 4.578125 -8.894531 5.046875 -9.125 C 5.523438 -9.351562 6.0625 -9.46875 6.65625 -9.46875 C 7.351562 -9.46875 7.976562 -9.316406 8.53125 -9.015625 C 9.09375 -8.710938 9.53125 -8.28125 9.84375 -7.71875 C 10.164062 -8.238281 10.609375 -8.660156 11.171875 -8.984375 C 11.734375 -9.304688 12.34375 -9.46875 13 -9.46875 Z M 13 -9.46875 "/></g></g></g></svg>