<svg xmlns="http://www.w3.org/2000/svg" xmlns:xlink="http://www.w3.org/1999/xlink" viewBox="0 0 14.67 14.65"><defs><style>.cls-1{isolation:isolate;}.cls-2{fill:#cd4e0e;}.cls-3{opacity:0.5;mix-blend-mode:multiply;fill:url(#linear-gradient);}.cls-4{fill:#ececeb;}</style><linearGradient id="linear-gradient" x1="14.96" y1="15.27" x2="6.05" y2="4.53" gradientUnits="userSpaceOnUse"><stop offset="0" stop-color="#fff"/><stop offset="1"/></linearGradient></defs><title>Asset 1</title><g class="cls-1"><g id="Layer_2" data-name="Layer 2"><g id="Layer_2-2" data-name="Layer 2"><rect class="cls-2" width="14.65" height="14.65" rx="2" ry="2"/><path class="cls-3" d="M13.42,1.74,6.79,9,5.31,7.41,5,7.69,6.51,9.32l-1,1.2L3.69,8.73l-.23.19,1.82,1.82L3.48,13.1l1.8,1.55h7.37A2.07,2.07,0,0,0,14.09,14a2.56,2.56,0,0,0,.58-1.38V3.82Z"/><polygon class="cls-4" points="3.17 8.63 0.84 10.43 3.48 13.1 5.28 10.74 3.45 8.92 3.17 8.63"/><polygon class="cls-4" points="12.57 0.89 4.99 7.07 4.99 7.07 5.31 7.41 6.79 8.99 13.42 1.74 12.57 0.89"/><polygon class="cls-4" points="4.71 7.4 4.71 7.4 3.37 8.41 3.69 8.73 5.48 10.52 6.51 9.32 4.98 7.69 4.71 7.4"/></g></g></g></svg>