<svg xmlns="http://www.w3.org/2000/svg" xmlns:xlink="http://www.w3.org/1999/xlink" viewBox="0 0 14.68 14.65"><defs><style>.cls-1{isolation:isolate;}.cls-2{fill:#cd4e0e;}.cls-3{opacity:0.52;mix-blend-mode:multiply;fill:url(#linear-gradient);}.cls-4{fill:#fff;}</style><linearGradient id="linear-gradient" x1="12.87" y1="14.03" x2="6.92" y2="6.86" gradientUnits="userSpaceOnUse"><stop offset="0" stop-color="#fff"/><stop offset="1"/></linearGradient></defs><title>Asset 10 1</title><g class="cls-1"><g id="Layer_2" data-name="Layer 2"><g id="Layer_7" data-name="Layer 7"><rect class="cls-2" width="14.65" height="14.65" rx="2" ry="2"/><path class="cls-3" d="M4.85,11.41,6.42,12.5l2.93,2.14h2.15A5,5,0,0,0,14,14.2c1-.79.68-2.73.68-2.73V9.13L7.54,2.7Z"/><polygon class="cls-4" points="11.88 6.3 8.88 5.87 7.54 2.7 6.2 5.87 5.09 6.03 3.2 6.3 3.2 6.31 3.2 6.31 5.37 8.42 4.85 11.41 7.54 10 10.22 11.41 9.71 8.42 11.88 6.31 11.88 6.3"/></g></g></g></svg>