<svg xmlns="http://www.w3.org/2000/svg" xmlns:xlink="http://www.w3.org/1999/xlink" viewBox="0 0 14.65 14.65"><defs><style>.cls-1{isolation:isolate;}.cls-2{fill:#cd4e0e;}.cls-3{opacity:0.5;mix-blend-mode:multiply;fill:url(#linear-gradient);}.cls-4{fill:#fff;}</style><linearGradient id="linear-gradient" x1="14.43" y1="15.84" x2="4.95" y2="4.43" gradientUnits="userSpaceOnUse"><stop offset="0" stop-color="#fff"/><stop offset="1"/></linearGradient></defs><title>Asset 9</title><g class="cls-1"><g id="Layer_2" data-name="Layer 2"><g id="Layer_2-2" data-name="Layer 2"><rect class="cls-2" width="14.65" height="14.65" rx="2" ry="2"/><path class="cls-3" d="M6.74,6.76,8.49,5.23,9.11,3.4l2-1.72,3.51,3.5v7A2.48,2.48,0,0,1,14.12,14a2.26,2.26,0,0,1-1.51.63l-7.7,0L1.74,11.45Z"/><path class="cls-4" d="M12.67,11.56a3.58,3.58,0,0,0-1-1.57A3,3,0,0,0,9.83,9L8.25,7.54l1.2-1.19a2.49,2.49,0,0,0,3.36-3h0L11,5.17,9.32,3.48l1.8-1.8A2.48,2.48,0,0,0,8.14,5L6.89,6.3l-.6-.54-.13.13-2-1.95-.34.34L5.81,6.22l.3-.3-.6.6L6,7.14,1.74,11.45,2.3,12l.74.74L7.26,8.54l1.34,1.55a2.66,2.66,0,0,0,1,2,3.52,3.52,0,0,0,1.58,1"/></g></g></g></svg>