<svg xmlns="http://www.w3.org/2000/svg" xmlns:xlink="http://www.w3.org/1999/xlink" viewBox="0 0 14.65 14.65"><defs><style>.cls-1{isolation:isolate;}.cls-2{fill:#cd4e0e;}.cls-3{opacity:0.5;mix-blend-mode:multiply;fill:url(#linear-gradient);}.cls-4{fill:#fff;}</style><linearGradient id="linear-gradient" x1="14.85" y1="15.92" x2="3.34" y2="2.05" gradientUnits="userSpaceOnUse"><stop offset="0" stop-color="#fff"/><stop offset="1"/></linearGradient></defs><title>Asset 4</title><g class="cls-1"><g id="Layer_2" data-name="Layer 2"><g id="Layer_2-2" data-name="Layer 2"><rect class="cls-2" width="14.65" height="14.65" rx="2" ry="2"/><path class="cls-3" d="M3.87,9.5l0-.71L3.85,7.6l.76-1L5.5,3.14l2.84-.87,6.29,3.36v6.5A2.48,2.48,0,0,1,14.12,14a2.26,2.26,0,0,1-1.51.63H6.85L3.59,12.38l.26-2.17Z"/><path class="cls-4" d="M10.49,6.67H4.16a.91.91,0,0,0-.91.91v4.07a.91.91,0,0,0,.91.91h6.33a.91.91,0,0,0,.91-.91V7.57A.91.91,0,0,0,10.49,6.67ZM8.34,11.5h-2L6.86,10a1.21,1.21,0,1,1,.94,0Z"/><path class="cls-4" d="M5.41,7.91H4.14V5.29a3.19,3.19,0,0,1,6.37,0H9.24a1.92,1.92,0,0,0-3.83,0Z"/></g></g></g></svg>