<?xml version="1.0" encoding="UTF-8"?>
<svg id="Layer_2" data-name="Layer 2" xmlns="http://www.w3.org/2000/svg" xmlns:xlink="http://www.w3.org/1999/xlink" viewBox="0 0 150 150">
  <defs>
    <style>
      .cls-1 {
        fill: url(#linear-gradient);
        isolation: isolate;
        opacity: .5;
      }

      .cls-2 {
        fill: #fff;
      }

      .cls-3 {
        fill: #2c83ec;
      }
    </style>
    <linearGradient id="linear-gradient" x1="-411.98" y1="138.4" x2="-529.82" y2="280.4" gradientTransform="translate(564 301.41) scale(1 -1)" gradientUnits="userSpaceOnUse">
      <stop offset="0" stop-color="#fff" stop-opacity="0"/>
      <stop offset="1" stop-color="#000"/>
    </linearGradient>
  </defs>
  <g id="Layer_1-2" data-name="Layer 1">
    <g id="Layer_2-2" data-name="Layer 2">
      <g id="Layer_2-2" data-name="Layer 2-2">
        <path class="cls-3" d="m20.48,0h109.02c11.3,0,20.47,9.17,20.47,20.47v109.05c0,11.3-9.18,20.48-20.48,20.48H20.47c-11.3,0-20.47-9.17-20.47-20.47V20.48C0,9.18,9.18,0,20.48,0Z"/>
        <path class="cls-1" d="m39.62,97.27v-7.27l-.2-12.18,7.78-10.24,9.11-35.43,29.07-8.91,64.39,34.4v66.55c.93,6.83-.96,13.74-5.22,19.15-4.17,4.01-9.68,6.31-15.46,6.45h-58.97l-33.37-23.04,2.66-22.22.2-7.27Z"/>
        <path class="cls-2" d="m107.39,68.29H42.59c-5.14,0-9.32,4.17-9.32,9.32v41.67c0,5.15,4.17,9.32,9.32,9.32h64.8c5.14,0,9.32-4.17,9.32-9.32v-41.77c-.06-5.11-4.21-9.22-9.32-9.22Zm-22.01,49.45h-20.47l5.32-15.36c-6.3-2.66-9.26-9.92-6.6-16.23,2.66-6.31,9.92-9.26,16.23-6.6s9.26,9.92,6.6,16.23c-1.26,2.98-3.62,5.35-6.6,6.6l5.53,15.36Z"/>
        <path class="cls-2" d="m55.38,80.99h-13v-26.83c1.01-18.01,16.43-31.79,34.43-30.78,16.6.93,29.85,14.18,30.78,30.78h-13c-.78-10.83-10.19-18.97-21.02-18.19-9.74.7-17.48,8.45-18.19,18.19v26.83Z"/>
      </g>
    </g>
  </g>
</svg>