<svg xmlns="http://www.w3.org/2000/svg" xmlns:xlink="http://www.w3.org/1999/xlink" viewBox="0 0 14.66 14.7"><defs><style>.cls-1{isolation:isolate;}.cls-2{fill:#cd4e0e;}.cls-3,.cls-4,.cls-5{opacity:0.5;mix-blend-mode:multiply;}.cls-3{fill:url(#linear-gradient);}.cls-4{fill:url(#linear-gradient-2);}.cls-5{fill:url(#linear-gradient-3);}.cls-6{fill:#fff;}</style><linearGradient id="linear-gradient" x1="15.13" y1="15.75" x2="7.21" y2="7.47" gradientUnits="userSpaceOnUse"><stop offset="0" stop-color="#fff"/><stop offset="1"/></linearGradient><linearGradient id="linear-gradient-2" x1="11.23" y1="12.41" x2="6.65" y2="7.62" xlink:href="#linear-gradient"/><linearGradient id="linear-gradient-3" x1="13.02" y1="17.74" x2="5.11" y2="9.47" xlink:href="#linear-gradient"/></defs><title>Asset 6</title><g class="cls-1"><g id="Layer_2" data-name="Layer 2"><g id="Layer_7" data-name="Layer 7"><rect class="cls-2" width="14.65" height="14.65" rx="2" ry="2"/><polygon class="cls-3" points="4.12 5.39 6.35 7.62 6.35 5.39 4.12 5.39"/><path class="cls-4" d="M10.67,5.39H8.42v3.2H6.35l1.75,1.75H10.3V7.57H11v3.5H3.81l5.8,3.62,2.22,0A2.81,2.81,0,0,0,14,14.1a2.17,2.17,0,0,0,.63-1.75V11.07Z"/><polygon class="cls-5" points="4.56 10.33 7.32 10.33 4.56 7.57 4.56 7.64 4.56 10.33"/><polygon class="cls-6" points="7.39 1.63 4.12 5.39 6.35 5.39 6.35 7.62 6.35 8.59 7.44 8.59 8.42 8.59 8.42 5.39 8.79 5.39 10.67 5.39 7.39 1.63"/><polygon class="cls-6" points="10.97 7.57 10.3 7.57 10.3 10.33 9.49 10.33 8.09 10.33 8.03 10.33 7.32 10.33 7.32 10.33 4.56 10.33 4.56 7.64 4.56 7.57 4.49 7.57 3.81 7.57 3.81 11.07 10.97 11.07 10.97 7.57"/></g></g></g></svg>