<svg xmlns="http://www.w3.org/2000/svg" xmlns:xlink="http://www.w3.org/1999/xlink" viewBox="0 0 14.60 14.60"><defs><style>.cls-1{isolation:isolate;}.cls-2{fill:#cd4e0e;}.cls-3{opacity:0.37;mix-blend-mode:multiply;fill:url(#linear-gradient);}.cls-4{fill:#fff;}</style><linearGradient id="linear-gradient" x1="12.71" y1="13.36" x2="1.84" y2="0.27" gradientUnits="userSpaceOnUse"><stop offset="0" stop-color="#fff"/><stop offset="1"/></linearGradient></defs><title>Asset 8</title><g class="cls-1"><g id="Layer_2" data-name="Layer 2"><g id="Layer_7" data-name="Layer 7"><rect class="cls-2" width="14.65" height="14.65" rx="2" ry="2"/><path class="cls-3" d="M10.74,14.92,4.08,9.64,4,9.34a6.43,6.43,0,0,0,0-.79c-.1-.79.66-.72.59-.82a3.42,3.42,0,0,1,0-.81l0-.44.05-.18L3.95,6c-.2-.09-.14-.93-.14-.93l0-.46c.08-.29.57-.49.57-.49l-.16-.19a2.56,2.56,0,0,1,0-.81l0-.05-.06-.38a4.53,4.53,0,0,1,4.25-.38l6.75,7.33,0,2.94,0,2.33Z"/><path class="cls-4" d="M8.31,4.65v0Z"/><path class="cls-4" d="M9,6.53c0-.24-.31-.45-.78-.6a.32.32,0,0,0,0-.15V4.68a.47.47,0,0,0-.18-.3c.35-.14.57-.33.57-.54V2.73c0-.45-1-.8-2.26-.8s-2.23.35-2.27.8V3.83a.43.43,0,0,0,.18.32c-.34.14-.55.32-.56.52V5.78c0,.25.3.47.78.62a.39.39,0,0,0,0,.13V7.64a.32.32,0,0,0,0,.11c-.36.14-.58.33-.59.53V9.39c0,.45,1,.82,2.27.82s2.27-.37,2.27-.82V8.28s0-.06,0-.09c.37-.14.6-.34.6-.55V6.53ZM5.11,7.68V7.26l.08,0,.28.06v.72L5.11,8ZM5.7,7.6V7.38l.35,0v.72l-.35,0Zm.58,0V7.43h.36v.72H6.28Zm.63,0V7.53l.27,0v.58H6.91Zm.54.09v-.3l.36,0v.72l-.36,0ZM9,6.55c0,.18-.21.35-.59.49a4.83,4.83,0,0,1-1.58.24A4.85,4.85,0,0,1,5.19,7c-.37-.14-.58-.31-.58-.49a.27.27,0,0,1,0-.13A5.2,5.2,0,0,0,6,6.6,3.18,3.18,0,0,0,8.22,6C8.67,6.15,9,6.34,9,6.55ZM5,6.24V5.52l.35,0v.72Zm.58.05V5.57H5.9V6.3Zm.63,0V5.58h.27v.72Zm.54,0V5.55l.36,0v.72Zm.62-.08V5.47l.25-.05h0v.72ZM8.05,6,7.9,6V5.94ZM7.9,5.84V5.33c.2-.08.31-.17.31-.27v.72a.17.17,0,0,1-.06.12Zm.7-2c0,.1-.11.19-.31.27V3.38c.2-.08.31-.17.31-.27ZM6.44,2c1.18,0,2.17.33,2.17.73,0,.18-.22.35-.59.49a4.86,4.86,0,0,1-1.58.23,4.9,4.9,0,0,1-1.59-.23c-.37-.14-.58-.31-.58-.49C4.26,2.35,5.26,2,6.44,2ZM8,3.46v.72l-.13,0-.15,0h0V3.52L8,3.47Zm-.55.1v.72l-.36,0V3.6Zm-.63.06v.72H6.56V3.63Zm-.54,0v.72H5.93V3.62Zm-.59,0v.72l-.35,0V3.57Zm-.58-.08v.72l-.36-.08V3.45l.08,0Zm-.89.3V3.11c0,.09.09.18.26.25v.72C4.32,4,4.22,3.92,4.22,3.83Zm.21.38a3.91,3.91,0,0,0,2,.44A4.88,4.88,0,0,0,8,4.41a.37.37,0,0,1,.18.28c0,.18-.21.36-.58.49A4.87,4.87,0,0,1,6,5.42a4.86,4.86,0,0,1-1.59-.23c-.37-.14-.59-.31-.59-.49S4.09,4.35,4.43,4.22ZM4.1,6c-.17-.07-.26-.16-.26-.25V5.06c0,.09.09.18.26.25Zm.27.09V5.4l.08,0,.28.06V6.2Zm.2,1.52V6.92c0,.09.1.18.27.25v.72a.68.68,0,0,1-.16-.09L4.6,7.72A.13.13,0,0,1,4.57,7.64Zm-.31,2C4.09,9.57,4,9.48,4,9.39V8.67c0,.09.1.18.26.25Zm.63.17-.36-.08V9l.08,0,.28.06Zm.58.08-.35,0V9.13l.35,0Zm.59,0H5.7V9.18h.36Zm.54,0H6.33V9.19H6.6Zm.63-.05-.36,0V9.16l.36,0ZM8.38,8.3c0,.18-.22.36-.59.49A4.83,4.83,0,0,1,6.21,9,4.81,4.81,0,0,1,4.62,8.8C4.25,8.66,4,8.48,4,8.3s.21-.34.54-.47a3,3,0,0,0,2.2.63,5,5,0,0,0,1.59-.23A.32.32,0,0,1,8.38,8.3Z"/><path class="cls-4" d="M10,6.3a2.84,2.84,0,1,0,2.84,2.84A2.84,2.84,0,0,0,10,6.3Zm.21,4.23V11H9.77v-.43a2,2,0,0,1-.78-.2l.14-.54a1.62,1.62,0,0,0,.76.2c.27,0,.45-.1.45-.28s-.15-.28-.49-.4S9,9,9,8.53a.84.84,0,0,1,.78-.82V7.27h.44v.4a1.69,1.69,0,0,1,.67.15l-.14.52a1.46,1.46,0,0,0-.66-.16c-.3,0-.39.13-.39.26s.16.25.55.39c.55.19.76.44.76.86A.87.87,0,0,1,10.22,10.54Z"/></g></g></g></svg>