<?xml version="1.0" encoding="UTF-8"?>
<svg id="Layer_2" data-name="Layer 2" xmlns="http://www.w3.org/2000/svg" xmlns:xlink="http://www.w3.org/1999/xlink" viewBox="0 0 149.38 149.96">
  <defs>
    <style>
      .cls-1 {
        fill: url(#linear-gradient);
        isolation: isolate;
        opacity: .5;
      }

      .cls-2 {
        fill: #fff;
      }

      .cls-3 {
        fill: #2c83ec;
      }
    </style>
    <linearGradient id="linear-gradient" x1="-415.66" y1="493.38" x2="-544.56" y2="622.39" gradientTransform="translate(564 659.51) scale(1 -1)" gradientUnits="userSpaceOnUse">
      <stop offset="0" stop-color="#fff" stop-opacity="0"/>
      <stop offset="1" stop-color="#000"/>
    </linearGradient>
  </defs>
  <g id="Layer_1-2" data-name="Layer 1">
    <g id="Layer_2-2" data-name="Layer 2">
      <g id="Layer_7" data-name="Layer 7">
        <rect class="cls-3" width="149.29" height="149.29" rx="20.38" ry="20.38"/>
        <path class="cls-1" d="m78.97,14.16l-12.64,3.06,2.24,27.62-12.64,9.27-15.18,50.65-22.01,17.53,55.54,27.31h32.51s27.92,2.24,35.67-4.38c5.7-7.06,8.04-16.25,6.42-25.17v-39.23L78.97,14.16Z"/>
        <path class="cls-2" d="m62.47,109.34c-4.82-2.29-9.98-3.77-15.29-4.38l.51-3.77c1.07-.57,1.85-1.57,2.14-2.75v-3.46c.2.07.41.07.61,0,.56.06,1.06-.35,1.12-.91,0,0,0,0,0-.01l.51-5.4c.06-.56-.35-1.06-.91-1.12,0,0,0,0-.01,0h-.2v-3.06c.6-2.68-.12-5.48-1.94-7.54-4.8-3.83-11.61-3.83-16.41,0-1.83,2.05-2.55,4.86-1.94,7.54v3.06h-.1c-.56.05-.97.55-.92,1.11,0,0,0,0,0,.01l.92,5.71c.05.56.55.97,1.11.92,0,0,0,0,.01,0,.2.06.41.06.61,0v3.46c.29,1.18,1.07,2.18,2.14,2.75l.51,3.77c-5.3.61-10.46,2.09-15.29,4.38-1.59.97-2.53,2.72-2.45,4.59l.61,5.71c.23,1.72,1.48,3.13,3.16,3.57,13.26,2.13,26.78,2.13,40.05,0,1.68-.44,2.93-1.85,3.16-3.57l.61-5.71c.22-1.95-.69-3.85-2.34-4.89Z"/>
        <path class="cls-2" d="m129.11,109.34c-4.82-2.29-9.98-3.77-15.29-4.38l.51-3.77c1.07-.57,1.85-1.57,2.14-2.75v-3.46c.2.06.41.06.61,0,.56.06,1.06-.35,1.12-.91,0,0,0,0,0-.01l.51-5.4c.06-.56-.35-1.06-.91-1.12,0,0,0,0-.01,0h-.61v-3.06c.62-2.68-.1-5.49-1.94-7.54-4.8-3.83-11.61-3.83-16.41,0-1.83,2.05-2.55,4.86-1.94,7.54v3.06h.61c-.56.05-.97.55-.92,1.11,0,0,0,0,0,.01l.51,5.4c.05.56.55.97,1.11.92,0,0,0,0,.01,0,.2.06.41.06.61,0v3.46c.3,1.17,1.08,2.17,2.14,2.75l.51,3.77c-5.3.61-10.47,2.09-15.29,4.38-1.63.94-2.61,2.7-2.55,4.59l.61,5.71c.23,1.72,1.48,3.13,3.16,3.57,13.26,2.13,26.78,2.13,40.05,0,1.68-.44,2.93-1.85,3.16-3.57l.51-5.71c.17-1.78-.6-3.52-2.04-4.59Z"/>
        <path class="cls-2" d="m90.39,95.18l-12.94-7.44v-14.98c0-1.6-1.3-2.9-2.9-2.9s-2.9,1.3-2.9,2.9h0v14.98l-12.94,7.54c-1.41.71-1.98,2.42-1.27,3.83.51,1.01,1.57,1.63,2.7,1.57.47.12.96.12,1.43,0l13.04-7.95,12.94,7.44c.47.12.96.12,1.43,0,1.57.08,2.92-1.13,3-2.7.06-1.13-.56-2.19-1.57-2.7v.41Z"/>
        <path class="cls-2" d="m95.79,49.22c-4.82-2.28-9.99-3.76-15.29-4.38l.51-4.08c1.07-.57,1.85-1.57,2.14-2.75v-3.46h.61c.56.06,1.06-.35,1.12-.91,0,0,0,0,0-.01l.51-5.4c.06-.56-.35-1.06-.91-1.12,0,0,0,0-.01,0h-.2v-3.06c.62-2.68-.1-5.49-1.94-7.54-4.8-3.83-11.61-3.83-16.41,0-1.83,2.05-2.55,4.86-1.94,7.54v3.06h.2c-.56.05-.97.55-.92,1.11,0,0,0,0,0,.01l.51,5.4c.05.56.55.97,1.11.92,0,0,0,0,.01,0h.61v3.46c.38,1.26,1.32,2.27,2.55,2.75l.51,3.77c-5.3.62-10.46,2.1-15.29,4.38-1.66,1.04-2.57,2.95-2.34,4.89,0,1.9.2,3.8.61,5.71.23,1.72,1.48,3.13,3.16,3.57,13.26,2.13,26.78,2.13,40.05,0,1.68-.44,2.93-1.85,3.16-3.57l.51-5.71c.04-1.9-.98-3.67-2.65-4.59Z"/>
      </g>
    </g>
  </g>
</svg>