<svg xmlns="http://www.w3.org/2000/svg" version="1.1" xmlns:xlink="http://www.w3.org/1999/xlink" width="512" height="512" x="0" y="0" viewBox="0 0 512 512" style="enable-background:new 0 0 512 512" xml:space="preserve" class=""><g><path fill-rule="evenodd" d="M26.213 268.456c1.092 16.8 2.929 30.086 7.559 47.224 1.256 4.648 5.328 7.767 10.144 7.767h64.553a10.469 10.469 0 0 0 10.451-11.592c-3.811-36.719-4.22-74.908-1.184-111.948a10.467 10.467 0 0 0-10.472-11.365H43.917c-4.815 0-8.888 3.119-10.144 7.768a225.232 225.232 0 0 0-6.633 35.696c-1.128 10.949-1.254 18.058-1.195 28.869zm98.431-122.198c4.247-23.802 9.946-46.586 16.97-67.861 3.14-9.512-7.701-17.631-15.945-11.942-27.5 18.974-50.698 43.774-67.774 72.602-4.161 7.024.877 15.863 9.041 15.863H114.3c5.137 0 9.442-3.605 10.344-8.662zm227.821-3.888c-7.789-39.304-19.835-75.118-35.54-104.752-1.459-2.753-3.782-4.558-6.811-5.292-35.475-8.594-72.766-8.587-108.216 0-3.029.734-5.351 2.538-6.811 5.292-15.704 29.635-27.75 65.448-35.539 104.752a10.474 10.474 0 0 0 10.307 12.55h172.303c6.657 0 11.601-6.02 10.307-12.55zm45.247 12.55h47.366c8.164 0 13.201-8.838 9.041-15.862-17.077-28.833-40.276-53.64-67.779-72.61-8.244-5.687-19.084 2.432-15.944 11.943 7.024 21.277 12.724 44.063 16.972 67.868.903 5.056 5.208 8.661 10.344 8.661zm5.833 168.528h64.553c4.815 0 8.888-3.118 10.144-7.767a224.9 224.9 0 0 0 6.632-35.697c1.223-11.961 1.193-17.438 1.193-29.33 0-4.765-.771-14.544-1.194-18.648a225.232 225.232 0 0 0-6.633-35.696c-1.255-4.649-5.329-7.768-10.144-7.768H404.75a10.467 10.467 0 0 0-10.472 11.365c3.036 37.041 2.627 75.228-1.184 111.948a10.47 10.47 0 0 0 10.451 11.593zm-18.618 42.016c-5.026 24.486-11.882 48.985-20.606 71.832-3.609 9.45 6.969 18.053 15.485 12.595a231.919 231.919 0 0 0 74.306-76.958c4.162-7.024-.875-15.864-9.04-15.864H395.22c-5.042.001-9.279 3.457-10.293 8.395zM147.69 437.291c-8.724-22.849-15.578-47.34-20.604-71.826-1.014-4.939-5.251-8.395-10.292-8.395H66.942c-8.165 0-13.202 8.84-9.04 15.864a231.957 231.957 0 0 0 74.303 76.952c8.516 5.458 19.094-3.145 15.485-12.595zm191.535-80.221H172.789a10.475 10.475 0 0 0-10.243 12.85c9.451 41.315 23.68 78.181 41.8 107.076 1.595 2.544 3.914 4.141 6.86 4.725 29.576 5.858 60 5.863 89.601 0 2.946-.584 5.264-2.181 6.86-4.725 18.12-28.895 32.35-65.754 41.801-107.076a10.475 10.475 0 0 0-10.243-12.85zM149.353 249.257c0 22.047 1.298 43.797 3.731 64.888a10.469 10.469 0 0 0 10.438 9.303h184.97c5.364 0 9.823-3.975 10.438-9.303a569.291 569.291 0 0 0 1.443-116.04 10.481 10.481 0 0 0-10.465-9.562H162.105a10.481 10.481 0 0 0-10.465 9.562 569.817 569.817 0 0 0-2.287 51.152z" clip-rule="evenodd" fill="#2c83ec" opacity="1" data-original="#000000" class=""></path></g></svg>